<?xml version="1.0" encoding="utf-8" standalone="no"?>
<!DOCTYPE svg PUBLIC "-//W3C//DTD SVG 1.1//EN"
  "http://www.w3.org/Graphics/SVG/1.1/DTD/svg11.dtd">
<!-- Created with matplotlib (https://matplotlib.org/) -->
<svg height="504pt" version="1.1" viewBox="0 0 792 504" width="792pt" xmlns="http://www.w3.org/2000/svg" xmlns:xlink="http://www.w3.org/1999/xlink">
 <defs>
  <style type="text/css">
*{stroke-linecap:butt;stroke-linejoin:round;}
  </style>
 </defs>
 <g id="figure_1">
  <g id="patch_1">
   <path d="M 0 504 
L 792 504 
L 792 0 
L 0 0 
z
" style="fill:#ffffff;"/>
  </g>
  <g id="axes_1">
   <g id="patch_2">
    <path d="M 79.2 453.6 
L 712.8 453.6 
L 712.8 50.4 
L 79.2 50.4 
z
" style="fill:#ffffff;"/>
   </g>
   <g id="matplotlib.axis_1">
    <g id="xtick_1">
     <g id="line2d_1">
      <defs>
       <path d="M 0 0 
L 0 3.5 
" id="me6cc44b6e4" style="stroke:#000000;stroke-width:0.8;"/>
      </defs>
      <g>
       <use style="stroke:#000000;stroke-width:0.8;" x="79.2" xlink:href="#me6cc44b6e4" y="453.6"/>
      </g>
     </g>
     <g id="text_1">
      <!-- 0 -->
      <defs>
       <path d="M 31.78125 66.40625 
Q 24.171875 66.40625 20.328125 58.90625 
Q 16.5 51.421875 16.5 36.375 
Q 16.5 21.390625 20.328125 13.890625 
Q 24.171875 6.390625 31.78125 6.390625 
Q 39.453125 6.390625 43.28125 13.890625 
Q 47.125 21.390625 47.125 36.375 
Q 47.125 51.421875 43.28125 58.90625 
Q 39.453125 66.40625 31.78125 66.40625 
z
M 31.78125 74.21875 
Q 44.046875 74.21875 50.515625 64.515625 
Q 56.984375 54.828125 56.984375 36.375 
Q 56.984375 17.96875 50.515625 8.265625 
Q 44.046875 -1.421875 31.78125 -1.421875 
Q 19.53125 -1.421875 13.0625 8.265625 
Q 6.59375 17.96875 6.59375 36.375 
Q 6.59375 54.828125 13.0625 64.515625 
Q 19.53125 74.21875 31.78125 74.21875 
z
" id="DejaVuSans-48"/>
      </defs>
      <g transform="translate(76.01875 468.198438)scale(0.1 -0.1)">
       <use xlink:href="#DejaVuSans-48"/>
      </g>
     </g>
    </g>
    <g id="xtick_2">
     <g id="line2d_2">
      <g>
       <use style="stroke:#000000;stroke-width:0.8;" x="158.4" xlink:href="#me6cc44b6e4" y="453.6"/>
      </g>
     </g>
     <g id="text_2">
      <!-- 25 -->
      <defs>
       <path d="M 19.1875 8.296875 
L 53.609375 8.296875 
L 53.609375 0 
L 7.328125 0 
L 7.328125 8.296875 
Q 12.9375 14.109375 22.625 23.890625 
Q 32.328125 33.6875 34.8125 36.53125 
Q 39.546875 41.84375 41.421875 45.53125 
Q 43.3125 49.21875 43.3125 52.78125 
Q 43.3125 58.59375 39.234375 62.25 
Q 35.15625 65.921875 28.609375 65.921875 
Q 23.96875 65.921875 18.8125 64.3125 
Q 13.671875 62.703125 7.8125 59.421875 
L 7.8125 69.390625 
Q 13.765625 71.78125 18.9375 73 
Q 24.125 74.21875 28.421875 74.21875 
Q 39.75 74.21875 46.484375 68.546875 
Q 53.21875 62.890625 53.21875 53.421875 
Q 53.21875 48.921875 51.53125 44.890625 
Q 49.859375 40.875 45.40625 35.40625 
Q 44.1875 33.984375 37.640625 27.21875 
Q 31.109375 20.453125 19.1875 8.296875 
z
" id="DejaVuSans-50"/>
       <path d="M 10.796875 72.90625 
L 49.515625 72.90625 
L 49.515625 64.59375 
L 19.828125 64.59375 
L 19.828125 46.734375 
Q 21.96875 47.46875 24.109375 47.828125 
Q 26.265625 48.1875 28.421875 48.1875 
Q 40.625 48.1875 47.75 41.5 
Q 54.890625 34.8125 54.890625 23.390625 
Q 54.890625 11.625 47.5625 5.09375 
Q 40.234375 -1.421875 26.90625 -1.421875 
Q 22.3125 -1.421875 17.546875 -0.640625 
Q 12.796875 0.140625 7.71875 1.703125 
L 7.71875 11.625 
Q 12.109375 9.234375 16.796875 8.0625 
Q 21.484375 6.890625 26.703125 6.890625 
Q 35.15625 6.890625 40.078125 11.328125 
Q 45.015625 15.765625 45.015625 23.390625 
Q 45.015625 31 40.078125 35.4375 
Q 35.15625 39.890625 26.703125 39.890625 
Q 22.75 39.890625 18.8125 39.015625 
Q 14.890625 38.140625 10.796875 36.28125 
z
" id="DejaVuSans-53"/>
      </defs>
      <g transform="translate(152.0375 468.198438)scale(0.1 -0.1)">
       <use xlink:href="#DejaVuSans-50"/>
       <use x="63.623047" xlink:href="#DejaVuSans-53"/>
      </g>
     </g>
    </g>
    <g id="xtick_3">
     <g id="line2d_3">
      <g>
       <use style="stroke:#000000;stroke-width:0.8;" x="237.6" xlink:href="#me6cc44b6e4" y="453.6"/>
      </g>
     </g>
     <g id="text_3">
      <!-- 50 -->
      <g transform="translate(231.2375 468.198438)scale(0.1 -0.1)">
       <use xlink:href="#DejaVuSans-53"/>
       <use x="63.623047" xlink:href="#DejaVuSans-48"/>
      </g>
     </g>
    </g>
    <g id="xtick_4">
     <g id="line2d_4">
      <g>
       <use style="stroke:#000000;stroke-width:0.8;" x="316.8" xlink:href="#me6cc44b6e4" y="453.6"/>
      </g>
     </g>
     <g id="text_4">
      <!-- 75 -->
      <defs>
       <path d="M 8.203125 72.90625 
L 55.078125 72.90625 
L 55.078125 68.703125 
L 28.609375 0 
L 18.3125 0 
L 43.21875 64.59375 
L 8.203125 64.59375 
z
" id="DejaVuSans-55"/>
      </defs>
      <g transform="translate(310.4375 468.198438)scale(0.1 -0.1)">
       <use xlink:href="#DejaVuSans-55"/>
       <use x="63.623047" xlink:href="#DejaVuSans-53"/>
      </g>
     </g>
    </g>
    <g id="xtick_5">
     <g id="line2d_5">
      <g>
       <use style="stroke:#000000;stroke-width:0.8;" x="396" xlink:href="#me6cc44b6e4" y="453.6"/>
      </g>
     </g>
     <g id="text_5">
      <!-- 100 -->
      <defs>
       <path d="M 12.40625 8.296875 
L 28.515625 8.296875 
L 28.515625 63.921875 
L 10.984375 60.40625 
L 10.984375 69.390625 
L 28.421875 72.90625 
L 38.28125 72.90625 
L 38.28125 8.296875 
L 54.390625 8.296875 
L 54.390625 0 
L 12.40625 0 
z
" id="DejaVuSans-49"/>
      </defs>
      <g transform="translate(386.45625 468.198438)scale(0.1 -0.1)">
       <use xlink:href="#DejaVuSans-49"/>
       <use x="63.623047" xlink:href="#DejaVuSans-48"/>
       <use x="127.246094" xlink:href="#DejaVuSans-48"/>
      </g>
     </g>
    </g>
    <g id="xtick_6">
     <g id="line2d_6">
      <g>
       <use style="stroke:#000000;stroke-width:0.8;" x="475.2" xlink:href="#me6cc44b6e4" y="453.6"/>
      </g>
     </g>
     <g id="text_6">
      <!-- 125 -->
      <g transform="translate(465.65625 468.198438)scale(0.1 -0.1)">
       <use xlink:href="#DejaVuSans-49"/>
       <use x="63.623047" xlink:href="#DejaVuSans-50"/>
       <use x="127.246094" xlink:href="#DejaVuSans-53"/>
      </g>
     </g>
    </g>
    <g id="xtick_7">
     <g id="line2d_7">
      <g>
       <use style="stroke:#000000;stroke-width:0.8;" x="554.4" xlink:href="#me6cc44b6e4" y="453.6"/>
      </g>
     </g>
     <g id="text_7">
      <!-- 150 -->
      <g transform="translate(544.85625 468.198438)scale(0.1 -0.1)">
       <use xlink:href="#DejaVuSans-49"/>
       <use x="63.623047" xlink:href="#DejaVuSans-53"/>
       <use x="127.246094" xlink:href="#DejaVuSans-48"/>
      </g>
     </g>
    </g>
    <g id="xtick_8">
     <g id="line2d_8">
      <g>
       <use style="stroke:#000000;stroke-width:0.8;" x="633.6" xlink:href="#me6cc44b6e4" y="453.6"/>
      </g>
     </g>
     <g id="text_8">
      <!-- 175 -->
      <g transform="translate(624.05625 468.198438)scale(0.1 -0.1)">
       <use xlink:href="#DejaVuSans-49"/>
       <use x="63.623047" xlink:href="#DejaVuSans-55"/>
       <use x="127.246094" xlink:href="#DejaVuSans-53"/>
      </g>
     </g>
    </g>
    <g id="xtick_9">
     <g id="line2d_9">
      <g>
       <use style="stroke:#000000;stroke-width:0.8;" x="712.8" xlink:href="#me6cc44b6e4" y="453.6"/>
      </g>
     </g>
     <g id="text_9">
      <!-- 200 -->
      <g transform="translate(703.25625 468.198438)scale(0.1 -0.1)">
       <use xlink:href="#DejaVuSans-50"/>
       <use x="63.623047" xlink:href="#DejaVuSans-48"/>
       <use x="127.246094" xlink:href="#DejaVuSans-48"/>
      </g>
     </g>
    </g>
   </g>
   <g id="matplotlib.axis_2">
    <g id="ytick_1">
     <g id="line2d_10">
      <defs>
       <path d="M 0 0 
L -3.5 0 
" id="m32384b6eaf" style="stroke:#000000;stroke-width:0.8;"/>
      </defs>
      <g>
       <use style="stroke:#000000;stroke-width:0.8;" x="79.2" xlink:href="#m32384b6eaf" y="453.6"/>
      </g>
     </g>
     <g id="text_10">
      <!-- 0.0 -->
      <defs>
       <path d="M 10.6875 12.40625 
L 21 12.40625 
L 21 0 
L 10.6875 0 
z
" id="DejaVuSans-46"/>
      </defs>
      <g transform="translate(56.296875 457.399219)scale(0.1 -0.1)">
       <use xlink:href="#DejaVuSans-48"/>
       <use x="63.623047" xlink:href="#DejaVuSans-46"/>
       <use x="95.410156" xlink:href="#DejaVuSans-48"/>
      </g>
     </g>
    </g>
    <g id="ytick_2">
     <g id="line2d_11">
      <g>
       <use style="stroke:#000000;stroke-width:0.8;" x="79.2" xlink:href="#m32384b6eaf" y="372.96"/>
      </g>
     </g>
     <g id="text_11">
      <!-- 0.2 -->
      <g transform="translate(56.296875 376.759219)scale(0.1 -0.1)">
       <use xlink:href="#DejaVuSans-48"/>
       <use x="63.623047" xlink:href="#DejaVuSans-46"/>
       <use x="95.410156" xlink:href="#DejaVuSans-50"/>
      </g>
     </g>
    </g>
    <g id="ytick_3">
     <g id="line2d_12">
      <g>
       <use style="stroke:#000000;stroke-width:0.8;" x="79.2" xlink:href="#m32384b6eaf" y="292.32"/>
      </g>
     </g>
     <g id="text_12">
      <!-- 0.4 -->
      <defs>
       <path d="M 37.796875 64.3125 
L 12.890625 25.390625 
L 37.796875 25.390625 
z
M 35.203125 72.90625 
L 47.609375 72.90625 
L 47.609375 25.390625 
L 58.015625 25.390625 
L 58.015625 17.1875 
L 47.609375 17.1875 
L 47.609375 0 
L 37.796875 0 
L 37.796875 17.1875 
L 4.890625 17.1875 
L 4.890625 26.703125 
z
" id="DejaVuSans-52"/>
      </defs>
      <g transform="translate(56.296875 296.119219)scale(0.1 -0.1)">
       <use xlink:href="#DejaVuSans-48"/>
       <use x="63.623047" xlink:href="#DejaVuSans-46"/>
       <use x="95.410156" xlink:href="#DejaVuSans-52"/>
      </g>
     </g>
    </g>
    <g id="ytick_4">
     <g id="line2d_13">
      <g>
       <use style="stroke:#000000;stroke-width:0.8;" x="79.2" xlink:href="#m32384b6eaf" y="211.68"/>
      </g>
     </g>
     <g id="text_13">
      <!-- 0.6 -->
      <defs>
       <path d="M 33.015625 40.375 
Q 26.375 40.375 22.484375 35.828125 
Q 18.609375 31.296875 18.609375 23.390625 
Q 18.609375 15.53125 22.484375 10.953125 
Q 26.375 6.390625 33.015625 6.390625 
Q 39.65625 6.390625 43.53125 10.953125 
Q 47.40625 15.53125 47.40625 23.390625 
Q 47.40625 31.296875 43.53125 35.828125 
Q 39.65625 40.375 33.015625 40.375 
z
M 52.59375 71.296875 
L 52.59375 62.3125 
Q 48.875 64.0625 45.09375 64.984375 
Q 41.3125 65.921875 37.59375 65.921875 
Q 27.828125 65.921875 22.671875 59.328125 
Q 17.53125 52.734375 16.796875 39.40625 
Q 19.671875 43.65625 24.015625 45.921875 
Q 28.375 48.1875 33.59375 48.1875 
Q 44.578125 48.1875 50.953125 41.515625 
Q 57.328125 34.859375 57.328125 23.390625 
Q 57.328125 12.15625 50.6875 5.359375 
Q 44.046875 -1.421875 33.015625 -1.421875 
Q 20.359375 -1.421875 13.671875 8.265625 
Q 6.984375 17.96875 6.984375 36.375 
Q 6.984375 53.65625 15.1875 63.9375 
Q 23.390625 74.21875 37.203125 74.21875 
Q 40.921875 74.21875 44.703125 73.484375 
Q 48.484375 72.75 52.59375 71.296875 
z
" id="DejaVuSans-54"/>
      </defs>
      <g transform="translate(56.296875 215.479219)scale(0.1 -0.1)">
       <use xlink:href="#DejaVuSans-48"/>
       <use x="63.623047" xlink:href="#DejaVuSans-46"/>
       <use x="95.410156" xlink:href="#DejaVuSans-54"/>
      </g>
     </g>
    </g>
    <g id="ytick_5">
     <g id="line2d_14">
      <g>
       <use style="stroke:#000000;stroke-width:0.8;" x="79.2" xlink:href="#m32384b6eaf" y="131.04"/>
      </g>
     </g>
     <g id="text_14">
      <!-- 0.8 -->
      <defs>
       <path d="M 31.78125 34.625 
Q 24.75 34.625 20.71875 30.859375 
Q 16.703125 27.09375 16.703125 20.515625 
Q 16.703125 13.921875 20.71875 10.15625 
Q 24.75 6.390625 31.78125 6.390625 
Q 38.8125 6.390625 42.859375 10.171875 
Q 46.921875 13.96875 46.921875 20.515625 
Q 46.921875 27.09375 42.890625 30.859375 
Q 38.875 34.625 31.78125 34.625 
z
M 21.921875 38.8125 
Q 15.578125 40.375 12.03125 44.71875 
Q 8.5 49.078125 8.5 55.328125 
Q 8.5 64.0625 14.71875 69.140625 
Q 20.953125 74.21875 31.78125 74.21875 
Q 42.671875 74.21875 48.875 69.140625 
Q 55.078125 64.0625 55.078125 55.328125 
Q 55.078125 49.078125 51.53125 44.71875 
Q 48 40.375 41.703125 38.8125 
Q 48.828125 37.15625 52.796875 32.3125 
Q 56.78125 27.484375 56.78125 20.515625 
Q 56.78125 9.90625 50.3125 4.234375 
Q 43.84375 -1.421875 31.78125 -1.421875 
Q 19.734375 -1.421875 13.25 4.234375 
Q 6.78125 9.90625 6.78125 20.515625 
Q 6.78125 27.484375 10.78125 32.3125 
Q 14.796875 37.15625 21.921875 38.8125 
z
M 18.3125 54.390625 
Q 18.3125 48.734375 21.84375 45.5625 
Q 25.390625 42.390625 31.78125 42.390625 
Q 38.140625 42.390625 41.71875 45.5625 
Q 45.3125 48.734375 45.3125 54.390625 
Q 45.3125 60.0625 41.71875 63.234375 
Q 38.140625 66.40625 31.78125 66.40625 
Q 25.390625 66.40625 21.84375 63.234375 
Q 18.3125 60.0625 18.3125 54.390625 
z
" id="DejaVuSans-56"/>
      </defs>
      <g transform="translate(56.296875 134.839219)scale(0.1 -0.1)">
       <use xlink:href="#DejaVuSans-48"/>
       <use x="63.623047" xlink:href="#DejaVuSans-46"/>
       <use x="95.410156" xlink:href="#DejaVuSans-56"/>
      </g>
     </g>
    </g>
    <g id="ytick_6">
     <g id="line2d_15">
      <g>
       <use style="stroke:#000000;stroke-width:0.8;" x="79.2" xlink:href="#m32384b6eaf" y="50.4"/>
      </g>
     </g>
     <g id="text_15">
      <!-- 1.0 -->
      <g transform="translate(56.296875 54.199219)scale(0.1 -0.1)">
       <use xlink:href="#DejaVuSans-49"/>
       <use x="63.623047" xlink:href="#DejaVuSans-46"/>
       <use x="95.410156" xlink:href="#DejaVuSans-48"/>
      </g>
     </g>
    </g>
   </g>
   <g id="line2d_16">
    <path clip-path="url(#p442fa8256b)" d="M 79.2 432.434646 
L 85.536 430.232273 
L 88.704 428.961189 
L 91.872 427.553402 
L 95.04 425.986793 
L 98.208 424.234439 
L 101.376 422.263289 
L 104.544 420.032417 
L 107.712 417.490677 
L 110.88 414.573514 
L 114.048 411.198625 
L 117.216 407.25997 
L 120.384 402.619505 
L 123.552 397.095744 
L 126.72 390.448097 
L 129.888 382.355981 
L 133.056 372.39269 
L 136.224 359.997686 
L 139.392 344.461404 
L 142.56 324.961976 
L 145.728 300.741955 
L 148.896 271.563744 
L 155.232 204.479604 
L 158.4 173.644678 
L 161.568 148.93525 
L 164.736 130.709931 
L 167.904 117.612783 
L 171.072 108.052062 
L 174.24 100.846214 
L 177.408 95.237332 
L 180.576 90.75033 
L 183.744 87.079619 
L 186.912 84.021069 
L 190.08 81.433336 
L 193.248 79.215478 
L 196.416 77.293482 
L 199.584 75.611849 
L 202.752 74.128143 
L 205.92 72.809362 
L 212.256 70.567583 
L 218.592 68.733539 
L 224.928 67.205266 
L 231.264 65.912179 
L 237.6 64.803868 
L 247.104 63.409607 
L 256.608 62.261447 
L 269.28 61.012626 
L 281.952 60.001719 
L 297.792 58.980096 
L 316.8 58.008627 
L 338.976 57.120842 
L 364.32 56.330068 
L 396 55.569729 
L 434.016 54.880374 
L 481.536 54.240275 
L 544.896 53.625794 
L 627.264 53.070332 
L 709.632 52.678063 
L 709.632 52.678063 
" style="fill:none;stroke:#1f77b4;stroke-linecap:square;stroke-width:1.5;"/>
   </g>
   <g id="line2d_17">
    <path clip-path="url(#p442fa8256b)" d="M 79.2 432.434646 
L 82.368 431.280355 
L 85.536 430.000946 
L 88.704 428.576074 
L 91.872 426.980772 
L 95.04 425.184297 
L 98.208 423.148435 
L 101.376 420.825208 
L 104.544 418.153746 
L 107.712 415.055941 
L 110.88 411.430388 
L 114.048 407.143831 
L 117.216 402.019042 
L 120.384 395.817645 
L 123.552 388.21609 
L 126.72 378.773268 
L 129.888 366.89084 
L 133.056 351.776783 
L 136.224 332.449663 
L 139.392 307.883798 
L 142.56 277.491125 
L 145.728 242.104306 
L 148.896 204.97004 
L 152.064 171.046311 
L 155.232 143.984407 
L 158.4 124.162126 
L 161.568 109.934273 
L 164.736 99.508819 
L 167.904 91.620036 
L 171.072 85.471804 
L 174.24 80.563246 
L 177.408 76.567713 
L 180.576 73.263653 
L 183.744 70.495545 
L 186.912 68.151 
L 190.08 66.146777 
L 193.248 64.419896 
L 196.416 62.921829 
L 199.584 61.614571 
L 202.752 60.467936 
L 209.088 58.563928 
L 215.424 57.064077 
L 221.76 55.868458 
L 228.096 54.906291 
L 234.432 54.126074 
L 243.936 53.215684 
L 253.44 52.537617 
L 266.112 51.888219 
L 281.952 51.351948 
L 300.96 50.959896 
L 326.304 50.677369 
L 364.32 50.497239 
L 440.352 50.412025 
L 709.632 50.400007 
L 709.632 50.400007 
" style="fill:none;stroke:#ff7f0e;stroke-linecap:square;stroke-width:1.5;"/>
   </g>
   <g id="line2d_18">
    <path clip-path="url(#p442fa8256b)" d="M 79.2 432.681712 
L 98.208 429.092622 
L 104.544 427.671182 
L 110.88 426.085072 
L 117.216 424.305297 
L 123.552 422.295974 
L 129.888 420.012216 
L 136.224 417.397262 
L 142.56 414.378498 
L 145.728 412.689331 
L 148.896 410.861877 
L 152.064 408.879733 
L 155.232 406.723991 
L 158.4 404.372776 
L 161.568 401.800694 
L 164.736 398.978169 
L 167.904 395.870639 
L 171.072 392.437594 
L 174.24 388.631428 
L 177.408 384.396073 
L 180.576 379.665409 
L 183.744 374.361455 
L 186.912 368.392374 
L 190.08 361.650451 
L 193.248 354.010305 
L 196.416 345.327878 
L 199.584 335.441149 
L 202.752 324.174139 
L 205.92 311.346594 
L 209.088 296.79263 
L 212.256 280.392043 
L 215.424 262.116768 
L 218.592 242.090176 
L 221.76 220.646817 
L 228.096 176.04831 
L 231.264 154.603365 
L 234.432 134.885295 
L 237.6 117.523139 
L 240.768 102.828236 
L 243.936 90.803294 
L 247.104 81.225539 
L 250.272 73.751734 
L 253.44 68.005522 
L 256.608 63.632697 
L 259.776 60.327638 
L 262.944 57.840431 
L 266.112 55.973586 
L 269.28 54.57443 
L 272.448 53.52656 
L 275.616 52.741997 
L 278.784 52.154584 
L 285.12 51.385292 
L 291.456 50.953608 
L 300.96 50.633332 
L 313.632 50.473788 
L 342.144 50.405539 
L 608.256 50.4 
L 627.264 50.4 
L 627.264 50.4 
" style="fill:none;stroke:#2ca02c;stroke-linecap:square;stroke-width:1.5;"/>
   </g>
   <g id="line2d_19">
    <path clip-path="url(#p442fa8256b)" d="M 79.2 432.681712 
L 82.368 431.25922 
L 85.536 429.512787 
L 88.704 427.526054 
L 91.872 425.30137 
L 95.04 422.813127 
L 98.208 420.022413 
L 101.376 416.879992 
L 104.544 413.325546 
L 107.712 409.285445 
L 110.88 404.669552 
L 114.048 399.367143 
L 117.216 393.241856 
L 120.384 386.125681 
L 123.552 377.81221 
L 126.72 368.049955 
L 129.888 356.537714 
L 133.056 342.926111 
L 136.224 326.833239 
L 139.392 307.887563 
L 142.56 285.816212 
L 145.728 260.593799 
L 148.896 232.640696 
L 152.064 202.995299 
L 155.232 173.307802 
L 158.4 145.519852 
L 161.568 121.303023 
L 164.736 101.58062 
L 167.904 86.42293 
L 171.072 75.289963 
L 174.24 67.378823 
L 177.408 61.883949 
L 180.576 58.124768 
L 183.744 55.578088 
L 186.912 53.863493 
L 190.08 52.713569 
L 193.248 51.944189 
L 196.416 51.430168 
L 199.584 51.087052 
L 202.752 50.858139 
L 205.92 50.705465 
L 209.088 50.603658 
L 212.256 50.535777 
L 215.424 50.49052 
L 218.592 50.460347 
L 221.76 50.440231 
L 224.928 50.426821 
L 228.096 50.417881 
L 231.264 50.41192 
L 234.432 50.407947 
L 237.6 50.405298 
L 240.768 50.403532 
L 243.936 50.402355 
L 247.104 50.40157 
L 250.272 50.401047 
L 253.44 50.400698 
L 256.608 50.400465 
L 259.776 50.40031 
L 262.944 50.400207 
L 266.112 50.400138 
L 269.28 50.400092 
L 272.448 50.400061 
L 275.616 50.400041 
L 278.784 50.400027 
L 281.952 50.400018 
L 285.12 50.400012 
L 288.288 50.400008 
L 291.456 50.400005 
L 294.624 50.400004 
L 297.792 50.400002 
L 300.96 50.400002 
L 304.128 50.400001 
L 307.296 50.400001 
L 310.464 50.4 
L 313.632 50.4 
L 316.8 50.4 
L 319.968 50.4 
L 323.136 50.4 
L 326.304 50.4 
L 329.472 50.4 
L 332.64 50.4 
L 335.808 50.4 
L 338.976 50.4 
L 342.144 50.4 
L 345.312 50.4 
L 348.48 50.4 
L 351.648 50.4 
L 354.816 50.4 
L 357.984 50.4 
L 361.152 50.4 
L 364.32 50.4 
L 367.488 50.4 
L 370.656 50.4 
L 373.824 50.4 
L 376.992 50.4 
L 380.16 50.4 
L 383.328 50.4 
L 386.496 50.4 
L 389.664 50.4 
L 392.832 50.4 
L 396 50.4 
L 399.168 50.4 
L 402.336 50.4 
L 405.504 50.4 
L 408.672 50.4 
L 411.84 50.4 
L 415.008 50.4 
L 418.176 50.4 
L 421.344 50.4 
L 424.512 50.4 
L 427.68 50.4 
L 430.848 50.4 
L 434.016 50.4 
L 437.184 50.4 
L 440.352 50.4 
L 443.52 50.4 
L 446.688 50.4 
" style="fill:none;stroke:#d62728;stroke-linecap:square;stroke-width:1.5;"/>
   </g>
   <g id="line2d_20">
    <path clip-path="url(#p442fa8256b)" d="M 79.2 50.4 
L 712.8 50.4 
" style="fill:none;stroke:#9467bd;stroke-dasharray:9.6,2.4,1.5,2.4;stroke-dashoffset:0;stroke-width:1.5;"/>
   </g>
   <g id="patch_3">
    <path d="M 79.2 453.6 
L 79.2 50.4 
" style="fill:none;stroke:#000000;stroke-linecap:square;stroke-linejoin:miter;stroke-width:0.8;"/>
   </g>
   <g id="patch_4">
    <path d="M 79.2 453.6 
L 712.8 453.6 
" style="fill:none;stroke:#000000;stroke-linecap:square;stroke-linejoin:miter;stroke-width:0.8;"/>
   </g>
   <g id="legend_1">
    <g id="patch_5">
     <path d="M 607.448438 117.1125 
L 705.8 117.1125 
Q 707.8 117.1125 707.8 115.1125 
L 707.8 57.4 
Q 707.8 55.4 705.8 55.4 
L 607.448438 55.4 
Q 605.448438 55.4 605.448438 57.4 
L 605.448438 115.1125 
Q 605.448438 117.1125 607.448438 117.1125 
z
" style="fill:#ffffff;opacity:0.8;stroke:#cccccc;stroke-linejoin:miter;"/>
    </g>
    <g id="line2d_21">
     <path d="M 609.448438 63.498437 
L 629.448438 63.498437 
" style="fill:none;stroke:#1f77b4;stroke-linecap:square;stroke-width:1.5;"/>
    </g>
    <g id="line2d_22"/>
    <g id="text_16">
     <!-- s=0.0,k=1.0 -->
     <defs>
      <path d="M 44.28125 53.078125 
L 44.28125 44.578125 
Q 40.484375 46.53125 36.375 47.5 
Q 32.28125 48.484375 27.875 48.484375 
Q 21.1875 48.484375 17.84375 46.4375 
Q 14.5 44.390625 14.5 40.28125 
Q 14.5 37.15625 16.890625 35.375 
Q 19.28125 33.59375 26.515625 31.984375 
L 29.59375 31.296875 
Q 39.15625 29.25 43.1875 25.515625 
Q 47.21875 21.78125 47.21875 15.09375 
Q 47.21875 7.46875 41.1875 3.015625 
Q 35.15625 -1.421875 24.609375 -1.421875 
Q 20.21875 -1.421875 15.453125 -0.5625 
Q 10.6875 0.296875 5.421875 2 
L 5.421875 11.28125 
Q 10.40625 8.6875 15.234375 7.390625 
Q 20.0625 6.109375 24.8125 6.109375 
Q 31.15625 6.109375 34.5625 8.28125 
Q 37.984375 10.453125 37.984375 14.40625 
Q 37.984375 18.0625 35.515625 20.015625 
Q 33.0625 21.96875 24.703125 23.78125 
L 21.578125 24.515625 
Q 13.234375 26.265625 9.515625 29.90625 
Q 5.8125 33.546875 5.8125 39.890625 
Q 5.8125 47.609375 11.28125 51.796875 
Q 16.75 56 26.8125 56 
Q 31.78125 56 36.171875 55.265625 
Q 40.578125 54.546875 44.28125 53.078125 
z
" id="DejaVuSans-115"/>
      <path d="M 10.59375 45.40625 
L 73.1875 45.40625 
L 73.1875 37.203125 
L 10.59375 37.203125 
z
M 10.59375 25.484375 
L 73.1875 25.484375 
L 73.1875 17.1875 
L 10.59375 17.1875 
z
" id="DejaVuSans-61"/>
      <path d="M 11.71875 12.40625 
L 22.015625 12.40625 
L 22.015625 4 
L 14.015625 -11.625 
L 7.71875 -11.625 
L 11.71875 4 
z
" id="DejaVuSans-44"/>
      <path d="M 9.078125 75.984375 
L 18.109375 75.984375 
L 18.109375 31.109375 
L 44.921875 54.6875 
L 56.390625 54.6875 
L 27.390625 29.109375 
L 57.625 0 
L 45.90625 0 
L 18.109375 26.703125 
L 18.109375 0 
L 9.078125 0 
z
" id="DejaVuSans-107"/>
     </defs>
     <g transform="translate(637.448438 66.998437)scale(0.1 -0.1)">
      <use xlink:href="#DejaVuSans-115"/>
      <use x="52.099609" xlink:href="#DejaVuSans-61"/>
      <use x="135.888672" xlink:href="#DejaVuSans-48"/>
      <use x="199.511719" xlink:href="#DejaVuSans-46"/>
      <use x="231.298828" xlink:href="#DejaVuSans-48"/>
      <use x="294.921875" xlink:href="#DejaVuSans-44"/>
      <use x="326.708984" xlink:href="#DejaVuSans-107"/>
      <use x="384.619141" xlink:href="#DejaVuSans-61"/>
      <use x="468.408203" xlink:href="#DejaVuSans-49"/>
      <use x="532.03125" xlink:href="#DejaVuSans-46"/>
      <use x="563.818359" xlink:href="#DejaVuSans-48"/>
     </g>
    </g>
    <g id="line2d_23">
     <path d="M 609.448438 78.176562 
L 629.448438 78.176562 
" style="fill:none;stroke:#ff7f0e;stroke-linecap:square;stroke-width:1.5;"/>
    </g>
    <g id="line2d_24"/>
    <g id="text_17">
     <!-- s=-0.2,k=1.0 -->
     <defs>
      <path d="M 4.890625 31.390625 
L 31.203125 31.390625 
L 31.203125 23.390625 
L 4.890625 23.390625 
z
" id="DejaVuSans-45"/>
     </defs>
     <g transform="translate(637.448438 81.676562)scale(0.1 -0.1)">
      <use xlink:href="#DejaVuSans-115"/>
      <use x="52.099609" xlink:href="#DejaVuSans-61"/>
      <use x="135.888672" xlink:href="#DejaVuSans-45"/>
      <use x="171.972656" xlink:href="#DejaVuSans-48"/>
      <use x="235.595703" xlink:href="#DejaVuSans-46"/>
      <use x="267.382812" xlink:href="#DejaVuSans-50"/>
      <use x="331.005859" xlink:href="#DejaVuSans-44"/>
      <use x="362.792969" xlink:href="#DejaVuSans-107"/>
      <use x="420.703125" xlink:href="#DejaVuSans-61"/>
      <use x="504.492188" xlink:href="#DejaVuSans-49"/>
      <use x="568.115234" xlink:href="#DejaVuSans-46"/>
      <use x="599.902344" xlink:href="#DejaVuSans-48"/>
     </g>
    </g>
    <g id="line2d_25">
     <path d="M 609.448438 92.854687 
L 629.448438 92.854687 
" style="fill:none;stroke:#2ca02c;stroke-linecap:square;stroke-width:1.5;"/>
    </g>
    <g id="line2d_26"/>
    <g id="text_18">
     <!-- s=0.0,k=0.5 -->
     <g transform="translate(637.448438 96.354687)scale(0.1 -0.1)">
      <use xlink:href="#DejaVuSans-115"/>
      <use x="52.099609" xlink:href="#DejaVuSans-61"/>
      <use x="135.888672" xlink:href="#DejaVuSans-48"/>
      <use x="199.511719" xlink:href="#DejaVuSans-46"/>
      <use x="231.298828" xlink:href="#DejaVuSans-48"/>
      <use x="294.921875" xlink:href="#DejaVuSans-44"/>
      <use x="326.708984" xlink:href="#DejaVuSans-107"/>
      <use x="384.619141" xlink:href="#DejaVuSans-61"/>
      <use x="468.408203" xlink:href="#DejaVuSans-48"/>
      <use x="532.03125" xlink:href="#DejaVuSans-46"/>
      <use x="563.818359" xlink:href="#DejaVuSans-53"/>
     </g>
    </g>
    <g id="line2d_27">
     <path d="M 609.448438 107.532812 
L 629.448438 107.532812 
" style="fill:none;stroke:#d62728;stroke-linecap:square;stroke-width:1.5;"/>
    </g>
    <g id="line2d_28"/>
    <g id="text_19">
     <!-- s=-0.2,k=0.5 -->
     <g transform="translate(637.448438 111.032812)scale(0.1 -0.1)">
      <use xlink:href="#DejaVuSans-115"/>
      <use x="52.099609" xlink:href="#DejaVuSans-61"/>
      <use x="135.888672" xlink:href="#DejaVuSans-45"/>
      <use x="171.972656" xlink:href="#DejaVuSans-48"/>
      <use x="235.595703" xlink:href="#DejaVuSans-46"/>
      <use x="267.382812" xlink:href="#DejaVuSans-50"/>
      <use x="331.005859" xlink:href="#DejaVuSans-44"/>
      <use x="362.792969" xlink:href="#DejaVuSans-107"/>
      <use x="420.703125" xlink:href="#DejaVuSans-61"/>
      <use x="504.492188" xlink:href="#DejaVuSans-48"/>
      <use x="568.115234" xlink:href="#DejaVuSans-46"/>
      <use x="599.902344" xlink:href="#DejaVuSans-53"/>
     </g>
    </g>
   </g>
  </g>
 </g>
 <defs>
  <clipPath id="p442fa8256b">
   <rect height="403.2" width="633.6" x="79.2" y="50.4"/>
  </clipPath>
 </defs>
</svg>
