<?xml version="1.0" encoding="utf-8" standalone="no"?>
<!DOCTYPE svg PUBLIC "-//W3C//DTD SVG 1.1//EN"
  "http://www.w3.org/Graphics/SVG/1.1/DTD/svg11.dtd">
<!-- Created with matplotlib (https://matplotlib.org/) -->
<svg height="576pt" version="1.1" viewBox="0 0 720 576" width="720pt" xmlns="http://www.w3.org/2000/svg" xmlns:xlink="http://www.w3.org/1999/xlink">
 <defs>
  <style type="text/css">
*{stroke-linecap:butt;stroke-linejoin:round;}
  </style>
 </defs>
 <g id="figure_1">
  <g id="patch_1">
   <path d="M 0 576 
L 720 576 
L 720 0 
L 0 0 
z
" style="fill:#ffffff;"/>
  </g>
  <g id="axes_1">
   <g id="patch_2">
    <path d="M 72 518.4 
L 648 518.4 
L 648 57.6 
L 72 57.6 
z
" style="fill:#ffffff;"/>
   </g>
   <g id="matplotlib.axis_1">
    <g id="xtick_1">
     <g id="line2d_1">
      <defs>
       <path d="M 0 0 
L 0 3.5 
" id="mf1e576d03f" style="stroke:#000000;stroke-width:0.8;"/>
      </defs>
      <g>
       <use style="stroke:#000000;stroke-width:0.8;" x="98.181818" xlink:href="#mf1e576d03f" y="518.4"/>
      </g>
     </g>
     <g id="text_1">
      <!-- 0 -->
      <defs>
       <path d="M 31.78125 66.40625 
Q 24.171875 66.40625 20.328125 58.90625 
Q 16.5 51.421875 16.5 36.375 
Q 16.5 21.390625 20.328125 13.890625 
Q 24.171875 6.390625 31.78125 6.390625 
Q 39.453125 6.390625 43.28125 13.890625 
Q 47.125 21.390625 47.125 36.375 
Q 47.125 51.421875 43.28125 58.90625 
Q 39.453125 66.40625 31.78125 66.40625 
z
M 31.78125 74.21875 
Q 44.046875 74.21875 50.515625 64.515625 
Q 56.984375 54.828125 56.984375 36.375 
Q 56.984375 17.96875 50.515625 8.265625 
Q 44.046875 -1.421875 31.78125 -1.421875 
Q 19.53125 -1.421875 13.0625 8.265625 
Q 6.59375 17.96875 6.59375 36.375 
Q 6.59375 54.828125 13.0625 64.515625 
Q 19.53125 74.21875 31.78125 74.21875 
z
" id="DejaVuSans-48"/>
      </defs>
      <g transform="translate(95.000568 532.998438)scale(0.1 -0.1)">
       <use xlink:href="#DejaVuSans-48"/>
      </g>
     </g>
    </g>
    <g id="xtick_2">
     <g id="line2d_2">
      <g>
       <use style="stroke:#000000;stroke-width:0.8;" x="203.966942" xlink:href="#mf1e576d03f" y="518.4"/>
      </g>
     </g>
     <g id="text_2">
      <!-- 20 -->
      <defs>
       <path d="M 19.1875 8.296875 
L 53.609375 8.296875 
L 53.609375 0 
L 7.328125 0 
L 7.328125 8.296875 
Q 12.9375 14.109375 22.625 23.890625 
Q 32.328125 33.6875 34.8125 36.53125 
Q 39.546875 41.84375 41.421875 45.53125 
Q 43.3125 49.21875 43.3125 52.78125 
Q 43.3125 58.59375 39.234375 62.25 
Q 35.15625 65.921875 28.609375 65.921875 
Q 23.96875 65.921875 18.8125 64.3125 
Q 13.671875 62.703125 7.8125 59.421875 
L 7.8125 69.390625 
Q 13.765625 71.78125 18.9375 73 
Q 24.125 74.21875 28.421875 74.21875 
Q 39.75 74.21875 46.484375 68.546875 
Q 53.21875 62.890625 53.21875 53.421875 
Q 53.21875 48.921875 51.53125 44.890625 
Q 49.859375 40.875 45.40625 35.40625 
Q 44.1875 33.984375 37.640625 27.21875 
Q 31.109375 20.453125 19.1875 8.296875 
z
" id="DejaVuSans-50"/>
      </defs>
      <g transform="translate(197.604442 532.998438)scale(0.1 -0.1)">
       <use xlink:href="#DejaVuSans-50"/>
       <use x="63.623047" xlink:href="#DejaVuSans-48"/>
      </g>
     </g>
    </g>
    <g id="xtick_3">
     <g id="line2d_3">
      <g>
       <use style="stroke:#000000;stroke-width:0.8;" x="309.752066" xlink:href="#mf1e576d03f" y="518.4"/>
      </g>
     </g>
     <g id="text_3">
      <!-- 40 -->
      <defs>
       <path d="M 37.796875 64.3125 
L 12.890625 25.390625 
L 37.796875 25.390625 
z
M 35.203125 72.90625 
L 47.609375 72.90625 
L 47.609375 25.390625 
L 58.015625 25.390625 
L 58.015625 17.1875 
L 47.609375 17.1875 
L 47.609375 0 
L 37.796875 0 
L 37.796875 17.1875 
L 4.890625 17.1875 
L 4.890625 26.703125 
z
" id="DejaVuSans-52"/>
      </defs>
      <g transform="translate(303.389566 532.998438)scale(0.1 -0.1)">
       <use xlink:href="#DejaVuSans-52"/>
       <use x="63.623047" xlink:href="#DejaVuSans-48"/>
      </g>
     </g>
    </g>
    <g id="xtick_4">
     <g id="line2d_4">
      <g>
       <use style="stroke:#000000;stroke-width:0.8;" x="415.53719" xlink:href="#mf1e576d03f" y="518.4"/>
      </g>
     </g>
     <g id="text_4">
      <!-- 60 -->
      <defs>
       <path d="M 33.015625 40.375 
Q 26.375 40.375 22.484375 35.828125 
Q 18.609375 31.296875 18.609375 23.390625 
Q 18.609375 15.53125 22.484375 10.953125 
Q 26.375 6.390625 33.015625 6.390625 
Q 39.65625 6.390625 43.53125 10.953125 
Q 47.40625 15.53125 47.40625 23.390625 
Q 47.40625 31.296875 43.53125 35.828125 
Q 39.65625 40.375 33.015625 40.375 
z
M 52.59375 71.296875 
L 52.59375 62.3125 
Q 48.875 64.0625 45.09375 64.984375 
Q 41.3125 65.921875 37.59375 65.921875 
Q 27.828125 65.921875 22.671875 59.328125 
Q 17.53125 52.734375 16.796875 39.40625 
Q 19.671875 43.65625 24.015625 45.921875 
Q 28.375 48.1875 33.59375 48.1875 
Q 44.578125 48.1875 50.953125 41.515625 
Q 57.328125 34.859375 57.328125 23.390625 
Q 57.328125 12.15625 50.6875 5.359375 
Q 44.046875 -1.421875 33.015625 -1.421875 
Q 20.359375 -1.421875 13.671875 8.265625 
Q 6.984375 17.96875 6.984375 36.375 
Q 6.984375 53.65625 15.1875 63.9375 
Q 23.390625 74.21875 37.203125 74.21875 
Q 40.921875 74.21875 44.703125 73.484375 
Q 48.484375 72.75 52.59375 71.296875 
z
" id="DejaVuSans-54"/>
      </defs>
      <g transform="translate(409.17469 532.998438)scale(0.1 -0.1)">
       <use xlink:href="#DejaVuSans-54"/>
       <use x="63.623047" xlink:href="#DejaVuSans-48"/>
      </g>
     </g>
    </g>
    <g id="xtick_5">
     <g id="line2d_5">
      <g>
       <use style="stroke:#000000;stroke-width:0.8;" x="521.322314" xlink:href="#mf1e576d03f" y="518.4"/>
      </g>
     </g>
     <g id="text_5">
      <!-- 80 -->
      <defs>
       <path d="M 31.78125 34.625 
Q 24.75 34.625 20.71875 30.859375 
Q 16.703125 27.09375 16.703125 20.515625 
Q 16.703125 13.921875 20.71875 10.15625 
Q 24.75 6.390625 31.78125 6.390625 
Q 38.8125 6.390625 42.859375 10.171875 
Q 46.921875 13.96875 46.921875 20.515625 
Q 46.921875 27.09375 42.890625 30.859375 
Q 38.875 34.625 31.78125 34.625 
z
M 21.921875 38.8125 
Q 15.578125 40.375 12.03125 44.71875 
Q 8.5 49.078125 8.5 55.328125 
Q 8.5 64.0625 14.71875 69.140625 
Q 20.953125 74.21875 31.78125 74.21875 
Q 42.671875 74.21875 48.875 69.140625 
Q 55.078125 64.0625 55.078125 55.328125 
Q 55.078125 49.078125 51.53125 44.71875 
Q 48 40.375 41.703125 38.8125 
Q 48.828125 37.15625 52.796875 32.3125 
Q 56.78125 27.484375 56.78125 20.515625 
Q 56.78125 9.90625 50.3125 4.234375 
Q 43.84375 -1.421875 31.78125 -1.421875 
Q 19.734375 -1.421875 13.25 4.234375 
Q 6.78125 9.90625 6.78125 20.515625 
Q 6.78125 27.484375 10.78125 32.3125 
Q 14.796875 37.15625 21.921875 38.8125 
z
M 18.3125 54.390625 
Q 18.3125 48.734375 21.84375 45.5625 
Q 25.390625 42.390625 31.78125 42.390625 
Q 38.140625 42.390625 41.71875 45.5625 
Q 45.3125 48.734375 45.3125 54.390625 
Q 45.3125 60.0625 41.71875 63.234375 
Q 38.140625 66.40625 31.78125 66.40625 
Q 25.390625 66.40625 21.84375 63.234375 
Q 18.3125 60.0625 18.3125 54.390625 
z
" id="DejaVuSans-56"/>
      </defs>
      <g transform="translate(514.959814 532.998438)scale(0.1 -0.1)">
       <use xlink:href="#DejaVuSans-56"/>
       <use x="63.623047" xlink:href="#DejaVuSans-48"/>
      </g>
     </g>
    </g>
    <g id="xtick_6">
     <g id="line2d_6">
      <g>
       <use style="stroke:#000000;stroke-width:0.8;" x="627.107438" xlink:href="#mf1e576d03f" y="518.4"/>
      </g>
     </g>
     <g id="text_6">
      <!-- 100 -->
      <defs>
       <path d="M 12.40625 8.296875 
L 28.515625 8.296875 
L 28.515625 63.921875 
L 10.984375 60.40625 
L 10.984375 69.390625 
L 28.421875 72.90625 
L 38.28125 72.90625 
L 38.28125 8.296875 
L 54.390625 8.296875 
L 54.390625 0 
L 12.40625 0 
z
" id="DejaVuSans-49"/>
      </defs>
      <g transform="translate(617.563688 532.998438)scale(0.1 -0.1)">
       <use xlink:href="#DejaVuSans-49"/>
       <use x="63.623047" xlink:href="#DejaVuSans-48"/>
       <use x="127.246094" xlink:href="#DejaVuSans-48"/>
      </g>
     </g>
    </g>
   </g>
   <g id="matplotlib.axis_2">
    <g id="ytick_1">
     <g id="line2d_7">
      <defs>
       <path d="M 0 0 
L -3.5 0 
" id="mbba0fa01fc" style="stroke:#000000;stroke-width:0.8;"/>
      </defs>
      <g>
       <use style="stroke:#000000;stroke-width:0.8;" x="72" xlink:href="#mbba0fa01fc" y="518.4"/>
      </g>
     </g>
     <g id="text_7">
      <!-- 0.0 -->
      <defs>
       <path d="M 10.6875 12.40625 
L 21 12.40625 
L 21 0 
L 10.6875 0 
z
" id="DejaVuSans-46"/>
      </defs>
      <g transform="translate(49.096875 522.199219)scale(0.1 -0.1)">
       <use xlink:href="#DejaVuSans-48"/>
       <use x="63.623047" xlink:href="#DejaVuSans-46"/>
       <use x="95.410156" xlink:href="#DejaVuSans-48"/>
      </g>
     </g>
    </g>
    <g id="ytick_2">
     <g id="line2d_8">
      <g>
       <use style="stroke:#000000;stroke-width:0.8;" x="72" xlink:href="#mbba0fa01fc" y="426.24"/>
      </g>
     </g>
     <g id="text_8">
      <!-- 0.2 -->
      <g transform="translate(49.096875 430.039219)scale(0.1 -0.1)">
       <use xlink:href="#DejaVuSans-48"/>
       <use x="63.623047" xlink:href="#DejaVuSans-46"/>
       <use x="95.410156" xlink:href="#DejaVuSans-50"/>
      </g>
     </g>
    </g>
    <g id="ytick_3">
     <g id="line2d_9">
      <g>
       <use style="stroke:#000000;stroke-width:0.8;" x="72" xlink:href="#mbba0fa01fc" y="334.08"/>
      </g>
     </g>
     <g id="text_9">
      <!-- 0.4 -->
      <g transform="translate(49.096875 337.879219)scale(0.1 -0.1)">
       <use xlink:href="#DejaVuSans-48"/>
       <use x="63.623047" xlink:href="#DejaVuSans-46"/>
       <use x="95.410156" xlink:href="#DejaVuSans-52"/>
      </g>
     </g>
    </g>
    <g id="ytick_4">
     <g id="line2d_10">
      <g>
       <use style="stroke:#000000;stroke-width:0.8;" x="72" xlink:href="#mbba0fa01fc" y="241.92"/>
      </g>
     </g>
     <g id="text_10">
      <!-- 0.6 -->
      <g transform="translate(49.096875 245.719219)scale(0.1 -0.1)">
       <use xlink:href="#DejaVuSans-48"/>
       <use x="63.623047" xlink:href="#DejaVuSans-46"/>
       <use x="95.410156" xlink:href="#DejaVuSans-54"/>
      </g>
     </g>
    </g>
    <g id="ytick_5">
     <g id="line2d_11">
      <g>
       <use style="stroke:#000000;stroke-width:0.8;" x="72" xlink:href="#mbba0fa01fc" y="149.76"/>
      </g>
     </g>
     <g id="text_11">
      <!-- 0.8 -->
      <g transform="translate(49.096875 153.559219)scale(0.1 -0.1)">
       <use xlink:href="#DejaVuSans-48"/>
       <use x="63.623047" xlink:href="#DejaVuSans-46"/>
       <use x="95.410156" xlink:href="#DejaVuSans-56"/>
      </g>
     </g>
    </g>
    <g id="ytick_6">
     <g id="line2d_12">
      <g>
       <use style="stroke:#000000;stroke-width:0.8;" x="72" xlink:href="#mbba0fa01fc" y="57.6"/>
      </g>
     </g>
     <g id="text_12">
      <!-- 1.0 -->
      <g transform="translate(49.096875 61.399219)scale(0.1 -0.1)">
       <use xlink:href="#DejaVuSans-49"/>
       <use x="63.623047" xlink:href="#DejaVuSans-46"/>
       <use x="95.410156" xlink:href="#DejaVuSans-48"/>
      </g>
     </g>
    </g>
   </g>
   <g id="line2d_13">
    <path clip-path="url(#p4612106f71)" d="M 98.181818 494.211024 
L 103.471074 493.460884 
L 108.760331 492.665667 
L 114.049587 491.820661 
L 119.338843 490.921223 
L 124.628099 489.962132 
L 129.917355 488.937501 
L 135.206612 487.840673 
L 140.495868 486.664092 
L 145.785124 485.399155 
L 151.07438 484.03603 
L 156.363636 482.563438 
L 161.652893 480.96839 
L 166.942149 479.235867 
L 172.231405 477.34843 
L 177.520661 475.28574 
L 182.809917 473.023972 
L 188.099174 470.535086 
L 193.38843 467.78593 
L 198.677686 464.737126 
L 203.966942 461.341685 
L 209.256198 457.5433 
L 214.545455 453.274229 
L 219.834711 448.452718 
L 225.123967 442.979907 
L 230.413223 436.736228 
L 235.702479 429.577457 
L 240.991736 421.330869 
L 246.280992 411.792548 
L 251.570248 400.727998 
L 256.859504 387.880071 
L 262.14876 372.99108 
L 267.438017 355.849409 
L 272.727273 336.372545 
L 278.016529 314.731768 
L 283.305785 291.497448 
L 288.595041 267.732032 
L 293.884298 244.910148 
L 299.173554 224.587342 
L 304.46281 207.923872 
L 309.752066 195.347971 
L 315.041322 186.564635 
L 320.330579 180.83764 
L 325.619835 177.31737 
L 330.909091 175.258211 
L 336.198347 174.102201 
L 341.487603 173.4747 
L 346.77686 173.143276 
L 352.066116 172.972064 
L 357.355372 172.885191 
L 362.644628 172.84175 
L 367.933884 172.820287 
L 373.22314 172.809787 
L 378.512397 172.804692 
L 383.801653 172.802238 
L 389.090909 172.801062 
L 394.380165 172.800502 
L 399.669421 172.800237 
L 404.958678 172.800111 
L 410.247934 172.800052 
L 415.53719 172.800024 
L 420.826446 172.800011 
L 426.115702 172.800005 
L 431.404959 172.800002 
L 436.694215 172.800001 
L 441.983471 172.800001 
L 447.272727 172.8 
L 452.561983 172.8 
L 457.85124 172.8 
L 463.140496 172.8 
L 468.429752 172.8 
L 473.719008 172.8 
L 479.008264 172.8 
L 484.297521 172.8 
L 489.586777 172.8 
L 494.876033 172.8 
L 500.165289 172.8 
L 505.454545 172.8 
L 510.743802 172.8 
L 516.033058 172.8 
L 521.322314 172.8 
L 526.61157 172.8 
L 531.900826 172.8 
L 537.190083 172.8 
L 542.479339 172.8 
L 547.768595 172.8 
L 553.057851 172.8 
L 558.347107 172.8 
L 563.636364 172.8 
L 568.92562 172.8 
L 574.214876 172.8 
L 579.504132 172.8 
L 584.793388 172.8 
L 590.082645 172.8 
L 595.371901 172.8 
L 600.661157 172.8 
L 605.950413 172.8 
L 611.239669 172.8 
L 616.528926 172.8 
L 621.818182 172.8 
" style="fill:none;stroke:#1f77b4;stroke-linecap:square;stroke-width:1.5;"/>
   </g>
   <g id="line2d_14">
    <path clip-path="url(#p4612106f71)" d="M 98.181818 494.268028 
L 103.471074 494.124884 
L 108.760331 493.977697 
L 114.049587 493.825909 
L 119.338843 493.669333 
L 124.628099 493.507771 
L 129.917355 493.341015 
L 135.206612 493.168846 
L 140.495868 492.991031 
L 145.785124 492.807326 
L 151.07438 492.617473 
L 156.363636 492.421197 
L 161.652893 492.218211 
L 166.942149 492.008206 
L 172.231405 491.790858 
L 177.520661 491.565823 
L 182.809917 491.332735 
L 188.099174 491.091203 
L 193.38843 490.840815 
L 198.677686 490.581131 
L 203.966942 490.31168 
L 209.256198 490.031963 
L 214.545455 489.741445 
L 219.834711 489.439555 
L 225.123967 489.125682 
L 230.413223 488.799171 
L 235.702479 488.459321 
L 240.991736 488.105379 
L 246.280992 487.736535 
L 251.570248 487.351919 
L 256.859504 486.950593 
L 262.14876 486.531545 
L 267.438017 486.093681 
L 272.727273 485.635821 
L 278.016529 485.156683 
L 283.305785 484.654879 
L 288.595041 484.128901 
L 293.884298 483.577106 
L 299.173554 482.997707 
L 304.46281 482.388751 
L 309.752066 481.748102 
L 315.041322 481.073421 
L 320.330579 480.362143 
L 325.619835 479.611444 
L 330.909091 478.818214 
L 336.198347 477.979023 
L 341.487603 477.09007 
L 346.77686 476.147147 
L 352.066116 475.145573 
L 357.355372 474.080136 
L 362.644628 472.945018 
L 367.933884 471.733703 
L 373.22314 470.438883 
L 378.512397 469.052331 
L 383.801653 467.564768 
L 389.090909 465.965693 
L 394.380165 464.243193 
L 399.669421 462.383713 
L 404.958678 460.371783 
L 410.247934 458.189698 
L 415.53719 455.817135 
L 420.826446 453.230702 
L 426.115702 450.403405 
L 431.404959 447.30401 
L 436.694215 443.896313 
L 441.983471 440.138271 
L 447.272727 435.981025 
L 452.561983 431.3678 
L 457.85124 426.232731 
L 463.140496 420.499683 
L 468.429752 414.081233 
L 473.719008 406.878106 
L 479.008264 398.779539 
L 484.297521 389.665394 
L 489.586777 379.411238 
L 494.876033 367.898141 
L 500.165289 355.029394 
L 505.454545 340.756329 
L 510.743802 325.114132 
L 516.033058 308.26474 
L 521.322314 290.536841 
L 526.61157 272.443955 
L 531.900826 254.656754 
L 537.190083 237.915269 
L 542.479339 222.894944 
L 547.768595 210.073514 
L 553.057851 199.654255 
L 558.347107 191.571958 
L 563.636364 185.564093 
L 568.92562 181.265774 
L 574.214876 178.292791 
L 579.504132 176.296366 
L 584.793388 174.989492 
L 590.082645 174.152389 
L 595.371901 173.625883 
L 600.661157 173.299689 
L 605.950413 173.100073 
L 611.239669 172.979124 
L 616.528926 172.906419 
L 621.818182 172.862989 
" style="fill:none;stroke:#ff7f0e;stroke-linecap:square;stroke-width:1.5;"/>
   </g>
   <g id="line2d_15">
    <path clip-path="url(#p4612106f71)" d="M 98.181818 494.324765 
L 103.471074 494.857358 
L 108.760331 495.393689 
L 114.049587 495.928762 
L 119.338843 496.462089 
L 124.628099 496.993195 
L 129.917355 497.521611 
L 135.206612 498.046872 
L 140.495868 498.568527 
L 145.785124 499.08613 
L 151.07438 499.59925 
L 156.363636 500.107468 
L 161.652893 500.610382 
L 166.942149 501.107604 
L 172.231405 501.598763 
L 177.520661 502.083508 
L 182.809917 502.561506 
L 188.099174 503.032445 
L 193.38843 503.496032 
L 198.677686 503.951997 
L 203.966942 504.400092 
L 209.256198 504.84009 
L 214.545455 505.271786 
L 219.834711 505.694999 
L 225.123967 506.109568 
L 230.413223 506.515356 
L 235.702479 506.912246 
L 240.991736 507.300143 
L 246.280992 507.678973 
L 251.570248 508.048682 
L 256.859504 508.409237 
L 262.14876 508.76062 
L 267.438017 509.102836 
L 272.727273 509.435904 
L 278.016529 509.759861 
L 283.305785 510.074757 
L 288.595041 510.38066 
L 293.884298 510.677649 
L 299.173554 510.965817 
L 304.46281 511.245268 
L 309.752066 511.516118 
L 315.041322 511.77849 
L 320.330579 512.03252 
L 325.619835 512.278348 
L 330.909091 512.516124 
L 336.198347 512.746003 
L 341.487603 512.968145 
L 346.77686 513.182715 
L 352.066116 513.389884 
L 357.355372 513.589822 
L 362.644628 513.782706 
L 367.933884 513.968712 
L 373.22314 514.148017 
L 378.512397 514.320802 
L 383.801653 514.487244 
L 389.090909 514.647523 
L 394.380165 514.801816 
L 399.669421 514.950302 
L 404.958678 515.093154 
L 410.247934 515.230548 
L 415.53719 515.362655 
L 420.826446 515.489643 
L 426.115702 515.61168 
L 431.404959 515.728929 
L 436.694215 515.841551 
L 441.983471 515.949704 
L 447.272727 516.053542 
L 452.561983 516.153216 
L 457.85124 516.248874 
L 463.140496 516.340658 
L 468.429752 516.42871 
L 473.719008 516.513166 
L 479.008264 516.594158 
L 484.297521 516.671816 
L 489.586777 516.746265 
L 494.876033 516.817626 
L 500.165289 516.886018 
L 505.454545 516.951555 
L 510.743802 517.014347 
L 516.033058 517.074502 
L 521.322314 517.132123 
L 526.61157 517.18731 
L 531.900826 517.24016 
L 537.190083 517.290767 
L 542.479339 517.339221 
L 547.768595 517.385608 
L 553.057851 517.430012 
L 558.347107 517.472515 
L 563.636364 517.513194 
L 568.92562 517.552123 
L 574.214876 517.589376 
L 579.504132 517.625022 
L 584.793388 517.659127 
L 590.082645 517.691756 
L 595.371901 517.722971 
L 600.661157 517.75283 
L 605.950413 517.781392 
L 611.239669 517.80871 
L 616.528926 517.834838 
L 621.818182 517.859825 
" style="fill:none;stroke:#2ca02c;stroke-linecap:square;stroke-width:1.5;"/>
   </g>
   <g id="line2d_16">
    <path clip-path="url(#p4612106f71)" d="M 98.181818 494.381235 
L 103.471074 495.657803 
L 108.760331 496.907479 
L 114.049587 498.109074 
L 119.338843 499.262139 
L 124.628099 500.366634 
L 129.917355 501.422757 
L 135.206612 502.430923 
L 140.495868 503.391745 
L 145.785124 504.306017 
L 151.07438 505.174689 
L 156.363636 505.998854 
L 161.652893 506.779719 
L 166.942149 507.518592 
L 172.231405 508.21686 
L 177.520661 508.875974 
L 182.809917 509.497429 
L 188.099174 510.082754 
L 193.38843 510.633492 
L 198.677686 511.151193 
L 203.966942 511.637401 
L 209.256198 512.093645 
L 214.545455 512.521427 
L 219.834711 512.922223 
L 225.123967 513.297468 
L 230.413223 513.648558 
L 235.702479 513.976844 
L 240.991736 514.283626 
L 246.280992 514.570157 
L 251.570248 514.837636 
L 256.859504 515.087209 
L 262.14876 515.319972 
L 267.438017 515.536965 
L 272.727273 515.739177 
L 278.016529 515.927547 
L 283.305785 516.102962 
L 288.595041 516.266262 
L 293.884298 516.418237 
L 299.173554 516.559635 
L 304.46281 516.691157 
L 309.752066 516.813463 
L 315.041322 516.927176 
L 320.330579 517.032875 
L 325.619835 517.131107 
L 330.909091 517.222383 
L 336.198347 517.307182 
L 341.487603 517.38595 
L 346.77686 517.459107 
L 352.066116 517.527042 
L 357.355372 517.590121 
L 362.644628 517.648684 
L 367.933884 517.703049 
L 373.22314 517.753511 
L 378.512397 517.800346 
L 383.801653 517.843811 
L 389.090909 517.884145 
L 394.380165 517.921572 
L 399.669421 517.956298 
L 404.958678 517.988516 
L 410.247934 518.018405 
L 415.53719 518.046133 
L 420.826446 518.071854 
L 426.115702 518.095713 
L 431.404959 518.117843 
L 436.694215 518.138368 
L 441.983471 518.157405 
L 447.272727 518.17506 
L 452.561983 518.191434 
L 457.85124 518.206619 
L 463.140496 518.220701 
L 468.429752 518.233759 
L 473.719008 518.245868 
L 479.008264 518.257097 
L 484.297521 518.267509 
L 489.586777 518.277163 
L 494.876033 518.286115 
L 500.165289 518.294415 
L 505.454545 518.302111 
L 510.743802 518.309247 
L 516.033058 518.315863 
L 521.322314 518.321997 
L 526.61157 518.327685 
L 531.900826 518.332958 
L 537.190083 518.337847 
L 542.479339 518.342379 
L 547.768595 518.346582 
L 553.057851 518.350478 
L 558.347107 518.35409 
L 563.636364 518.357438 
L 568.92562 518.360543 
L 574.214876 518.363421 
L 579.504132 518.366089 
L 584.793388 518.368563 
L 590.082645 518.370857 
L 595.371901 518.372983 
L 600.661157 518.374954 
L 605.950413 518.376781 
L 611.239669 518.378475 
L 616.528926 518.380045 
L 621.818182 518.381501 
" style="fill:none;stroke:#d62728;stroke-linecap:square;stroke-width:1.5;"/>
   </g>
   <g id="patch_3">
    <path d="M 72 518.4 
L 72 57.6 
" style="fill:none;stroke:#000000;stroke-linecap:square;stroke-linejoin:miter;stroke-width:0.8;"/>
   </g>
   <g id="patch_4">
    <path d="M 72 518.4 
L 648 518.4 
" style="fill:none;stroke:#000000;stroke-linecap:square;stroke-linejoin:miter;stroke-width:0.8;"/>
   </g>
   <g id="legend_1">
    <g id="patch_5">
     <path d="M 494.273438 124.3125 
L 641 124.3125 
Q 643 124.3125 643 122.3125 
L 643 64.6 
Q 643 62.6 641 62.6 
L 494.273438 62.6 
Q 492.273438 62.6 492.273438 64.6 
L 492.273438 122.3125 
Q 492.273438 124.3125 494.273438 124.3125 
z
" style="fill:#ffffff;opacity:0.8;stroke:#cccccc;stroke-linejoin:miter;"/>
    </g>
    <g id="line2d_17">
     <path d="M 496.273438 70.698438 
L 516.273438 70.698438 
" style="fill:none;stroke:#1f77b4;stroke-linecap:square;stroke-width:1.5;"/>
    </g>
    <g id="line2d_18"/>
    <g id="text_13">
     <!-- outcrossing rate k=1.0 -->
     <defs>
      <path d="M 30.609375 48.390625 
Q 23.390625 48.390625 19.1875 42.75 
Q 14.984375 37.109375 14.984375 27.296875 
Q 14.984375 17.484375 19.15625 11.84375 
Q 23.34375 6.203125 30.609375 6.203125 
Q 37.796875 6.203125 41.984375 11.859375 
Q 46.1875 17.53125 46.1875 27.296875 
Q 46.1875 37.015625 41.984375 42.703125 
Q 37.796875 48.390625 30.609375 48.390625 
z
M 30.609375 56 
Q 42.328125 56 49.015625 48.375 
Q 55.71875 40.765625 55.71875 27.296875 
Q 55.71875 13.875 49.015625 6.21875 
Q 42.328125 -1.421875 30.609375 -1.421875 
Q 18.84375 -1.421875 12.171875 6.21875 
Q 5.515625 13.875 5.515625 27.296875 
Q 5.515625 40.765625 12.171875 48.375 
Q 18.84375 56 30.609375 56 
z
" id="DejaVuSans-111"/>
      <path d="M 8.5 21.578125 
L 8.5 54.6875 
L 17.484375 54.6875 
L 17.484375 21.921875 
Q 17.484375 14.15625 20.5 10.265625 
Q 23.53125 6.390625 29.59375 6.390625 
Q 36.859375 6.390625 41.078125 11.03125 
Q 45.3125 15.671875 45.3125 23.6875 
L 45.3125 54.6875 
L 54.296875 54.6875 
L 54.296875 0 
L 45.3125 0 
L 45.3125 8.40625 
Q 42.046875 3.421875 37.71875 1 
Q 33.40625 -1.421875 27.6875 -1.421875 
Q 18.265625 -1.421875 13.375 4.4375 
Q 8.5 10.296875 8.5 21.578125 
z
M 31.109375 56 
z
" id="DejaVuSans-117"/>
      <path d="M 18.3125 70.21875 
L 18.3125 54.6875 
L 36.8125 54.6875 
L 36.8125 47.703125 
L 18.3125 47.703125 
L 18.3125 18.015625 
Q 18.3125 11.328125 20.140625 9.421875 
Q 21.96875 7.515625 27.59375 7.515625 
L 36.8125 7.515625 
L 36.8125 0 
L 27.59375 0 
Q 17.1875 0 13.234375 3.875 
Q 9.28125 7.765625 9.28125 18.015625 
L 9.28125 47.703125 
L 2.6875 47.703125 
L 2.6875 54.6875 
L 9.28125 54.6875 
L 9.28125 70.21875 
z
" id="DejaVuSans-116"/>
      <path d="M 48.78125 52.59375 
L 48.78125 44.1875 
Q 44.96875 46.296875 41.140625 47.34375 
Q 37.3125 48.390625 33.40625 48.390625 
Q 24.65625 48.390625 19.8125 42.84375 
Q 14.984375 37.3125 14.984375 27.296875 
Q 14.984375 17.28125 19.8125 11.734375 
Q 24.65625 6.203125 33.40625 6.203125 
Q 37.3125 6.203125 41.140625 7.25 
Q 44.96875 8.296875 48.78125 10.40625 
L 48.78125 2.09375 
Q 45.015625 0.34375 40.984375 -0.53125 
Q 36.96875 -1.421875 32.421875 -1.421875 
Q 20.0625 -1.421875 12.78125 6.34375 
Q 5.515625 14.109375 5.515625 27.296875 
Q 5.515625 40.671875 12.859375 48.328125 
Q 20.21875 56 33.015625 56 
Q 37.15625 56 41.109375 55.140625 
Q 45.0625 54.296875 48.78125 52.59375 
z
" id="DejaVuSans-99"/>
      <path d="M 41.109375 46.296875 
Q 39.59375 47.171875 37.8125 47.578125 
Q 36.03125 48 33.890625 48 
Q 26.265625 48 22.1875 43.046875 
Q 18.109375 38.09375 18.109375 28.8125 
L 18.109375 0 
L 9.078125 0 
L 9.078125 54.6875 
L 18.109375 54.6875 
L 18.109375 46.1875 
Q 20.953125 51.171875 25.484375 53.578125 
Q 30.03125 56 36.53125 56 
Q 37.453125 56 38.578125 55.875 
Q 39.703125 55.765625 41.0625 55.515625 
z
" id="DejaVuSans-114"/>
      <path d="M 44.28125 53.078125 
L 44.28125 44.578125 
Q 40.484375 46.53125 36.375 47.5 
Q 32.28125 48.484375 27.875 48.484375 
Q 21.1875 48.484375 17.84375 46.4375 
Q 14.5 44.390625 14.5 40.28125 
Q 14.5 37.15625 16.890625 35.375 
Q 19.28125 33.59375 26.515625 31.984375 
L 29.59375 31.296875 
Q 39.15625 29.25 43.1875 25.515625 
Q 47.21875 21.78125 47.21875 15.09375 
Q 47.21875 7.46875 41.1875 3.015625 
Q 35.15625 -1.421875 24.609375 -1.421875 
Q 20.21875 -1.421875 15.453125 -0.5625 
Q 10.6875 0.296875 5.421875 2 
L 5.421875 11.28125 
Q 10.40625 8.6875 15.234375 7.390625 
Q 20.0625 6.109375 24.8125 6.109375 
Q 31.15625 6.109375 34.5625 8.28125 
Q 37.984375 10.453125 37.984375 14.40625 
Q 37.984375 18.0625 35.515625 20.015625 
Q 33.0625 21.96875 24.703125 23.78125 
L 21.578125 24.515625 
Q 13.234375 26.265625 9.515625 29.90625 
Q 5.8125 33.546875 5.8125 39.890625 
Q 5.8125 47.609375 11.28125 51.796875 
Q 16.75 56 26.8125 56 
Q 31.78125 56 36.171875 55.265625 
Q 40.578125 54.546875 44.28125 53.078125 
z
" id="DejaVuSans-115"/>
      <path d="M 9.421875 54.6875 
L 18.40625 54.6875 
L 18.40625 0 
L 9.421875 0 
z
M 9.421875 75.984375 
L 18.40625 75.984375 
L 18.40625 64.59375 
L 9.421875 64.59375 
z
" id="DejaVuSans-105"/>
      <path d="M 54.890625 33.015625 
L 54.890625 0 
L 45.90625 0 
L 45.90625 32.71875 
Q 45.90625 40.484375 42.875 44.328125 
Q 39.84375 48.1875 33.796875 48.1875 
Q 26.515625 48.1875 22.3125 43.546875 
Q 18.109375 38.921875 18.109375 30.90625 
L 18.109375 0 
L 9.078125 0 
L 9.078125 54.6875 
L 18.109375 54.6875 
L 18.109375 46.1875 
Q 21.34375 51.125 25.703125 53.5625 
Q 30.078125 56 35.796875 56 
Q 45.21875 56 50.046875 50.171875 
Q 54.890625 44.34375 54.890625 33.015625 
z
" id="DejaVuSans-110"/>
      <path d="M 45.40625 27.984375 
Q 45.40625 37.75 41.375 43.109375 
Q 37.359375 48.484375 30.078125 48.484375 
Q 22.859375 48.484375 18.828125 43.109375 
Q 14.796875 37.75 14.796875 27.984375 
Q 14.796875 18.265625 18.828125 12.890625 
Q 22.859375 7.515625 30.078125 7.515625 
Q 37.359375 7.515625 41.375 12.890625 
Q 45.40625 18.265625 45.40625 27.984375 
z
M 54.390625 6.78125 
Q 54.390625 -7.171875 48.1875 -13.984375 
Q 42 -20.796875 29.203125 -20.796875 
Q 24.46875 -20.796875 20.265625 -20.09375 
Q 16.0625 -19.390625 12.109375 -17.921875 
L 12.109375 -9.1875 
Q 16.0625 -11.328125 19.921875 -12.34375 
Q 23.78125 -13.375 27.78125 -13.375 
Q 36.625 -13.375 41.015625 -8.765625 
Q 45.40625 -4.15625 45.40625 5.171875 
L 45.40625 9.625 
Q 42.625 4.78125 38.28125 2.390625 
Q 33.9375 0 27.875 0 
Q 17.828125 0 11.671875 7.65625 
Q 5.515625 15.328125 5.515625 27.984375 
Q 5.515625 40.671875 11.671875 48.328125 
Q 17.828125 56 27.875 56 
Q 33.9375 56 38.28125 53.609375 
Q 42.625 51.21875 45.40625 46.390625 
L 45.40625 54.6875 
L 54.390625 54.6875 
z
" id="DejaVuSans-103"/>
      <path id="DejaVuSans-32"/>
      <path d="M 34.28125 27.484375 
Q 23.390625 27.484375 19.1875 25 
Q 14.984375 22.515625 14.984375 16.5 
Q 14.984375 11.71875 18.140625 8.90625 
Q 21.296875 6.109375 26.703125 6.109375 
Q 34.1875 6.109375 38.703125 11.40625 
Q 43.21875 16.703125 43.21875 25.484375 
L 43.21875 27.484375 
z
M 52.203125 31.203125 
L 52.203125 0 
L 43.21875 0 
L 43.21875 8.296875 
Q 40.140625 3.328125 35.546875 0.953125 
Q 30.953125 -1.421875 24.3125 -1.421875 
Q 15.921875 -1.421875 10.953125 3.296875 
Q 6 8.015625 6 15.921875 
Q 6 25.140625 12.171875 29.828125 
Q 18.359375 34.515625 30.609375 34.515625 
L 43.21875 34.515625 
L 43.21875 35.40625 
Q 43.21875 41.609375 39.140625 45 
Q 35.0625 48.390625 27.6875 48.390625 
Q 23 48.390625 18.546875 47.265625 
Q 14.109375 46.140625 10.015625 43.890625 
L 10.015625 52.203125 
Q 14.9375 54.109375 19.578125 55.046875 
Q 24.21875 56 28.609375 56 
Q 40.484375 56 46.34375 49.84375 
Q 52.203125 43.703125 52.203125 31.203125 
z
" id="DejaVuSans-97"/>
      <path d="M 56.203125 29.59375 
L 56.203125 25.203125 
L 14.890625 25.203125 
Q 15.484375 15.921875 20.484375 11.0625 
Q 25.484375 6.203125 34.421875 6.203125 
Q 39.59375 6.203125 44.453125 7.46875 
Q 49.3125 8.734375 54.109375 11.28125 
L 54.109375 2.78125 
Q 49.265625 0.734375 44.1875 -0.34375 
Q 39.109375 -1.421875 33.890625 -1.421875 
Q 20.796875 -1.421875 13.15625 6.1875 
Q 5.515625 13.8125 5.515625 26.8125 
Q 5.515625 40.234375 12.765625 48.109375 
Q 20.015625 56 32.328125 56 
Q 43.359375 56 49.78125 48.890625 
Q 56.203125 41.796875 56.203125 29.59375 
z
M 47.21875 32.234375 
Q 47.125 39.59375 43.09375 43.984375 
Q 39.0625 48.390625 32.421875 48.390625 
Q 24.90625 48.390625 20.390625 44.140625 
Q 15.875 39.890625 15.1875 32.171875 
z
" id="DejaVuSans-101"/>
      <path d="M 9.078125 75.984375 
L 18.109375 75.984375 
L 18.109375 31.109375 
L 44.921875 54.6875 
L 56.390625 54.6875 
L 27.390625 29.109375 
L 57.625 0 
L 45.90625 0 
L 18.109375 26.703125 
L 18.109375 0 
L 9.078125 0 
z
" id="DejaVuSans-107"/>
      <path d="M 10.59375 45.40625 
L 73.1875 45.40625 
L 73.1875 37.203125 
L 10.59375 37.203125 
z
M 10.59375 25.484375 
L 73.1875 25.484375 
L 73.1875 17.1875 
L 10.59375 17.1875 
z
" id="DejaVuSans-61"/>
     </defs>
     <g transform="translate(524.273438 74.198438)scale(0.1 -0.1)">
      <use xlink:href="#DejaVuSans-111"/>
      <use x="61.181641" xlink:href="#DejaVuSans-117"/>
      <use x="124.560547" xlink:href="#DejaVuSans-116"/>
      <use x="163.769531" xlink:href="#DejaVuSans-99"/>
      <use x="218.75" xlink:href="#DejaVuSans-114"/>
      <use x="259.832031" xlink:href="#DejaVuSans-111"/>
      <use x="321.013672" xlink:href="#DejaVuSans-115"/>
      <use x="373.113281" xlink:href="#DejaVuSans-115"/>
      <use x="425.212891" xlink:href="#DejaVuSans-105"/>
      <use x="452.996094" xlink:href="#DejaVuSans-110"/>
      <use x="516.375" xlink:href="#DejaVuSans-103"/>
      <use x="579.851562" xlink:href="#DejaVuSans-32"/>
      <use x="611.638672" xlink:href="#DejaVuSans-114"/>
      <use x="652.751953" xlink:href="#DejaVuSans-97"/>
      <use x="714.03125" xlink:href="#DejaVuSans-116"/>
      <use x="753.240234" xlink:href="#DejaVuSans-101"/>
      <use x="814.763672" xlink:href="#DejaVuSans-32"/>
      <use x="846.550781" xlink:href="#DejaVuSans-107"/>
      <use x="904.460938" xlink:href="#DejaVuSans-61"/>
      <use x="988.25" xlink:href="#DejaVuSans-49"/>
      <use x="1051.873047" xlink:href="#DejaVuSans-46"/>
      <use x="1083.660156" xlink:href="#DejaVuSans-48"/>
     </g>
    </g>
    <g id="line2d_19">
     <path d="M 496.273438 85.376563 
L 516.273438 85.376563 
" style="fill:none;stroke:#ff7f0e;stroke-linecap:square;stroke-width:1.5;"/>
    </g>
    <g id="line2d_20"/>
    <g id="text_14">
     <!-- outcrossing rate k=0.9 -->
     <defs>
      <path d="M 10.984375 1.515625 
L 10.984375 10.5 
Q 14.703125 8.734375 18.5 7.8125 
Q 22.3125 6.890625 25.984375 6.890625 
Q 35.75 6.890625 40.890625 13.453125 
Q 46.046875 20.015625 46.78125 33.40625 
Q 43.953125 29.203125 39.59375 26.953125 
Q 35.25 24.703125 29.984375 24.703125 
Q 19.046875 24.703125 12.671875 31.3125 
Q 6.296875 37.9375 6.296875 49.421875 
Q 6.296875 60.640625 12.9375 67.421875 
Q 19.578125 74.21875 30.609375 74.21875 
Q 43.265625 74.21875 49.921875 64.515625 
Q 56.59375 54.828125 56.59375 36.375 
Q 56.59375 19.140625 48.40625 8.859375 
Q 40.234375 -1.421875 26.421875 -1.421875 
Q 22.703125 -1.421875 18.890625 -0.6875 
Q 15.09375 0.046875 10.984375 1.515625 
z
M 30.609375 32.421875 
Q 37.25 32.421875 41.125 36.953125 
Q 45.015625 41.5 45.015625 49.421875 
Q 45.015625 57.28125 41.125 61.84375 
Q 37.25 66.40625 30.609375 66.40625 
Q 23.96875 66.40625 20.09375 61.84375 
Q 16.21875 57.28125 16.21875 49.421875 
Q 16.21875 41.5 20.09375 36.953125 
Q 23.96875 32.421875 30.609375 32.421875 
z
" id="DejaVuSans-57"/>
     </defs>
     <g transform="translate(524.273438 88.876563)scale(0.1 -0.1)">
      <use xlink:href="#DejaVuSans-111"/>
      <use x="61.181641" xlink:href="#DejaVuSans-117"/>
      <use x="124.560547" xlink:href="#DejaVuSans-116"/>
      <use x="163.769531" xlink:href="#DejaVuSans-99"/>
      <use x="218.75" xlink:href="#DejaVuSans-114"/>
      <use x="259.832031" xlink:href="#DejaVuSans-111"/>
      <use x="321.013672" xlink:href="#DejaVuSans-115"/>
      <use x="373.113281" xlink:href="#DejaVuSans-115"/>
      <use x="425.212891" xlink:href="#DejaVuSans-105"/>
      <use x="452.996094" xlink:href="#DejaVuSans-110"/>
      <use x="516.375" xlink:href="#DejaVuSans-103"/>
      <use x="579.851562" xlink:href="#DejaVuSans-32"/>
      <use x="611.638672" xlink:href="#DejaVuSans-114"/>
      <use x="652.751953" xlink:href="#DejaVuSans-97"/>
      <use x="714.03125" xlink:href="#DejaVuSans-116"/>
      <use x="753.240234" xlink:href="#DejaVuSans-101"/>
      <use x="814.763672" xlink:href="#DejaVuSans-32"/>
      <use x="846.550781" xlink:href="#DejaVuSans-107"/>
      <use x="904.460938" xlink:href="#DejaVuSans-61"/>
      <use x="988.25" xlink:href="#DejaVuSans-48"/>
      <use x="1051.873047" xlink:href="#DejaVuSans-46"/>
      <use x="1083.660156" xlink:href="#DejaVuSans-57"/>
     </g>
    </g>
    <g id="line2d_21">
     <path d="M 496.273438 100.054688 
L 516.273438 100.054688 
" style="fill:none;stroke:#2ca02c;stroke-linecap:square;stroke-width:1.5;"/>
    </g>
    <g id="line2d_22"/>
    <g id="text_15">
     <!-- outcrossing rate k=0.8 -->
     <g transform="translate(524.273438 103.554688)scale(0.1 -0.1)">
      <use xlink:href="#DejaVuSans-111"/>
      <use x="61.181641" xlink:href="#DejaVuSans-117"/>
      <use x="124.560547" xlink:href="#DejaVuSans-116"/>
      <use x="163.769531" xlink:href="#DejaVuSans-99"/>
      <use x="218.75" xlink:href="#DejaVuSans-114"/>
      <use x="259.832031" xlink:href="#DejaVuSans-111"/>
      <use x="321.013672" xlink:href="#DejaVuSans-115"/>
      <use x="373.113281" xlink:href="#DejaVuSans-115"/>
      <use x="425.212891" xlink:href="#DejaVuSans-105"/>
      <use x="452.996094" xlink:href="#DejaVuSans-110"/>
      <use x="516.375" xlink:href="#DejaVuSans-103"/>
      <use x="579.851562" xlink:href="#DejaVuSans-32"/>
      <use x="611.638672" xlink:href="#DejaVuSans-114"/>
      <use x="652.751953" xlink:href="#DejaVuSans-97"/>
      <use x="714.03125" xlink:href="#DejaVuSans-116"/>
      <use x="753.240234" xlink:href="#DejaVuSans-101"/>
      <use x="814.763672" xlink:href="#DejaVuSans-32"/>
      <use x="846.550781" xlink:href="#DejaVuSans-107"/>
      <use x="904.460938" xlink:href="#DejaVuSans-61"/>
      <use x="988.25" xlink:href="#DejaVuSans-48"/>
      <use x="1051.873047" xlink:href="#DejaVuSans-46"/>
      <use x="1083.660156" xlink:href="#DejaVuSans-56"/>
     </g>
    </g>
    <g id="line2d_23">
     <path d="M 496.273438 114.732813 
L 516.273438 114.732813 
" style="fill:none;stroke:#d62728;stroke-linecap:square;stroke-width:1.5;"/>
    </g>
    <g id="line2d_24"/>
    <g id="text_16">
     <!-- outcrossing rate k=0.7 -->
     <defs>
      <path d="M 8.203125 72.90625 
L 55.078125 72.90625 
L 55.078125 68.703125 
L 28.609375 0 
L 18.3125 0 
L 43.21875 64.59375 
L 8.203125 64.59375 
z
" id="DejaVuSans-55"/>
     </defs>
     <g transform="translate(524.273438 118.232813)scale(0.1 -0.1)">
      <use xlink:href="#DejaVuSans-111"/>
      <use x="61.181641" xlink:href="#DejaVuSans-117"/>
      <use x="124.560547" xlink:href="#DejaVuSans-116"/>
      <use x="163.769531" xlink:href="#DejaVuSans-99"/>
      <use x="218.75" xlink:href="#DejaVuSans-114"/>
      <use x="259.832031" xlink:href="#DejaVuSans-111"/>
      <use x="321.013672" xlink:href="#DejaVuSans-115"/>
      <use x="373.113281" xlink:href="#DejaVuSans-115"/>
      <use x="425.212891" xlink:href="#DejaVuSans-105"/>
      <use x="452.996094" xlink:href="#DejaVuSans-110"/>
      <use x="516.375" xlink:href="#DejaVuSans-103"/>
      <use x="579.851562" xlink:href="#DejaVuSans-32"/>
      <use x="611.638672" xlink:href="#DejaVuSans-114"/>
      <use x="652.751953" xlink:href="#DejaVuSans-97"/>
      <use x="714.03125" xlink:href="#DejaVuSans-116"/>
      <use x="753.240234" xlink:href="#DejaVuSans-101"/>
      <use x="814.763672" xlink:href="#DejaVuSans-32"/>
      <use x="846.550781" xlink:href="#DejaVuSans-107"/>
      <use x="904.460938" xlink:href="#DejaVuSans-61"/>
      <use x="988.25" xlink:href="#DejaVuSans-48"/>
      <use x="1051.873047" xlink:href="#DejaVuSans-46"/>
      <use x="1083.660156" xlink:href="#DejaVuSans-55"/>
     </g>
    </g>
   </g>
  </g>
 </g>
 <defs>
  <clipPath id="p4612106f71">
   <rect height="460.8" width="576" x="72" y="57.6"/>
  </clipPath>
 </defs>
</svg>
