<?xml version="1.0" encoding="utf-8" standalone="no"?>
<!DOCTYPE svg PUBLIC "-//W3C//DTD SVG 1.1//EN"
  "http://www.w3.org/Graphics/SVG/1.1/DTD/svg11.dtd">
<!-- Created with matplotlib (https://matplotlib.org/) -->
<svg height="504pt" version="1.1" viewBox="0 0 792 504" width="792pt" xmlns="http://www.w3.org/2000/svg" xmlns:xlink="http://www.w3.org/1999/xlink">
 <defs>
  <style type="text/css">
*{stroke-linecap:butt;stroke-linejoin:round;}
  </style>
 </defs>
 <g id="figure_1">
  <g id="patch_1">
   <path d="M 0 504 
L 792 504 
L 792 0 
L 0 0 
z
" style="fill:#ffffff;"/>
  </g>
  <g id="axes_1">
   <g id="patch_2">
    <path d="M 79.2 453.6 
L 712.8 453.6 
L 712.8 50.4 
L 79.2 50.4 
z
" style="fill:#ffffff;"/>
   </g>
   <g id="matplotlib.axis_1">
    <g id="xtick_1">
     <g id="line2d_1">
      <defs>
       <path d="M 0 0 
L 0 3.5 
" id="m0969650996" style="stroke:#000000;stroke-width:0.8;"/>
      </defs>
      <g>
       <use style="stroke:#000000;stroke-width:0.8;" x="108" xlink:href="#m0969650996" y="453.6"/>
      </g>
     </g>
     <g id="text_1">
      <!-- 0 -->
      <defs>
       <path d="M 31.78125 66.40625 
Q 24.171875 66.40625 20.328125 58.90625 
Q 16.5 51.421875 16.5 36.375 
Q 16.5 21.390625 20.328125 13.890625 
Q 24.171875 6.390625 31.78125 6.390625 
Q 39.453125 6.390625 43.28125 13.890625 
Q 47.125 21.390625 47.125 36.375 
Q 47.125 51.421875 43.28125 58.90625 
Q 39.453125 66.40625 31.78125 66.40625 
z
M 31.78125 74.21875 
Q 44.046875 74.21875 50.515625 64.515625 
Q 56.984375 54.828125 56.984375 36.375 
Q 56.984375 17.96875 50.515625 8.265625 
Q 44.046875 -1.421875 31.78125 -1.421875 
Q 19.53125 -1.421875 13.0625 8.265625 
Q 6.59375 17.96875 6.59375 36.375 
Q 6.59375 54.828125 13.0625 64.515625 
Q 19.53125 74.21875 31.78125 74.21875 
z
" id="DejaVuSans-48"/>
      </defs>
      <g transform="translate(104.81875 468.198438)scale(0.1 -0.1)">
       <use xlink:href="#DejaVuSans-48"/>
      </g>
     </g>
    </g>
    <g id="xtick_2">
     <g id="line2d_2">
      <g>
       <use style="stroke:#000000;stroke-width:0.8;" x="224.363636" xlink:href="#m0969650996" y="453.6"/>
      </g>
     </g>
     <g id="text_2">
      <!-- 20 -->
      <defs>
       <path d="M 19.1875 8.296875 
L 53.609375 8.296875 
L 53.609375 0 
L 7.328125 0 
L 7.328125 8.296875 
Q 12.9375 14.109375 22.625 23.890625 
Q 32.328125 33.6875 34.8125 36.53125 
Q 39.546875 41.84375 41.421875 45.53125 
Q 43.3125 49.21875 43.3125 52.78125 
Q 43.3125 58.59375 39.234375 62.25 
Q 35.15625 65.921875 28.609375 65.921875 
Q 23.96875 65.921875 18.8125 64.3125 
Q 13.671875 62.703125 7.8125 59.421875 
L 7.8125 69.390625 
Q 13.765625 71.78125 18.9375 73 
Q 24.125 74.21875 28.421875 74.21875 
Q 39.75 74.21875 46.484375 68.546875 
Q 53.21875 62.890625 53.21875 53.421875 
Q 53.21875 48.921875 51.53125 44.890625 
Q 49.859375 40.875 45.40625 35.40625 
Q 44.1875 33.984375 37.640625 27.21875 
Q 31.109375 20.453125 19.1875 8.296875 
z
" id="DejaVuSans-50"/>
      </defs>
      <g transform="translate(218.001136 468.198438)scale(0.1 -0.1)">
       <use xlink:href="#DejaVuSans-50"/>
       <use x="63.623047" xlink:href="#DejaVuSans-48"/>
      </g>
     </g>
    </g>
    <g id="xtick_3">
     <g id="line2d_3">
      <g>
       <use style="stroke:#000000;stroke-width:0.8;" x="340.727273" xlink:href="#m0969650996" y="453.6"/>
      </g>
     </g>
     <g id="text_3">
      <!-- 40 -->
      <defs>
       <path d="M 37.796875 64.3125 
L 12.890625 25.390625 
L 37.796875 25.390625 
z
M 35.203125 72.90625 
L 47.609375 72.90625 
L 47.609375 25.390625 
L 58.015625 25.390625 
L 58.015625 17.1875 
L 47.609375 17.1875 
L 47.609375 0 
L 37.796875 0 
L 37.796875 17.1875 
L 4.890625 17.1875 
L 4.890625 26.703125 
z
" id="DejaVuSans-52"/>
      </defs>
      <g transform="translate(334.364773 468.198438)scale(0.1 -0.1)">
       <use xlink:href="#DejaVuSans-52"/>
       <use x="63.623047" xlink:href="#DejaVuSans-48"/>
      </g>
     </g>
    </g>
    <g id="xtick_4">
     <g id="line2d_4">
      <g>
       <use style="stroke:#000000;stroke-width:0.8;" x="457.090909" xlink:href="#m0969650996" y="453.6"/>
      </g>
     </g>
     <g id="text_4">
      <!-- 60 -->
      <defs>
       <path d="M 33.015625 40.375 
Q 26.375 40.375 22.484375 35.828125 
Q 18.609375 31.296875 18.609375 23.390625 
Q 18.609375 15.53125 22.484375 10.953125 
Q 26.375 6.390625 33.015625 6.390625 
Q 39.65625 6.390625 43.53125 10.953125 
Q 47.40625 15.53125 47.40625 23.390625 
Q 47.40625 31.296875 43.53125 35.828125 
Q 39.65625 40.375 33.015625 40.375 
z
M 52.59375 71.296875 
L 52.59375 62.3125 
Q 48.875 64.0625 45.09375 64.984375 
Q 41.3125 65.921875 37.59375 65.921875 
Q 27.828125 65.921875 22.671875 59.328125 
Q 17.53125 52.734375 16.796875 39.40625 
Q 19.671875 43.65625 24.015625 45.921875 
Q 28.375 48.1875 33.59375 48.1875 
Q 44.578125 48.1875 50.953125 41.515625 
Q 57.328125 34.859375 57.328125 23.390625 
Q 57.328125 12.15625 50.6875 5.359375 
Q 44.046875 -1.421875 33.015625 -1.421875 
Q 20.359375 -1.421875 13.671875 8.265625 
Q 6.984375 17.96875 6.984375 36.375 
Q 6.984375 53.65625 15.1875 63.9375 
Q 23.390625 74.21875 37.203125 74.21875 
Q 40.921875 74.21875 44.703125 73.484375 
Q 48.484375 72.75 52.59375 71.296875 
z
" id="DejaVuSans-54"/>
      </defs>
      <g transform="translate(450.728409 468.198438)scale(0.1 -0.1)">
       <use xlink:href="#DejaVuSans-54"/>
       <use x="63.623047" xlink:href="#DejaVuSans-48"/>
      </g>
     </g>
    </g>
    <g id="xtick_5">
     <g id="line2d_5">
      <g>
       <use style="stroke:#000000;stroke-width:0.8;" x="573.454545" xlink:href="#m0969650996" y="453.6"/>
      </g>
     </g>
     <g id="text_5">
      <!-- 80 -->
      <defs>
       <path d="M 31.78125 34.625 
Q 24.75 34.625 20.71875 30.859375 
Q 16.703125 27.09375 16.703125 20.515625 
Q 16.703125 13.921875 20.71875 10.15625 
Q 24.75 6.390625 31.78125 6.390625 
Q 38.8125 6.390625 42.859375 10.171875 
Q 46.921875 13.96875 46.921875 20.515625 
Q 46.921875 27.09375 42.890625 30.859375 
Q 38.875 34.625 31.78125 34.625 
z
M 21.921875 38.8125 
Q 15.578125 40.375 12.03125 44.71875 
Q 8.5 49.078125 8.5 55.328125 
Q 8.5 64.0625 14.71875 69.140625 
Q 20.953125 74.21875 31.78125 74.21875 
Q 42.671875 74.21875 48.875 69.140625 
Q 55.078125 64.0625 55.078125 55.328125 
Q 55.078125 49.078125 51.53125 44.71875 
Q 48 40.375 41.703125 38.8125 
Q 48.828125 37.15625 52.796875 32.3125 
Q 56.78125 27.484375 56.78125 20.515625 
Q 56.78125 9.90625 50.3125 4.234375 
Q 43.84375 -1.421875 31.78125 -1.421875 
Q 19.734375 -1.421875 13.25 4.234375 
Q 6.78125 9.90625 6.78125 20.515625 
Q 6.78125 27.484375 10.78125 32.3125 
Q 14.796875 37.15625 21.921875 38.8125 
z
M 18.3125 54.390625 
Q 18.3125 48.734375 21.84375 45.5625 
Q 25.390625 42.390625 31.78125 42.390625 
Q 38.140625 42.390625 41.71875 45.5625 
Q 45.3125 48.734375 45.3125 54.390625 
Q 45.3125 60.0625 41.71875 63.234375 
Q 38.140625 66.40625 31.78125 66.40625 
Q 25.390625 66.40625 21.84375 63.234375 
Q 18.3125 60.0625 18.3125 54.390625 
z
" id="DejaVuSans-56"/>
      </defs>
      <g transform="translate(567.092045 468.198438)scale(0.1 -0.1)">
       <use xlink:href="#DejaVuSans-56"/>
       <use x="63.623047" xlink:href="#DejaVuSans-48"/>
      </g>
     </g>
    </g>
    <g id="xtick_6">
     <g id="line2d_6">
      <g>
       <use style="stroke:#000000;stroke-width:0.8;" x="689.818182" xlink:href="#m0969650996" y="453.6"/>
      </g>
     </g>
     <g id="text_6">
      <!-- 100 -->
      <defs>
       <path d="M 12.40625 8.296875 
L 28.515625 8.296875 
L 28.515625 63.921875 
L 10.984375 60.40625 
L 10.984375 69.390625 
L 28.421875 72.90625 
L 38.28125 72.90625 
L 38.28125 8.296875 
L 54.390625 8.296875 
L 54.390625 0 
L 12.40625 0 
z
" id="DejaVuSans-49"/>
      </defs>
      <g transform="translate(680.274432 468.198438)scale(0.1 -0.1)">
       <use xlink:href="#DejaVuSans-49"/>
       <use x="63.623047" xlink:href="#DejaVuSans-48"/>
       <use x="127.246094" xlink:href="#DejaVuSans-48"/>
      </g>
     </g>
    </g>
   </g>
   <g id="matplotlib.axis_2">
    <g id="ytick_1">
     <g id="line2d_7">
      <defs>
       <path d="M 0 0 
L -3.5 0 
" id="m7aa389265f" style="stroke:#000000;stroke-width:0.8;"/>
      </defs>
      <g>
       <use style="stroke:#000000;stroke-width:0.8;" x="79.2" xlink:href="#m7aa389265f" y="453.6"/>
      </g>
     </g>
     <g id="text_7">
      <!-- 0.0 -->
      <defs>
       <path d="M 10.6875 12.40625 
L 21 12.40625 
L 21 0 
L 10.6875 0 
z
" id="DejaVuSans-46"/>
      </defs>
      <g transform="translate(56.296875 457.399219)scale(0.1 -0.1)">
       <use xlink:href="#DejaVuSans-48"/>
       <use x="63.623047" xlink:href="#DejaVuSans-46"/>
       <use x="95.410156" xlink:href="#DejaVuSans-48"/>
      </g>
     </g>
    </g>
    <g id="ytick_2">
     <g id="line2d_8">
      <g>
       <use style="stroke:#000000;stroke-width:0.8;" x="79.2" xlink:href="#m7aa389265f" y="372.96"/>
      </g>
     </g>
     <g id="text_8">
      <!-- 0.2 -->
      <g transform="translate(56.296875 376.759219)scale(0.1 -0.1)">
       <use xlink:href="#DejaVuSans-48"/>
       <use x="63.623047" xlink:href="#DejaVuSans-46"/>
       <use x="95.410156" xlink:href="#DejaVuSans-50"/>
      </g>
     </g>
    </g>
    <g id="ytick_3">
     <g id="line2d_9">
      <g>
       <use style="stroke:#000000;stroke-width:0.8;" x="79.2" xlink:href="#m7aa389265f" y="292.32"/>
      </g>
     </g>
     <g id="text_9">
      <!-- 0.4 -->
      <g transform="translate(56.296875 296.119219)scale(0.1 -0.1)">
       <use xlink:href="#DejaVuSans-48"/>
       <use x="63.623047" xlink:href="#DejaVuSans-46"/>
       <use x="95.410156" xlink:href="#DejaVuSans-52"/>
      </g>
     </g>
    </g>
    <g id="ytick_4">
     <g id="line2d_10">
      <g>
       <use style="stroke:#000000;stroke-width:0.8;" x="79.2" xlink:href="#m7aa389265f" y="211.68"/>
      </g>
     </g>
     <g id="text_10">
      <!-- 0.6 -->
      <g transform="translate(56.296875 215.479219)scale(0.1 -0.1)">
       <use xlink:href="#DejaVuSans-48"/>
       <use x="63.623047" xlink:href="#DejaVuSans-46"/>
       <use x="95.410156" xlink:href="#DejaVuSans-54"/>
      </g>
     </g>
    </g>
    <g id="ytick_5">
     <g id="line2d_11">
      <g>
       <use style="stroke:#000000;stroke-width:0.8;" x="79.2" xlink:href="#m7aa389265f" y="131.04"/>
      </g>
     </g>
     <g id="text_11">
      <!-- 0.8 -->
      <g transform="translate(56.296875 134.839219)scale(0.1 -0.1)">
       <use xlink:href="#DejaVuSans-48"/>
       <use x="63.623047" xlink:href="#DejaVuSans-46"/>
       <use x="95.410156" xlink:href="#DejaVuSans-56"/>
      </g>
     </g>
    </g>
    <g id="ytick_6">
     <g id="line2d_12">
      <g>
       <use style="stroke:#000000;stroke-width:0.8;" x="79.2" xlink:href="#m7aa389265f" y="50.4"/>
      </g>
     </g>
     <g id="text_12">
      <!-- 1.0 -->
      <g transform="translate(56.296875 54.199219)scale(0.1 -0.1)">
       <use xlink:href="#DejaVuSans-49"/>
       <use x="63.623047" xlink:href="#DejaVuSans-46"/>
       <use x="95.410156" xlink:href="#DejaVuSans-48"/>
      </g>
     </g>
    </g>
   </g>
   <g id="line2d_13">
    <path clip-path="url(#p2e6d12941d)" d="M 108 432.434646 
L 113.818182 431.384963 
L 119.636364 430.232273 
L 125.454545 428.961189 
L 131.272727 427.553402 
L 137.090909 425.986793 
L 142.909091 424.234439 
L 148.727273 422.263289 
L 154.545455 420.032417 
L 160.363636 417.490677 
L 166.181818 414.573514 
L 172 411.198625 
L 177.818182 407.25997 
L 183.636364 402.619505 
L 189.454545 397.095744 
L 195.272727 390.448097 
L 201.090909 382.355981 
L 206.909091 372.39269 
L 212.727273 359.997686 
L 218.545455 344.461404 
L 224.363636 324.961976 
L 230.181818 300.741955 
L 236 271.563744 
L 241.818182 238.488098 
L 247.636364 204.479604 
L 253.454545 173.644678 
L 259.272727 148.93525 
L 265.090909 130.709931 
L 270.909091 117.612783 
L 276.727273 108.052062 
L 282.545455 100.846214 
L 288.363636 95.237332 
L 294.181818 90.75033 
L 300 87.079619 
L 305.818182 84.021069 
L 311.636364 81.433336 
L 317.454545 79.215478 
L 323.272727 77.293482 
L 329.090909 75.611849 
L 334.909091 74.128143 
L 340.727273 72.809362 
L 346.545455 71.629455 
L 352.363636 70.567583 
L 358.181818 69.606878 
L 364 68.733539 
L 369.818182 67.936168 
L 375.636364 67.205266 
L 381.454545 66.532853 
L 387.272727 65.912179 
L 393.090909 65.337494 
L 398.909091 64.803868 
L 404.727273 64.307054 
L 410.545455 63.84337 
L 416.363636 63.409607 
L 422.181818 63.002962 
L 428 62.620967 
L 433.818182 62.261447 
L 439.636364 61.922476 
L 445.454545 61.60234 
L 451.272727 61.299512 
L 457.090909 61.012626 
L 462.909091 60.740455 
L 468.727273 60.481895 
L 474.545455 60.23595 
L 480.363636 60.001719 
L 486.181818 59.778384 
L 492 59.565203 
L 497.818182 59.361498 
L 503.636364 59.166651 
L 509.454545 58.980096 
L 515.272727 58.801316 
L 521.090909 58.629834 
L 526.909091 58.465213 
L 532.727273 58.307048 
L 538.545455 58.154968 
L 544.363636 58.008627 
L 550.181818 57.867707 
L 556 57.731912 
L 561.818182 57.600967 
L 567.636364 57.474618 
L 573.454545 57.352626 
L 579.272727 57.234769 
L 585.090909 57.120842 
L 590.909091 57.010651 
L 596.727273 56.904015 
L 602.545455 56.800764 
L 608.363636 56.70074 
L 614.181818 56.603795 
L 620 56.509787 
L 625.818182 56.418586 
L 631.636364 56.330068 
L 637.454545 56.244115 
L 643.272727 56.160619 
L 649.090909 56.079475 
L 654.909091 56.000585 
L 660.727273 55.923857 
L 666.545455 55.849202 
L 672.363636 55.776539 
L 678.181818 55.705788 
L 684 55.636875 
" style="fill:none;stroke:#1f77b4;stroke-linecap:square;stroke-width:1.5;"/>
   </g>
   <g id="line2d_14">
    <path clip-path="url(#p2e6d12941d)" d="M 108 432.434646 
L 113.818182 431.437311 
L 119.636364 430.347214 
L 125.454545 429.15109 
L 131.272727 427.833434 
L 137.090909 426.375693 
L 142.909091 424.755515 
L 148.727273 422.945768 
L 154.545455 420.913257 
L 160.363636 418.61703 
L 166.181818 416.006116 
L 172 413.016489 
L 177.818182 409.566956 
L 183.636364 405.553553 
L 189.454545 400.841899 
L 195.272727 395.256779 
L 201.090909 388.56814 
L 206.909091 380.472869 
L 212.727273 370.572789 
L 218.545455 358.3528 
L 224.363636 343.172287 
L 230.181818 324.303897 
L 236 301.091838 
L 241.818182 273.338011 
L 247.636364 241.948381 
L 253.454545 209.465388 
L 259.272727 179.552639 
L 265.090909 155.131557 
L 270.909091 136.908571 
L 276.727273 123.829731 
L 282.545455 114.392808 
L 288.363636 107.392365 
L 294.181818 102.02966 
L 300 97.801918 
L 305.818182 94.388945 
L 311.636364 91.579841 
L 317.454545 89.230554 
L 323.272727 87.239426 
L 329.090909 85.532676 
L 334.909091 84.055459 
L 340.727273 82.766157 
L 346.545455 81.632617 
L 352.363636 80.629604 
L 358.181818 79.737033 
L 364 78.938723 
L 369.818182 78.221485 
L 375.636364 77.574468 
L 381.454545 76.988657 
L 387.272727 76.456501 
L 393.090909 75.971631 
L 398.909091 75.52863 
L 404.727273 75.12287 
L 410.545455 74.750367 
L 416.363636 74.407673 
L 422.181818 74.091792 
L 428 73.800107 
L 433.818182 73.530319 
L 439.636364 73.280404 
L 445.454545 73.048571 
L 451.272727 72.83323 
L 457.090909 72.632964 
L 462.909091 72.446507 
L 468.727273 72.272724 
L 474.545455 72.110594 
L 480.363636 71.959198 
L 486.181818 71.817703 
L 492 71.685357 
L 497.818182 71.561475 
L 503.636364 71.445435 
L 509.454545 71.336669 
L 515.272727 71.234659 
L 521.090909 71.13893 
L 526.909091 71.049046 
L 532.727273 70.964608 
L 538.545455 70.885248 
L 544.363636 70.810627 
L 550.181818 70.740432 
L 556 70.674376 
L 561.818182 70.61219 
L 567.636364 70.553627 
L 573.454545 70.498458 
L 579.272727 70.446471 
L 585.090909 70.397466 
L 590.909091 70.351261 
L 596.727273 70.307684 
L 602.545455 70.266575 
L 608.363636 70.227786 
L 614.181818 70.191178 
L 620 70.156621 
L 625.818182 70.123993 
L 631.636364 70.093181 
L 637.454545 70.06408 
L 643.272727 70.036589 
L 649.090909 70.010616 
L 654.909091 69.986073 
L 660.727273 69.962878 
L 666.545455 69.940954 
L 672.363636 69.920229 
L 678.181818 69.900636 
L 684 69.88211 
" style="fill:none;stroke:#ff7f0e;stroke-linecap:square;stroke-width:1.5;"/>
   </g>
   <g id="line2d_15">
    <path clip-path="url(#p2e6d12941d)" d="M 108 432.434646 
L 113.818182 431.489687 
L 119.636364 430.46167 
L 125.454545 429.339234 
L 131.272727 428.109357 
L 137.090909 426.756609 
L 142.909091 425.262589 
L 148.727273 423.605208 
L 154.545455 421.757763 
L 160.363636 419.687729 
L 166.181818 417.355176 
L 172 414.71068 
L 177.818182 411.692538 
L 183.636364 408.223035 
L 189.454545 404.20343 
L 195.272727 399.507189 
L 201.090909 393.970921 
L 206.909091 387.382425 
L 212.727273 379.465448 
L 218.545455 369.86182 
L 224.363636 358.11442 
L 230.181818 343.661766 
L 236 325.870692 
L 241.818182 304.161425 
L 247.636364 278.306796 
L 253.454545 248.943589 
L 259.272727 218.066908 
L 265.090909 188.830554 
L 270.909091 164.186431 
L 276.727273 145.37453 
L 282.545455 131.82381 
L 288.363636 122.191172 
L 294.181818 115.228133 
L 300 110.049871 
L 305.818182 106.087391 
L 311.636364 102.980127 
L 317.454545 100.494416 
L 323.272727 98.473593 
L 329.090909 96.808975 
L 334.909091 95.422847 
L 340.727273 94.258169 
L 346.545455 93.272127 
L 352.363636 92.431958 
L 358.181818 91.712165 
L 364 91.092613 
L 369.818182 90.557193 
L 375.636364 90.09287 
L 381.454545 89.688988 
L 387.272727 89.336759 
L 393.090909 89.028873 
L 398.909091 88.759209 
L 404.727273 88.522611 
L 410.545455 88.314703 
L 416.363636 88.131761 
L 422.181818 87.970596 
L 428 87.828467 
L 433.818182 87.70301 
L 439.636364 87.592179 
L 445.454545 87.494199 
L 451.272727 87.407525 
L 457.090909 87.330808 
L 462.909091 87.262872 
L 468.727273 87.202684 
L 474.545455 87.149341 
L 480.363636 87.102047 
L 486.181818 87.060104 
L 492 87.022895 
L 497.818182 86.98988 
L 503.636364 86.960578 
L 509.454545 86.934568 
L 515.272727 86.911475 
L 521.090909 86.89097 
L 526.909091 86.872759 
L 532.727273 86.856585 
L 538.545455 86.842218 
L 544.363636 86.829454 
L 550.181818 86.818115 
L 556 86.80804 
L 561.818182 86.799088 
L 567.636364 86.791133 
L 573.454545 86.784064 
L 579.272727 86.777781 
L 585.090909 86.772198 
L 590.909091 86.767236 
L 596.727273 86.762825 
L 602.545455 86.758905 
L 608.363636 86.755421 
L 614.181818 86.752324 
L 620 86.749571 
L 625.818182 86.747124 
L 631.636364 86.744949 
L 637.454545 86.743015 
L 643.272727 86.741296 
L 649.090909 86.739768 
L 654.909091 86.73841 
L 660.727273 86.737203 
L 666.545455 86.736129 
L 672.363636 86.735175 
L 678.181818 86.734327 
L 684 86.733573 
" style="fill:none;stroke:#2ca02c;stroke-linecap:square;stroke-width:1.5;"/>
   </g>
   <g id="line2d_16">
    <path clip-path="url(#p2e6d12941d)" d="M 108 432.434646 
L 113.818182 431.542092 
L 119.636364 430.57564 
L 125.454545 429.525631 
L 131.272727 428.38123 
L 137.090909 427.129722 
L 142.909091 425.756104 
L 148.727273 424.242557 
L 154.545455 422.567795 
L 160.363636 420.706218 
L 166.181818 418.626821 
L 172 416.291775 
L 177.818182 413.654578 
L 183.636364 410.65761 
L 189.454545 407.2289 
L 195.272727 403.277833 
L 201.090909 398.689455 
L 206.909091 393.316952 
L 212.727273 386.971892 
L 218.545455 379.412031 
L 224.363636 370.327222 
L 230.181818 359.326121 
L 236 345.931408 
L 241.818182 329.601975 
L 247.636364 309.81935 
L 253.454545 286.296978 
L 259.272727 259.3567 
L 265.090909 230.371627 
L 270.909091 201.853644 
L 276.727273 176.663925 
L 282.545455 156.64664 
L 288.363636 141.956448 
L 294.181818 131.601241 
L 300 124.33759 
L 305.818182 119.158873 
L 311.636364 115.377888 
L 317.454545 112.552684 
L 323.272727 110.399853 
L 329.090909 108.733395 
L 334.909091 107.427338 
L 340.727273 106.393684 
L 346.545455 105.569254 
L 352.363636 104.907619 
L 358.181818 104.373992 
L 364 103.941881 
L 369.818182 103.590838 
L 375.636364 103.304903 
L 381.454545 103.0715 
L 387.272727 102.880645 
L 393.090909 102.724358 
L 398.909091 102.596227 
L 404.727273 102.49108 
L 410.545455 102.404726 
L 416.363636 102.33376 
L 422.181818 102.275408 
L 428 102.227408 
L 433.818182 102.187909 
L 439.636364 102.155396 
L 445.454545 102.128626 
L 451.272727 102.106581 
L 457.090909 102.088424 
L 462.909091 102.073467 
L 468.727273 102.061145 
L 474.545455 102.050992 
L 480.363636 102.042627 
L 486.181818 102.035733 
L 492 102.030052 
L 497.818182 102.025371 
L 503.636364 102.021512 
L 509.454545 102.018332 
L 515.272727 102.015711 
L 521.090909 102.013551 
L 526.909091 102.011771 
L 532.727273 102.010303 
L 538.545455 102.009094 
L 544.363636 102.008097 
L 550.181818 102.007275 
L 556 102.006598 
L 561.818182 102.006039 
L 567.636364 102.005579 
L 573.454545 102.0052 
L 579.272727 102.004887 
L 585.090909 102.00463 
L 590.909091 102.004417 
L 596.727273 102.004242 
L 602.545455 102.004098 
L 608.363636 102.003979 
L 614.181818 102.003881 
L 620 102.0038 
L 625.818182 102.003733 
L 631.636364 102.003678 
L 637.454545 102.003633 
L 643.272727 102.003596 
L 649.090909 102.003565 
L 654.909091 102.00354 
L 660.727273 102.003519 
L 666.545455 102.003502 
L 672.363636 102.003487 
L 678.181818 102.003476 
L 684 102.003466 
" style="fill:none;stroke:#d62728;stroke-linecap:square;stroke-width:1.5;"/>
   </g>
   <g id="line2d_17">
    <path clip-path="url(#p2e6d12941d)" d="M 108 432.434646 
L 113.818182 431.594527 
L 119.636364 430.689124 
L 125.454545 429.710291 
L 131.272727 428.649109 
L 137.090909 427.495212 
L 142.909091 426.236489 
L 148.727273 424.858718 
L 154.545455 423.345106 
L 160.363636 421.675704 
L 166.181818 419.826671 
L 172 417.769335 
L 177.818182 415.468973 
L 183.636364 412.883247 
L 189.454545 409.960161 
L 195.272727 406.635394 
L 201.090909 402.828809 
L 206.909091 398.439886 
L 212.727273 393.34179 
L 218.545455 387.373784 
L 224.363636 380.33187 
L 230.181818 371.958018 
L 236 361.929739 
L 241.818182 349.854865 
L 247.636364 335.282896 
L 253.454545 317.75597 
L 259.272727 296.937915 
L 265.090909 272.863118 
L 270.909091 246.288683 
L 276.727273 218.950516 
L 282.545455 193.315862 
L 288.363636 171.647334 
L 294.181818 155.005916 
L 300 143.092711 
L 305.818182 134.878071 
L 311.636364 129.266796 
L 317.454545 125.403387 
L 323.272727 122.702945 
L 329.090909 120.785208 
L 334.909091 119.404431 
L 340.727273 118.399304 
L 346.545455 117.661466 
L 352.363636 117.116414 
L 358.181818 116.711876 
L 364 116.410572 
L 369.818182 116.18557 
L 375.636364 116.017218 
L 381.454545 115.891068 
L 387.272727 115.796437 
L 393.090909 115.725391 
L 398.909091 115.672019 
L 404.727273 115.631907 
L 410.545455 115.601748 
L 416.363636 115.579068 
L 422.181818 115.562008 
L 428 115.549174 
L 433.818182 115.539518 
L 439.636364 115.532252 
L 445.454545 115.526785 
L 451.272727 115.52267 
L 457.090909 115.519574 
L 462.909091 115.517244 
L 468.727273 115.51549 
L 474.545455 115.51417 
L 480.363636 115.513177 
L 486.181818 115.51243 
L 492 115.511867 
L 497.818182 115.511443 
L 503.636364 115.511125 
L 509.454545 115.510885 
L 515.272727 115.510704 
L 521.090909 115.510568 
L 526.909091 115.510466 
L 532.727273 115.510389 
L 538.545455 115.510331 
L 544.363636 115.510288 
L 550.181818 115.510255 
L 556 115.51023 
L 561.818182 115.510212 
L 567.636364 115.510198 
L 573.454545 115.510187 
L 579.272727 115.510179 
L 585.090909 115.510173 
L 590.909091 115.510169 
L 596.727273 115.510165 
L 602.545455 115.510163 
L 608.363636 115.510161 
L 614.181818 115.510159 
L 620 115.510158 
L 625.818182 115.510157 
L 631.636364 115.510157 
L 637.454545 115.510156 
L 643.272727 115.510156 
L 649.090909 115.510156 
L 654.909091 115.510156 
L 660.727273 115.510155 
L 666.545455 115.510155 
L 672.363636 115.510155 
L 678.181818 115.510155 
L 684 115.510155 
" style="fill:none;stroke:#9467bd;stroke-linecap:square;stroke-width:1.5;"/>
   </g>
   <g id="line2d_18">
    <path clip-path="url(#p2e6d12941d)" d="M 108 432.434646 
L 113.818182 431.64699 
L 119.636364 430.802119 
L 125.454545 429.893225 
L 131.272727 428.913053 
L 137.090909 427.853251 
L 142.909091 426.70416 
L 148.727273 425.454559 
L 154.545455 424.091351 
L 160.363636 422.599169 
L 166.181818 420.959886 
L 172 419.152003 
L 177.818182 417.149866 
L 183.636364 414.922682 
L 189.454545 412.433256 
L 195.272727 409.636369 
L 201.090909 406.476691 
L 206.909091 402.88609 
L 212.727273 398.780161 
L 218.545455 394.053787 
L 224.363636 388.575531 
L 230.181818 382.180772 
L 236 374.663767 
L 241.818182 365.76959 
L 247.636364 355.188593 
L 253.454545 342.559514 
L 259.272727 327.493768 
L 265.090909 309.643142 
L 270.909091 288.841449 
L 276.727273 265.338656 
L 282.545455 240.07346 
L 288.363636 214.778509 
L 294.181818 191.625451 
L 300 172.410925 
L 305.818182 157.855318 
L 311.636364 147.588559 
L 317.454545 140.673658 
L 323.272727 136.124775 
L 329.090909 133.155284 
L 334.909091 131.214434 
L 340.727273 129.939525 
L 346.545455 129.097188 
L 352.363636 128.537758 
L 358.181818 128.164677 
L 364 127.915102 
L 369.818182 127.747776 
L 375.636364 127.635418 
L 381.454545 127.559889 
L 387.272727 127.50908 
L 393.090909 127.474882 
L 398.909091 127.451858 
L 404.727273 127.436352 
L 410.545455 127.425908 
L 416.363636 127.418873 
L 422.181818 127.414134 
L 428 127.410941 
L 433.818182 127.40879 
L 439.636364 127.407341 
L 445.454545 127.406364 
L 451.272727 127.405706 
L 457.090909 127.405263 
L 462.909091 127.404965 
L 468.727273 127.404763 
L 474.545455 127.404628 
L 480.363636 127.404537 
L 486.181818 127.404475 
L 492 127.404433 
L 497.818182 127.404406 
L 503.636364 127.404387 
L 509.454545 127.404374 
L 515.272727 127.404366 
L 521.090909 127.40436 
L 526.909091 127.404356 
L 532.727273 127.404353 
L 538.545455 127.404352 
L 544.363636 127.40435 
L 550.181818 127.40435 
L 556 127.404349 
L 561.818182 127.404349 
L 567.636364 127.404348 
L 573.454545 127.404348 
L 579.272727 127.404348 
L 585.090909 127.404348 
L 590.909091 127.404348 
L 596.727273 127.404348 
L 602.545455 127.404348 
L 608.363636 127.404348 
L 614.181818 127.404348 
L 620 127.404348 
L 625.818182 127.404348 
L 631.636364 127.404348 
L 637.454545 127.404348 
L 643.272727 127.404348 
L 649.090909 127.404348 
L 654.909091 127.404348 
L 660.727273 127.404348 
L 666.545455 127.404348 
L 672.363636 127.404348 
L 678.181818 127.404348 
L 684 127.404348 
" style="fill:none;stroke:#8c564b;stroke-linecap:square;stroke-width:1.5;"/>
   </g>
   <g id="line2d_19">
    <path clip-path="url(#p2e6d12941d)" d="M 108 432.434646 
L 113.818182 431.699482 
L 119.636364 430.914623 
L 125.454545 430.074444 
L 131.272727 429.173119 
L 137.090909 428.204011 
L 142.909091 427.159517 
L 148.727273 426.030904 
L 154.545455 424.808091 
L 160.363636 423.479392 
L 166.181818 422.031201 
L 172 420.447595 
L 177.818182 418.709851 
L 183.636364 416.795832 
L 189.454545 414.67923 
L 195.272727 412.328599 
L 201.090909 409.706141 
L 206.909091 406.766161 
L 212.727273 403.453107 
L 218.545455 399.699076 
L 224.363636 395.42068 
L 230.181818 390.515116 
L 236 384.85539 
L 241.818182 378.284726 
L 247.636364 370.610602 
L 253.454545 361.599595 
L 259.272727 350.975891 
L 265.090909 338.429293 
L 270.909091 323.643654 
L 276.727273 306.363103 
L 282.545455 286.516614 
L 288.363636 264.406333 
L 294.181818 240.906719 
L 300 217.518782 
L 305.818182 196.081725 
L 311.636364 178.153176 
L 317.454545 164.448092 
L 323.272727 154.757808 
L 329.090909 148.310415 
L 334.909091 144.20356 
L 340.727273 141.663434 
L 346.545455 140.122113 
L 352.363636 139.198158 
L 358.181818 138.648497 
L 364 138.323054 
L 369.818182 138.130934 
L 375.636364 138.017726 
L 381.454545 137.951094 
L 387.272727 137.911902 
L 393.090909 137.88886 
L 398.909091 137.875317 
L 404.727273 137.867358 
L 410.545455 137.862682 
L 416.363636 137.859934 
L 422.181818 137.858319 
L 428 137.857371 
L 433.818182 137.856813 
L 439.636364 137.856486 
L 445.454545 137.856294 
L 451.272727 137.856181 
L 457.090909 137.856114 
L 462.909091 137.856075 
L 468.727273 137.856052 
L 474.545455 137.856039 
L 480.363636 137.856031 
L 486.181818 137.856026 
L 492 137.856023 
L 497.818182 137.856022 
L 503.636364 137.856021 
L 509.454545 137.85602 
L 515.272727 137.85602 
L 521.090909 137.85602 
L 526.909091 137.85602 
L 532.727273 137.85602 
L 538.545455 137.85602 
L 544.363636 137.85602 
L 550.181818 137.85602 
L 556 137.85602 
L 561.818182 137.85602 
L 567.636364 137.85602 
L 573.454545 137.85602 
L 579.272727 137.85602 
L 585.090909 137.85602 
L 590.909091 137.85602 
L 596.727273 137.85602 
L 602.545455 137.85602 
L 608.363636 137.85602 
L 614.181818 137.85602 
L 620 137.85602 
L 625.818182 137.85602 
L 631.636364 137.85602 
L 637.454545 137.85602 
L 643.272727 137.85602 
L 649.090909 137.85602 
L 654.909091 137.85602 
L 660.727273 137.85602 
L 666.545455 137.85602 
L 672.363636 137.85602 
L 678.181818 137.85602 
L 684 137.85602 
" style="fill:none;stroke:#e377c2;stroke-linecap:square;stroke-width:1.5;"/>
   </g>
   <g id="line2d_20">
    <path clip-path="url(#p2e6d12941d)" d="M 108 432.434646 
L 113.818182 431.752003 
L 119.636364 431.026636 
L 125.454545 430.253957 
L 131.272727 429.429364 
L 137.090909 428.547658 
L 142.909091 427.60295 
L 148.727273 426.588545 
L 154.545455 425.4968 
L 160.363636 424.318962 
L 166.181818 423.044965 
L 172 421.663187 
L 177.818182 420.160151 
L 183.636364 418.52016 
L 189.454545 416.724849 
L 195.272727 414.752624 
L 201.090909 412.577975 
L 206.909091 410.170615 
L 212.727273 407.494405 
L 218.545455 404.506009 
L 224.363636 401.153212 
L 230.181818 397.372834 
L 236 393.088143 
L 241.818182 388.205716 
L 247.636364 382.611738 
L 253.454545 376.167871 
L 259.272727 368.707133 
L 265.090909 360.030885 
L 270.909091 349.909204 
L 276.727273 338.089071 
L 282.545455 324.318059 
L 288.363636 308.395161 
L 294.181818 290.261879 
L 300 270.13729 
L 305.818182 248.666614 
L 311.636364 226.99052 
L 317.454545 206.600703 
L 323.272727 188.934974 
L 329.090909 174.899261 
L 334.909091 164.636615 
L 340.727273 157.666683 
L 346.545455 153.218661 
L 352.363636 150.521081 
L 358.181818 148.950994 
L 364 148.066751 
L 369.818182 147.581658 
L 375.636364 147.321021 
L 381.454545 147.183273 
L 387.272727 147.111418 
L 393.090909 147.074321 
L 398.909091 147.055325 
L 404.727273 147.045663 
L 410.545455 147.040774 
L 416.363636 147.038311 
L 422.181818 147.037074 
L 428 147.036455 
L 433.818182 147.036146 
L 439.636364 147.035991 
L 445.454545 147.035915 
L 451.272727 147.035876 
L 457.090909 147.035857 
L 462.909091 147.035848 
L 468.727273 147.035843 
L 474.545455 147.035841 
L 480.363636 147.03584 
L 486.181818 147.035839 
L 492 147.035839 
L 497.818182 147.035839 
L 503.636364 147.035839 
L 509.454545 147.035839 
L 515.272727 147.035839 
L 521.090909 147.035839 
L 526.909091 147.035839 
L 532.727273 147.035839 
L 538.545455 147.035839 
L 544.363636 147.035839 
L 550.181818 147.035839 
L 556 147.035839 
L 561.818182 147.035839 
L 567.636364 147.035839 
L 573.454545 147.035839 
L 579.272727 147.035839 
L 585.090909 147.035839 
L 590.909091 147.035839 
L 596.727273 147.035839 
L 602.545455 147.035839 
L 608.363636 147.035839 
L 614.181818 147.035839 
L 620 147.035839 
L 625.818182 147.035839 
L 631.636364 147.035839 
L 637.454545 147.035839 
L 643.272727 147.035839 
L 649.090909 147.035839 
L 654.909091 147.035839 
L 660.727273 147.035839 
L 666.545455 147.035839 
L 672.363636 147.035839 
L 678.181818 147.035839 
L 684 147.035839 
" style="fill:none;stroke:#7f7f7f;stroke-linecap:square;stroke-width:1.5;"/>
   </g>
   <g id="line2d_21">
    <path clip-path="url(#p2e6d12941d)" d="M 108 432.434646 
L 113.818182 431.804553 
L 119.636364 431.138156 
L 125.454545 430.431777 
L 131.272727 429.681842 
L 137.090909 428.884355 
L 142.909091 428.034835 
L 148.727273 427.128236 
L 154.545455 426.158868 
L 160.363636 425.120287 
L 166.181818 424.005172 
L 172 422.805183 
L 177.818182 421.510777 
L 183.636364 420.111 
L 189.454545 418.593227 
L 195.272727 416.942851 
L 201.090909 415.1429 
L 206.909091 413.173575 
L 212.727273 411.011674 
L 218.545455 408.629899 
L 224.363636 405.995986 
L 230.181818 403.071647 
L 236 399.811268 
L 241.818182 396.160317 
L 247.636364 392.05342 
L 253.454545 387.412079 
L 259.272727 382.142047 
L 265.090909 376.13048 
L 270.909091 369.243198 
L 276.727273 361.322772 
L 282.545455 352.18888 
L 288.363636 341.643576 
L 294.181818 329.485936 
L 300 315.542795 
L 305.818182 299.72373 
L 311.636364 282.105542 
L 317.454545 263.037686 
L 323.272727 243.229539 
L 329.090909 223.743372 
L 334.909091 205.817918 
L 340.727273 190.539393 
L 346.545455 178.520165 
L 352.363636 169.778898 
L 358.181818 163.867455 
L 364 160.12 
L 369.818182 157.873187 
L 375.636364 156.587779 
L 381.454545 155.88019 
L 387.272727 155.502594 
L 393.090909 155.306009 
L 398.909091 155.205633 
L 404.727273 155.155156 
L 410.545455 155.130073 
L 416.363636 155.117725 
L 422.181818 155.111691 
L 428 155.10876 
L 433.818182 155.107342 
L 439.636364 155.106659 
L 445.454545 155.106332 
L 451.272727 155.106174 
L 457.090909 155.106099 
L 462.909091 155.106063 
L 468.727273 155.106046 
L 474.545455 155.106038 
L 480.363636 155.106034 
L 486.181818 155.106032 
L 492 155.106032 
L 497.818182 155.106031 
L 503.636364 155.106031 
L 509.454545 155.106031 
L 515.272727 155.106031 
L 521.090909 155.106031 
L 526.909091 155.106031 
L 532.727273 155.106031 
L 538.545455 155.106031 
L 544.363636 155.106031 
L 550.181818 155.106031 
L 556 155.106031 
L 561.818182 155.106031 
L 567.636364 155.106031 
L 573.454545 155.106031 
L 579.272727 155.106031 
L 585.090909 155.106031 
L 590.909091 155.106031 
L 596.727273 155.106031 
L 602.545455 155.106031 
L 608.363636 155.106031 
L 614.181818 155.106031 
L 620 155.106031 
L 625.818182 155.106031 
L 631.636364 155.106031 
L 637.454545 155.106031 
L 643.272727 155.106031 
L 649.090909 155.106031 
L 654.909091 155.106031 
L 660.727273 155.106031 
L 666.545455 155.106031 
L 672.363636 155.106031 
L 678.181818 155.106031 
L 684 155.106031 
" style="fill:none;stroke:#bcbd22;stroke-linecap:square;stroke-width:1.5;"/>
   </g>
   <g id="line2d_22">
    <path clip-path="url(#p2e6d12941d)" d="M 108 432.434646 
L 113.818182 431.857132 
L 119.636364 431.249182 
L 125.454545 430.607913 
L 131.272727 429.930609 
L 137.090909 429.214263 
L 142.909091 428.455533 
L 148.727273 427.650699 
L 154.545455 426.795608 
L 160.363636 425.885612 
L 166.181818 424.915496 
L 172 423.87939 
L 177.818182 422.77067 
L 183.636364 421.581833 
L 189.454545 420.304363 
L 195.272727 418.928551 
L 201.090909 417.443302 
L 206.909091 415.835882 
L 212.727273 414.091635 
L 218.545455 412.193623 
L 224.363636 410.122204 
L 230.181818 407.854516 
L 236 405.363854 
L 241.818182 402.618913 
L 247.636364 399.582882 
L 253.454545 396.212347 
L 259.272727 392.456003 
L 265.090909 388.253134 
L 270.909091 383.5319 
L 276.727273 378.207487 
L 282.545455 372.180286 
L 288.363636 365.334479 
L 294.181818 357.537713 
L 300 348.643105 
L 305.818182 338.495659 
L 311.636364 326.946295 
L 317.454545 313.87785 
L 323.272727 299.247598 
L 329.090909 283.148012 
L 334.909091 265.878096 
L 340.727273 247.999724 
L 346.545455 230.333388 
L 352.363636 213.847936 
L 358.181818 199.445991 
L 364 187.727636 
L 369.818182 178.855588 
L 375.636364 172.586748 
L 381.454545 168.427719 
L 387.272727 165.815613 
L 393.090909 164.248039 
L 398.909091 163.3406 
L 404.727273 162.829424 
L 410.545455 162.547104 
L 416.363636 162.393317 
L 422.181818 162.310321 
L 428 162.265803 
L 433.818182 162.242017 
L 439.636364 162.229339 
L 445.454545 162.222592 
L 451.272727 162.219005 
L 457.090909 162.217099 
L 462.909091 162.216086 
L 468.727273 162.215548 
L 474.545455 162.215263 
L 480.363636 162.215111 
L 486.181818 162.21503 
L 492 162.214988 
L 497.818182 162.214965 
L 503.636364 162.214953 
L 509.454545 162.214946 
L 515.272727 162.214943 
L 521.090909 162.214941 
L 526.909091 162.21494 
L 532.727273 162.21494 
L 538.545455 162.21494 
L 544.363636 162.214939 
L 550.181818 162.214939 
L 556 162.214939 
L 561.818182 162.214939 
L 567.636364 162.214939 
L 573.454545 162.214939 
L 579.272727 162.214939 
L 585.090909 162.214939 
L 590.909091 162.214939 
L 596.727273 162.214939 
L 602.545455 162.214939 
L 608.363636 162.214939 
L 614.181818 162.214939 
L 620 162.214939 
L 625.818182 162.214939 
L 631.636364 162.214939 
L 637.454545 162.214939 
L 643.272727 162.214939 
L 649.090909 162.214939 
L 654.909091 162.214939 
L 660.727273 162.214939 
L 666.545455 162.214939 
L 672.363636 162.214939 
L 678.181818 162.214939 
L 684 162.214939 
" style="fill:none;stroke:#17becf;stroke-linecap:square;stroke-width:1.5;"/>
   </g>
   <g id="line2d_23">
    <path clip-path="url(#p2e6d12941d)" d="M 108 432.434646 
L 113.818182 431.90974 
L 119.636364 431.359711 
L 125.454545 430.782376 
L 131.272727 430.175721 
L 137.090909 429.537538 
L 142.909091 428.865397 
L 148.727273 428.156621 
L 154.545455 427.408256 
L 160.363636 426.617029 
L 166.181818 425.779314 
L 172 424.891076 
L 177.818182 423.947824 
L 183.636364 422.944538 
L 189.454545 421.875598 
L 195.272727 420.734693 
L 201.090909 419.514718 
L 206.909091 418.207654 
L 212.727273 416.804418 
L 218.545455 415.2947 
L 224.363636 413.666755 
L 230.181818 411.907168 
L 236 410.000566 
L 241.818182 407.929284 
L 247.636364 405.672954 
L 253.454545 403.208035 
L 259.272727 400.507234 
L 265.090909 397.538846 
L 270.909091 394.265959 
L 276.727273 390.645547 
L 282.545455 386.627446 
L 288.363636 382.153226 
L 294.181818 377.155036 
L 300 371.554544 
L 305.818182 365.262225 
L 311.636364 358.177441 
L 317.454545 350.190035 
L 323.272727 341.184637 
L 329.090909 331.049384 
L 334.909091 319.691372 
L 340.727273 307.061347 
L 346.545455 293.189119 
L 352.363636 278.227664 
L 358.181818 262.496389 
L 364 246.503469 
L 369.818182 230.919792 
L 375.636364 216.485101 
L 381.454545 203.858806 
L 387.272727 193.469615 
L 393.090909 185.433121 
L 398.909091 179.572595 
L 404.727273 175.520475 
L 410.545455 172.842965 
L 416.363636 171.136996 
L 422.181818 170.079584 
L 428 169.436986 
L 433.818182 169.051708 
L 439.636364 168.822747 
L 445.454545 168.687444 
L 451.272727 168.607768 
L 457.090909 168.560948 
L 462.909091 168.53347 
L 468.727273 168.517356 
L 474.545455 168.507911 
L 480.363636 168.502376 
L 486.181818 168.499133 
L 492 168.497233 
L 497.818182 168.49612 
L 503.636364 168.495468 
L 509.454545 168.495086 
L 515.272727 168.494862 
L 521.090909 168.494731 
L 526.909091 168.494654 
L 532.727273 168.494609 
L 538.545455 168.494583 
L 544.363636 168.494568 
L 550.181818 168.494559 
L 556 168.494553 
L 561.818182 168.49455 
L 567.636364 168.494548 
L 573.454545 168.494547 
L 579.272727 168.494547 
L 585.090909 168.494546 
L 590.909091 168.494546 
L 596.727273 168.494546 
L 602.545455 168.494546 
L 608.363636 168.494546 
L 614.181818 168.494546 
L 620 168.494546 
L 625.818182 168.494546 
L 631.636364 168.494546 
L 637.454545 168.494546 
L 643.272727 168.494546 
L 649.090909 168.494546 
L 654.909091 168.494546 
L 660.727273 168.494546 
L 666.545455 168.494546 
L 672.363636 168.494546 
L 678.181818 168.494546 
L 684 168.494546 
" style="fill:none;stroke:#1f77b4;stroke-linecap:square;stroke-width:1.5;"/>
   </g>
   <g id="patch_3">
    <path d="M 79.2 453.6 
L 79.2 50.4 
" style="fill:none;stroke:#000000;stroke-linecap:square;stroke-linejoin:miter;stroke-width:0.8;"/>
   </g>
   <g id="patch_4">
    <path d="M 79.2 453.6 
L 712.8 453.6 
" style="fill:none;stroke:#000000;stroke-linecap:square;stroke-linejoin:miter;stroke-width:0.8;"/>
   </g>
   <g id="legend_1">
    <g id="patch_5">
     <path d="M 534.171875 448.6 
L 705.8 448.6 
Q 707.8 448.6 707.8 446.6 
L 707.8 286.140625 
Q 707.8 284.140625 705.8 284.140625 
L 534.171875 284.140625 
Q 532.171875 284.140625 532.171875 286.140625 
L 532.171875 446.6 
Q 532.171875 448.6 534.171875 448.6 
z
" style="fill:#ffffff;opacity:0.8;stroke:#cccccc;stroke-linejoin:miter;"/>
    </g>
    <g id="line2d_24">
     <path d="M 536.171875 292.239063 
L 556.171875 292.239063 
" style="fill:none;stroke:#1f77b4;stroke-linecap:square;stroke-width:1.5;"/>
    </g>
    <g id="line2d_25"/>
    <g id="text_13">
     <!-- female fecundity loss s=0.0 -->
     <defs>
      <path d="M 37.109375 75.984375 
L 37.109375 68.5 
L 28.515625 68.5 
Q 23.6875 68.5 21.796875 66.546875 
Q 19.921875 64.59375 19.921875 59.515625 
L 19.921875 54.6875 
L 34.71875 54.6875 
L 34.71875 47.703125 
L 19.921875 47.703125 
L 19.921875 0 
L 10.890625 0 
L 10.890625 47.703125 
L 2.296875 47.703125 
L 2.296875 54.6875 
L 10.890625 54.6875 
L 10.890625 58.5 
Q 10.890625 67.625 15.140625 71.796875 
Q 19.390625 75.984375 28.609375 75.984375 
z
" id="DejaVuSans-102"/>
      <path d="M 56.203125 29.59375 
L 56.203125 25.203125 
L 14.890625 25.203125 
Q 15.484375 15.921875 20.484375 11.0625 
Q 25.484375 6.203125 34.421875 6.203125 
Q 39.59375 6.203125 44.453125 7.46875 
Q 49.3125 8.734375 54.109375 11.28125 
L 54.109375 2.78125 
Q 49.265625 0.734375 44.1875 -0.34375 
Q 39.109375 -1.421875 33.890625 -1.421875 
Q 20.796875 -1.421875 13.15625 6.1875 
Q 5.515625 13.8125 5.515625 26.8125 
Q 5.515625 40.234375 12.765625 48.109375 
Q 20.015625 56 32.328125 56 
Q 43.359375 56 49.78125 48.890625 
Q 56.203125 41.796875 56.203125 29.59375 
z
M 47.21875 32.234375 
Q 47.125 39.59375 43.09375 43.984375 
Q 39.0625 48.390625 32.421875 48.390625 
Q 24.90625 48.390625 20.390625 44.140625 
Q 15.875 39.890625 15.1875 32.171875 
z
" id="DejaVuSans-101"/>
      <path d="M 52 44.1875 
Q 55.375 50.25 60.0625 53.125 
Q 64.75 56 71.09375 56 
Q 79.640625 56 84.28125 50.015625 
Q 88.921875 44.046875 88.921875 33.015625 
L 88.921875 0 
L 79.890625 0 
L 79.890625 32.71875 
Q 79.890625 40.578125 77.09375 44.375 
Q 74.3125 48.1875 68.609375 48.1875 
Q 61.625 48.1875 57.5625 43.546875 
Q 53.515625 38.921875 53.515625 30.90625 
L 53.515625 0 
L 44.484375 0 
L 44.484375 32.71875 
Q 44.484375 40.625 41.703125 44.40625 
Q 38.921875 48.1875 33.109375 48.1875 
Q 26.21875 48.1875 22.15625 43.53125 
Q 18.109375 38.875 18.109375 30.90625 
L 18.109375 0 
L 9.078125 0 
L 9.078125 54.6875 
L 18.109375 54.6875 
L 18.109375 46.1875 
Q 21.1875 51.21875 25.484375 53.609375 
Q 29.78125 56 35.6875 56 
Q 41.65625 56 45.828125 52.96875 
Q 50 49.953125 52 44.1875 
z
" id="DejaVuSans-109"/>
      <path d="M 34.28125 27.484375 
Q 23.390625 27.484375 19.1875 25 
Q 14.984375 22.515625 14.984375 16.5 
Q 14.984375 11.71875 18.140625 8.90625 
Q 21.296875 6.109375 26.703125 6.109375 
Q 34.1875 6.109375 38.703125 11.40625 
Q 43.21875 16.703125 43.21875 25.484375 
L 43.21875 27.484375 
z
M 52.203125 31.203125 
L 52.203125 0 
L 43.21875 0 
L 43.21875 8.296875 
Q 40.140625 3.328125 35.546875 0.953125 
Q 30.953125 -1.421875 24.3125 -1.421875 
Q 15.921875 -1.421875 10.953125 3.296875 
Q 6 8.015625 6 15.921875 
Q 6 25.140625 12.171875 29.828125 
Q 18.359375 34.515625 30.609375 34.515625 
L 43.21875 34.515625 
L 43.21875 35.40625 
Q 43.21875 41.609375 39.140625 45 
Q 35.0625 48.390625 27.6875 48.390625 
Q 23 48.390625 18.546875 47.265625 
Q 14.109375 46.140625 10.015625 43.890625 
L 10.015625 52.203125 
Q 14.9375 54.109375 19.578125 55.046875 
Q 24.21875 56 28.609375 56 
Q 40.484375 56 46.34375 49.84375 
Q 52.203125 43.703125 52.203125 31.203125 
z
" id="DejaVuSans-97"/>
      <path d="M 9.421875 75.984375 
L 18.40625 75.984375 
L 18.40625 0 
L 9.421875 0 
z
" id="DejaVuSans-108"/>
      <path id="DejaVuSans-32"/>
      <path d="M 48.78125 52.59375 
L 48.78125 44.1875 
Q 44.96875 46.296875 41.140625 47.34375 
Q 37.3125 48.390625 33.40625 48.390625 
Q 24.65625 48.390625 19.8125 42.84375 
Q 14.984375 37.3125 14.984375 27.296875 
Q 14.984375 17.28125 19.8125 11.734375 
Q 24.65625 6.203125 33.40625 6.203125 
Q 37.3125 6.203125 41.140625 7.25 
Q 44.96875 8.296875 48.78125 10.40625 
L 48.78125 2.09375 
Q 45.015625 0.34375 40.984375 -0.53125 
Q 36.96875 -1.421875 32.421875 -1.421875 
Q 20.0625 -1.421875 12.78125 6.34375 
Q 5.515625 14.109375 5.515625 27.296875 
Q 5.515625 40.671875 12.859375 48.328125 
Q 20.21875 56 33.015625 56 
Q 37.15625 56 41.109375 55.140625 
Q 45.0625 54.296875 48.78125 52.59375 
z
" id="DejaVuSans-99"/>
      <path d="M 8.5 21.578125 
L 8.5 54.6875 
L 17.484375 54.6875 
L 17.484375 21.921875 
Q 17.484375 14.15625 20.5 10.265625 
Q 23.53125 6.390625 29.59375 6.390625 
Q 36.859375 6.390625 41.078125 11.03125 
Q 45.3125 15.671875 45.3125 23.6875 
L 45.3125 54.6875 
L 54.296875 54.6875 
L 54.296875 0 
L 45.3125 0 
L 45.3125 8.40625 
Q 42.046875 3.421875 37.71875 1 
Q 33.40625 -1.421875 27.6875 -1.421875 
Q 18.265625 -1.421875 13.375 4.4375 
Q 8.5 10.296875 8.5 21.578125 
z
M 31.109375 56 
z
" id="DejaVuSans-117"/>
      <path d="M 54.890625 33.015625 
L 54.890625 0 
L 45.90625 0 
L 45.90625 32.71875 
Q 45.90625 40.484375 42.875 44.328125 
Q 39.84375 48.1875 33.796875 48.1875 
Q 26.515625 48.1875 22.3125 43.546875 
Q 18.109375 38.921875 18.109375 30.90625 
L 18.109375 0 
L 9.078125 0 
L 9.078125 54.6875 
L 18.109375 54.6875 
L 18.109375 46.1875 
Q 21.34375 51.125 25.703125 53.5625 
Q 30.078125 56 35.796875 56 
Q 45.21875 56 50.046875 50.171875 
Q 54.890625 44.34375 54.890625 33.015625 
z
" id="DejaVuSans-110"/>
      <path d="M 45.40625 46.390625 
L 45.40625 75.984375 
L 54.390625 75.984375 
L 54.390625 0 
L 45.40625 0 
L 45.40625 8.203125 
Q 42.578125 3.328125 38.25 0.953125 
Q 33.9375 -1.421875 27.875 -1.421875 
Q 17.96875 -1.421875 11.734375 6.484375 
Q 5.515625 14.40625 5.515625 27.296875 
Q 5.515625 40.1875 11.734375 48.09375 
Q 17.96875 56 27.875 56 
Q 33.9375 56 38.25 53.625 
Q 42.578125 51.265625 45.40625 46.390625 
z
M 14.796875 27.296875 
Q 14.796875 17.390625 18.875 11.75 
Q 22.953125 6.109375 30.078125 6.109375 
Q 37.203125 6.109375 41.296875 11.75 
Q 45.40625 17.390625 45.40625 27.296875 
Q 45.40625 37.203125 41.296875 42.84375 
Q 37.203125 48.484375 30.078125 48.484375 
Q 22.953125 48.484375 18.875 42.84375 
Q 14.796875 37.203125 14.796875 27.296875 
z
" id="DejaVuSans-100"/>
      <path d="M 9.421875 54.6875 
L 18.40625 54.6875 
L 18.40625 0 
L 9.421875 0 
z
M 9.421875 75.984375 
L 18.40625 75.984375 
L 18.40625 64.59375 
L 9.421875 64.59375 
z
" id="DejaVuSans-105"/>
      <path d="M 18.3125 70.21875 
L 18.3125 54.6875 
L 36.8125 54.6875 
L 36.8125 47.703125 
L 18.3125 47.703125 
L 18.3125 18.015625 
Q 18.3125 11.328125 20.140625 9.421875 
Q 21.96875 7.515625 27.59375 7.515625 
L 36.8125 7.515625 
L 36.8125 0 
L 27.59375 0 
Q 17.1875 0 13.234375 3.875 
Q 9.28125 7.765625 9.28125 18.015625 
L 9.28125 47.703125 
L 2.6875 47.703125 
L 2.6875 54.6875 
L 9.28125 54.6875 
L 9.28125 70.21875 
z
" id="DejaVuSans-116"/>
      <path d="M 32.171875 -5.078125 
Q 28.375 -14.84375 24.75 -17.8125 
Q 21.140625 -20.796875 15.09375 -20.796875 
L 7.90625 -20.796875 
L 7.90625 -13.28125 
L 13.1875 -13.28125 
Q 16.890625 -13.28125 18.9375 -11.515625 
Q 21 -9.765625 23.484375 -3.21875 
L 25.09375 0.875 
L 2.984375 54.6875 
L 12.5 54.6875 
L 29.59375 11.921875 
L 46.6875 54.6875 
L 56.203125 54.6875 
z
" id="DejaVuSans-121"/>
      <path d="M 30.609375 48.390625 
Q 23.390625 48.390625 19.1875 42.75 
Q 14.984375 37.109375 14.984375 27.296875 
Q 14.984375 17.484375 19.15625 11.84375 
Q 23.34375 6.203125 30.609375 6.203125 
Q 37.796875 6.203125 41.984375 11.859375 
Q 46.1875 17.53125 46.1875 27.296875 
Q 46.1875 37.015625 41.984375 42.703125 
Q 37.796875 48.390625 30.609375 48.390625 
z
M 30.609375 56 
Q 42.328125 56 49.015625 48.375 
Q 55.71875 40.765625 55.71875 27.296875 
Q 55.71875 13.875 49.015625 6.21875 
Q 42.328125 -1.421875 30.609375 -1.421875 
Q 18.84375 -1.421875 12.171875 6.21875 
Q 5.515625 13.875 5.515625 27.296875 
Q 5.515625 40.765625 12.171875 48.375 
Q 18.84375 56 30.609375 56 
z
" id="DejaVuSans-111"/>
      <path d="M 44.28125 53.078125 
L 44.28125 44.578125 
Q 40.484375 46.53125 36.375 47.5 
Q 32.28125 48.484375 27.875 48.484375 
Q 21.1875 48.484375 17.84375 46.4375 
Q 14.5 44.390625 14.5 40.28125 
Q 14.5 37.15625 16.890625 35.375 
Q 19.28125 33.59375 26.515625 31.984375 
L 29.59375 31.296875 
Q 39.15625 29.25 43.1875 25.515625 
Q 47.21875 21.78125 47.21875 15.09375 
Q 47.21875 7.46875 41.1875 3.015625 
Q 35.15625 -1.421875 24.609375 -1.421875 
Q 20.21875 -1.421875 15.453125 -0.5625 
Q 10.6875 0.296875 5.421875 2 
L 5.421875 11.28125 
Q 10.40625 8.6875 15.234375 7.390625 
Q 20.0625 6.109375 24.8125 6.109375 
Q 31.15625 6.109375 34.5625 8.28125 
Q 37.984375 10.453125 37.984375 14.40625 
Q 37.984375 18.0625 35.515625 20.015625 
Q 33.0625 21.96875 24.703125 23.78125 
L 21.578125 24.515625 
Q 13.234375 26.265625 9.515625 29.90625 
Q 5.8125 33.546875 5.8125 39.890625 
Q 5.8125 47.609375 11.28125 51.796875 
Q 16.75 56 26.8125 56 
Q 31.78125 56 36.171875 55.265625 
Q 40.578125 54.546875 44.28125 53.078125 
z
" id="DejaVuSans-115"/>
      <path d="M 10.59375 45.40625 
L 73.1875 45.40625 
L 73.1875 37.203125 
L 10.59375 37.203125 
z
M 10.59375 25.484375 
L 73.1875 25.484375 
L 73.1875 17.1875 
L 10.59375 17.1875 
z
" id="DejaVuSans-61"/>
     </defs>
     <g transform="translate(564.171875 295.739063)scale(0.1 -0.1)">
      <use xlink:href="#DejaVuSans-102"/>
      <use x="35.205078" xlink:href="#DejaVuSans-101"/>
      <use x="96.728516" xlink:href="#DejaVuSans-109"/>
      <use x="194.140625" xlink:href="#DejaVuSans-97"/>
      <use x="255.419922" xlink:href="#DejaVuSans-108"/>
      <use x="283.203125" xlink:href="#DejaVuSans-101"/>
      <use x="344.726562" xlink:href="#DejaVuSans-32"/>
      <use x="376.513672" xlink:href="#DejaVuSans-102"/>
      <use x="411.71875" xlink:href="#DejaVuSans-101"/>
      <use x="473.242188" xlink:href="#DejaVuSans-99"/>
      <use x="528.222656" xlink:href="#DejaVuSans-117"/>
      <use x="591.601562" xlink:href="#DejaVuSans-110"/>
      <use x="654.980469" xlink:href="#DejaVuSans-100"/>
      <use x="718.457031" xlink:href="#DejaVuSans-105"/>
      <use x="746.240234" xlink:href="#DejaVuSans-116"/>
      <use x="785.449219" xlink:href="#DejaVuSans-121"/>
      <use x="844.628906" xlink:href="#DejaVuSans-32"/>
      <use x="876.416016" xlink:href="#DejaVuSans-108"/>
      <use x="904.199219" xlink:href="#DejaVuSans-111"/>
      <use x="965.380859" xlink:href="#DejaVuSans-115"/>
      <use x="1017.480469" xlink:href="#DejaVuSans-115"/>
      <use x="1069.580078" xlink:href="#DejaVuSans-32"/>
      <use x="1101.367188" xlink:href="#DejaVuSans-115"/>
      <use x="1153.466797" xlink:href="#DejaVuSans-61"/>
      <use x="1237.255859" xlink:href="#DejaVuSans-48"/>
      <use x="1300.878906" xlink:href="#DejaVuSans-46"/>
      <use x="1332.666016" xlink:href="#DejaVuSans-48"/>
     </g>
    </g>
    <g id="line2d_26">
     <path d="M 536.171875 306.917188 
L 556.171875 306.917188 
" style="fill:none;stroke:#ff7f0e;stroke-linecap:square;stroke-width:1.5;"/>
    </g>
    <g id="line2d_27"/>
    <g id="text_14">
     <!-- female fecundity loss s=0.1 -->
     <g transform="translate(564.171875 310.417188)scale(0.1 -0.1)">
      <use xlink:href="#DejaVuSans-102"/>
      <use x="35.205078" xlink:href="#DejaVuSans-101"/>
      <use x="96.728516" xlink:href="#DejaVuSans-109"/>
      <use x="194.140625" xlink:href="#DejaVuSans-97"/>
      <use x="255.419922" xlink:href="#DejaVuSans-108"/>
      <use x="283.203125" xlink:href="#DejaVuSans-101"/>
      <use x="344.726562" xlink:href="#DejaVuSans-32"/>
      <use x="376.513672" xlink:href="#DejaVuSans-102"/>
      <use x="411.71875" xlink:href="#DejaVuSans-101"/>
      <use x="473.242188" xlink:href="#DejaVuSans-99"/>
      <use x="528.222656" xlink:href="#DejaVuSans-117"/>
      <use x="591.601562" xlink:href="#DejaVuSans-110"/>
      <use x="654.980469" xlink:href="#DejaVuSans-100"/>
      <use x="718.457031" xlink:href="#DejaVuSans-105"/>
      <use x="746.240234" xlink:href="#DejaVuSans-116"/>
      <use x="785.449219" xlink:href="#DejaVuSans-121"/>
      <use x="844.628906" xlink:href="#DejaVuSans-32"/>
      <use x="876.416016" xlink:href="#DejaVuSans-108"/>
      <use x="904.199219" xlink:href="#DejaVuSans-111"/>
      <use x="965.380859" xlink:href="#DejaVuSans-115"/>
      <use x="1017.480469" xlink:href="#DejaVuSans-115"/>
      <use x="1069.580078" xlink:href="#DejaVuSans-32"/>
      <use x="1101.367188" xlink:href="#DejaVuSans-115"/>
      <use x="1153.466797" xlink:href="#DejaVuSans-61"/>
      <use x="1237.255859" xlink:href="#DejaVuSans-48"/>
      <use x="1300.878906" xlink:href="#DejaVuSans-46"/>
      <use x="1332.666016" xlink:href="#DejaVuSans-49"/>
     </g>
    </g>
    <g id="line2d_28">
     <path d="M 536.171875 321.595313 
L 556.171875 321.595313 
" style="fill:none;stroke:#2ca02c;stroke-linecap:square;stroke-width:1.5;"/>
    </g>
    <g id="line2d_29"/>
    <g id="text_15">
     <!-- female fecundity loss s=0.2 -->
     <g transform="translate(564.171875 325.095313)scale(0.1 -0.1)">
      <use xlink:href="#DejaVuSans-102"/>
      <use x="35.205078" xlink:href="#DejaVuSans-101"/>
      <use x="96.728516" xlink:href="#DejaVuSans-109"/>
      <use x="194.140625" xlink:href="#DejaVuSans-97"/>
      <use x="255.419922" xlink:href="#DejaVuSans-108"/>
      <use x="283.203125" xlink:href="#DejaVuSans-101"/>
      <use x="344.726562" xlink:href="#DejaVuSans-32"/>
      <use x="376.513672" xlink:href="#DejaVuSans-102"/>
      <use x="411.71875" xlink:href="#DejaVuSans-101"/>
      <use x="473.242188" xlink:href="#DejaVuSans-99"/>
      <use x="528.222656" xlink:href="#DejaVuSans-117"/>
      <use x="591.601562" xlink:href="#DejaVuSans-110"/>
      <use x="654.980469" xlink:href="#DejaVuSans-100"/>
      <use x="718.457031" xlink:href="#DejaVuSans-105"/>
      <use x="746.240234" xlink:href="#DejaVuSans-116"/>
      <use x="785.449219" xlink:href="#DejaVuSans-121"/>
      <use x="844.628906" xlink:href="#DejaVuSans-32"/>
      <use x="876.416016" xlink:href="#DejaVuSans-108"/>
      <use x="904.199219" xlink:href="#DejaVuSans-111"/>
      <use x="965.380859" xlink:href="#DejaVuSans-115"/>
      <use x="1017.480469" xlink:href="#DejaVuSans-115"/>
      <use x="1069.580078" xlink:href="#DejaVuSans-32"/>
      <use x="1101.367188" xlink:href="#DejaVuSans-115"/>
      <use x="1153.466797" xlink:href="#DejaVuSans-61"/>
      <use x="1237.255859" xlink:href="#DejaVuSans-48"/>
      <use x="1300.878906" xlink:href="#DejaVuSans-46"/>
      <use x="1332.666016" xlink:href="#DejaVuSans-50"/>
     </g>
    </g>
    <g id="line2d_30">
     <path d="M 536.171875 336.273438 
L 556.171875 336.273438 
" style="fill:none;stroke:#d62728;stroke-linecap:square;stroke-width:1.5;"/>
    </g>
    <g id="line2d_31"/>
    <g id="text_16">
     <!-- female fecundity loss s=0.3 -->
     <defs>
      <path d="M 40.578125 39.3125 
Q 47.65625 37.796875 51.625 33 
Q 55.609375 28.21875 55.609375 21.1875 
Q 55.609375 10.40625 48.1875 4.484375 
Q 40.765625 -1.421875 27.09375 -1.421875 
Q 22.515625 -1.421875 17.65625 -0.515625 
Q 12.796875 0.390625 7.625 2.203125 
L 7.625 11.71875 
Q 11.71875 9.328125 16.59375 8.109375 
Q 21.484375 6.890625 26.8125 6.890625 
Q 36.078125 6.890625 40.9375 10.546875 
Q 45.796875 14.203125 45.796875 21.1875 
Q 45.796875 27.640625 41.28125 31.265625 
Q 36.765625 34.90625 28.71875 34.90625 
L 20.21875 34.90625 
L 20.21875 43.015625 
L 29.109375 43.015625 
Q 36.375 43.015625 40.234375 45.921875 
Q 44.09375 48.828125 44.09375 54.296875 
Q 44.09375 59.90625 40.109375 62.90625 
Q 36.140625 65.921875 28.71875 65.921875 
Q 24.65625 65.921875 20.015625 65.03125 
Q 15.375 64.15625 9.8125 62.3125 
L 9.8125 71.09375 
Q 15.4375 72.65625 20.34375 73.4375 
Q 25.25 74.21875 29.59375 74.21875 
Q 40.828125 74.21875 47.359375 69.109375 
Q 53.90625 64.015625 53.90625 55.328125 
Q 53.90625 49.265625 50.4375 45.09375 
Q 46.96875 40.921875 40.578125 39.3125 
z
" id="DejaVuSans-51"/>
     </defs>
     <g transform="translate(564.171875 339.773438)scale(0.1 -0.1)">
      <use xlink:href="#DejaVuSans-102"/>
      <use x="35.205078" xlink:href="#DejaVuSans-101"/>
      <use x="96.728516" xlink:href="#DejaVuSans-109"/>
      <use x="194.140625" xlink:href="#DejaVuSans-97"/>
      <use x="255.419922" xlink:href="#DejaVuSans-108"/>
      <use x="283.203125" xlink:href="#DejaVuSans-101"/>
      <use x="344.726562" xlink:href="#DejaVuSans-32"/>
      <use x="376.513672" xlink:href="#DejaVuSans-102"/>
      <use x="411.71875" xlink:href="#DejaVuSans-101"/>
      <use x="473.242188" xlink:href="#DejaVuSans-99"/>
      <use x="528.222656" xlink:href="#DejaVuSans-117"/>
      <use x="591.601562" xlink:href="#DejaVuSans-110"/>
      <use x="654.980469" xlink:href="#DejaVuSans-100"/>
      <use x="718.457031" xlink:href="#DejaVuSans-105"/>
      <use x="746.240234" xlink:href="#DejaVuSans-116"/>
      <use x="785.449219" xlink:href="#DejaVuSans-121"/>
      <use x="844.628906" xlink:href="#DejaVuSans-32"/>
      <use x="876.416016" xlink:href="#DejaVuSans-108"/>
      <use x="904.199219" xlink:href="#DejaVuSans-111"/>
      <use x="965.380859" xlink:href="#DejaVuSans-115"/>
      <use x="1017.480469" xlink:href="#DejaVuSans-115"/>
      <use x="1069.580078" xlink:href="#DejaVuSans-32"/>
      <use x="1101.367188" xlink:href="#DejaVuSans-115"/>
      <use x="1153.466797" xlink:href="#DejaVuSans-61"/>
      <use x="1237.255859" xlink:href="#DejaVuSans-48"/>
      <use x="1300.878906" xlink:href="#DejaVuSans-46"/>
      <use x="1332.666016" xlink:href="#DejaVuSans-51"/>
     </g>
    </g>
    <g id="line2d_32">
     <path d="M 536.171875 350.951563 
L 556.171875 350.951563 
" style="fill:none;stroke:#9467bd;stroke-linecap:square;stroke-width:1.5;"/>
    </g>
    <g id="line2d_33"/>
    <g id="text_17">
     <!-- female fecundity loss s=0.4 -->
     <g transform="translate(564.171875 354.451563)scale(0.1 -0.1)">
      <use xlink:href="#DejaVuSans-102"/>
      <use x="35.205078" xlink:href="#DejaVuSans-101"/>
      <use x="96.728516" xlink:href="#DejaVuSans-109"/>
      <use x="194.140625" xlink:href="#DejaVuSans-97"/>
      <use x="255.419922" xlink:href="#DejaVuSans-108"/>
      <use x="283.203125" xlink:href="#DejaVuSans-101"/>
      <use x="344.726562" xlink:href="#DejaVuSans-32"/>
      <use x="376.513672" xlink:href="#DejaVuSans-102"/>
      <use x="411.71875" xlink:href="#DejaVuSans-101"/>
      <use x="473.242188" xlink:href="#DejaVuSans-99"/>
      <use x="528.222656" xlink:href="#DejaVuSans-117"/>
      <use x="591.601562" xlink:href="#DejaVuSans-110"/>
      <use x="654.980469" xlink:href="#DejaVuSans-100"/>
      <use x="718.457031" xlink:href="#DejaVuSans-105"/>
      <use x="746.240234" xlink:href="#DejaVuSans-116"/>
      <use x="785.449219" xlink:href="#DejaVuSans-121"/>
      <use x="844.628906" xlink:href="#DejaVuSans-32"/>
      <use x="876.416016" xlink:href="#DejaVuSans-108"/>
      <use x="904.199219" xlink:href="#DejaVuSans-111"/>
      <use x="965.380859" xlink:href="#DejaVuSans-115"/>
      <use x="1017.480469" xlink:href="#DejaVuSans-115"/>
      <use x="1069.580078" xlink:href="#DejaVuSans-32"/>
      <use x="1101.367188" xlink:href="#DejaVuSans-115"/>
      <use x="1153.466797" xlink:href="#DejaVuSans-61"/>
      <use x="1237.255859" xlink:href="#DejaVuSans-48"/>
      <use x="1300.878906" xlink:href="#DejaVuSans-46"/>
      <use x="1332.666016" xlink:href="#DejaVuSans-52"/>
     </g>
    </g>
    <g id="line2d_34">
     <path d="M 536.171875 365.629688 
L 556.171875 365.629688 
" style="fill:none;stroke:#8c564b;stroke-linecap:square;stroke-width:1.5;"/>
    </g>
    <g id="line2d_35"/>
    <g id="text_18">
     <!-- female fecundity loss s=0.5 -->
     <defs>
      <path d="M 10.796875 72.90625 
L 49.515625 72.90625 
L 49.515625 64.59375 
L 19.828125 64.59375 
L 19.828125 46.734375 
Q 21.96875 47.46875 24.109375 47.828125 
Q 26.265625 48.1875 28.421875 48.1875 
Q 40.625 48.1875 47.75 41.5 
Q 54.890625 34.8125 54.890625 23.390625 
Q 54.890625 11.625 47.5625 5.09375 
Q 40.234375 -1.421875 26.90625 -1.421875 
Q 22.3125 -1.421875 17.546875 -0.640625 
Q 12.796875 0.140625 7.71875 1.703125 
L 7.71875 11.625 
Q 12.109375 9.234375 16.796875 8.0625 
Q 21.484375 6.890625 26.703125 6.890625 
Q 35.15625 6.890625 40.078125 11.328125 
Q 45.015625 15.765625 45.015625 23.390625 
Q 45.015625 31 40.078125 35.4375 
Q 35.15625 39.890625 26.703125 39.890625 
Q 22.75 39.890625 18.8125 39.015625 
Q 14.890625 38.140625 10.796875 36.28125 
z
" id="DejaVuSans-53"/>
     </defs>
     <g transform="translate(564.171875 369.129688)scale(0.1 -0.1)">
      <use xlink:href="#DejaVuSans-102"/>
      <use x="35.205078" xlink:href="#DejaVuSans-101"/>
      <use x="96.728516" xlink:href="#DejaVuSans-109"/>
      <use x="194.140625" xlink:href="#DejaVuSans-97"/>
      <use x="255.419922" xlink:href="#DejaVuSans-108"/>
      <use x="283.203125" xlink:href="#DejaVuSans-101"/>
      <use x="344.726562" xlink:href="#DejaVuSans-32"/>
      <use x="376.513672" xlink:href="#DejaVuSans-102"/>
      <use x="411.71875" xlink:href="#DejaVuSans-101"/>
      <use x="473.242188" xlink:href="#DejaVuSans-99"/>
      <use x="528.222656" xlink:href="#DejaVuSans-117"/>
      <use x="591.601562" xlink:href="#DejaVuSans-110"/>
      <use x="654.980469" xlink:href="#DejaVuSans-100"/>
      <use x="718.457031" xlink:href="#DejaVuSans-105"/>
      <use x="746.240234" xlink:href="#DejaVuSans-116"/>
      <use x="785.449219" xlink:href="#DejaVuSans-121"/>
      <use x="844.628906" xlink:href="#DejaVuSans-32"/>
      <use x="876.416016" xlink:href="#DejaVuSans-108"/>
      <use x="904.199219" xlink:href="#DejaVuSans-111"/>
      <use x="965.380859" xlink:href="#DejaVuSans-115"/>
      <use x="1017.480469" xlink:href="#DejaVuSans-115"/>
      <use x="1069.580078" xlink:href="#DejaVuSans-32"/>
      <use x="1101.367188" xlink:href="#DejaVuSans-115"/>
      <use x="1153.466797" xlink:href="#DejaVuSans-61"/>
      <use x="1237.255859" xlink:href="#DejaVuSans-48"/>
      <use x="1300.878906" xlink:href="#DejaVuSans-46"/>
      <use x="1332.666016" xlink:href="#DejaVuSans-53"/>
     </g>
    </g>
    <g id="line2d_36">
     <path d="M 536.171875 380.307813 
L 556.171875 380.307813 
" style="fill:none;stroke:#e377c2;stroke-linecap:square;stroke-width:1.5;"/>
    </g>
    <g id="line2d_37"/>
    <g id="text_19">
     <!-- female fecundity loss s=0.6 -->
     <g transform="translate(564.171875 383.807813)scale(0.1 -0.1)">
      <use xlink:href="#DejaVuSans-102"/>
      <use x="35.205078" xlink:href="#DejaVuSans-101"/>
      <use x="96.728516" xlink:href="#DejaVuSans-109"/>
      <use x="194.140625" xlink:href="#DejaVuSans-97"/>
      <use x="255.419922" xlink:href="#DejaVuSans-108"/>
      <use x="283.203125" xlink:href="#DejaVuSans-101"/>
      <use x="344.726562" xlink:href="#DejaVuSans-32"/>
      <use x="376.513672" xlink:href="#DejaVuSans-102"/>
      <use x="411.71875" xlink:href="#DejaVuSans-101"/>
      <use x="473.242188" xlink:href="#DejaVuSans-99"/>
      <use x="528.222656" xlink:href="#DejaVuSans-117"/>
      <use x="591.601562" xlink:href="#DejaVuSans-110"/>
      <use x="654.980469" xlink:href="#DejaVuSans-100"/>
      <use x="718.457031" xlink:href="#DejaVuSans-105"/>
      <use x="746.240234" xlink:href="#DejaVuSans-116"/>
      <use x="785.449219" xlink:href="#DejaVuSans-121"/>
      <use x="844.628906" xlink:href="#DejaVuSans-32"/>
      <use x="876.416016" xlink:href="#DejaVuSans-108"/>
      <use x="904.199219" xlink:href="#DejaVuSans-111"/>
      <use x="965.380859" xlink:href="#DejaVuSans-115"/>
      <use x="1017.480469" xlink:href="#DejaVuSans-115"/>
      <use x="1069.580078" xlink:href="#DejaVuSans-32"/>
      <use x="1101.367188" xlink:href="#DejaVuSans-115"/>
      <use x="1153.466797" xlink:href="#DejaVuSans-61"/>
      <use x="1237.255859" xlink:href="#DejaVuSans-48"/>
      <use x="1300.878906" xlink:href="#DejaVuSans-46"/>
      <use x="1332.666016" xlink:href="#DejaVuSans-54"/>
     </g>
    </g>
    <g id="line2d_38">
     <path d="M 536.171875 394.985938 
L 556.171875 394.985938 
" style="fill:none;stroke:#7f7f7f;stroke-linecap:square;stroke-width:1.5;"/>
    </g>
    <g id="line2d_39"/>
    <g id="text_20">
     <!-- female fecundity loss s=0.7 -->
     <defs>
      <path d="M 8.203125 72.90625 
L 55.078125 72.90625 
L 55.078125 68.703125 
L 28.609375 0 
L 18.3125 0 
L 43.21875 64.59375 
L 8.203125 64.59375 
z
" id="DejaVuSans-55"/>
     </defs>
     <g transform="translate(564.171875 398.485938)scale(0.1 -0.1)">
      <use xlink:href="#DejaVuSans-102"/>
      <use x="35.205078" xlink:href="#DejaVuSans-101"/>
      <use x="96.728516" xlink:href="#DejaVuSans-109"/>
      <use x="194.140625" xlink:href="#DejaVuSans-97"/>
      <use x="255.419922" xlink:href="#DejaVuSans-108"/>
      <use x="283.203125" xlink:href="#DejaVuSans-101"/>
      <use x="344.726562" xlink:href="#DejaVuSans-32"/>
      <use x="376.513672" xlink:href="#DejaVuSans-102"/>
      <use x="411.71875" xlink:href="#DejaVuSans-101"/>
      <use x="473.242188" xlink:href="#DejaVuSans-99"/>
      <use x="528.222656" xlink:href="#DejaVuSans-117"/>
      <use x="591.601562" xlink:href="#DejaVuSans-110"/>
      <use x="654.980469" xlink:href="#DejaVuSans-100"/>
      <use x="718.457031" xlink:href="#DejaVuSans-105"/>
      <use x="746.240234" xlink:href="#DejaVuSans-116"/>
      <use x="785.449219" xlink:href="#DejaVuSans-121"/>
      <use x="844.628906" xlink:href="#DejaVuSans-32"/>
      <use x="876.416016" xlink:href="#DejaVuSans-108"/>
      <use x="904.199219" xlink:href="#DejaVuSans-111"/>
      <use x="965.380859" xlink:href="#DejaVuSans-115"/>
      <use x="1017.480469" xlink:href="#DejaVuSans-115"/>
      <use x="1069.580078" xlink:href="#DejaVuSans-32"/>
      <use x="1101.367188" xlink:href="#DejaVuSans-115"/>
      <use x="1153.466797" xlink:href="#DejaVuSans-61"/>
      <use x="1237.255859" xlink:href="#DejaVuSans-48"/>
      <use x="1300.878906" xlink:href="#DejaVuSans-46"/>
      <use x="1332.666016" xlink:href="#DejaVuSans-55"/>
     </g>
    </g>
    <g id="line2d_40">
     <path d="M 536.171875 409.664062 
L 556.171875 409.664062 
" style="fill:none;stroke:#bcbd22;stroke-linecap:square;stroke-width:1.5;"/>
    </g>
    <g id="line2d_41"/>
    <g id="text_21">
     <!-- female fecundity loss s=0.8 -->
     <g transform="translate(564.171875 413.164062)scale(0.1 -0.1)">
      <use xlink:href="#DejaVuSans-102"/>
      <use x="35.205078" xlink:href="#DejaVuSans-101"/>
      <use x="96.728516" xlink:href="#DejaVuSans-109"/>
      <use x="194.140625" xlink:href="#DejaVuSans-97"/>
      <use x="255.419922" xlink:href="#DejaVuSans-108"/>
      <use x="283.203125" xlink:href="#DejaVuSans-101"/>
      <use x="344.726562" xlink:href="#DejaVuSans-32"/>
      <use x="376.513672" xlink:href="#DejaVuSans-102"/>
      <use x="411.71875" xlink:href="#DejaVuSans-101"/>
      <use x="473.242188" xlink:href="#DejaVuSans-99"/>
      <use x="528.222656" xlink:href="#DejaVuSans-117"/>
      <use x="591.601562" xlink:href="#DejaVuSans-110"/>
      <use x="654.980469" xlink:href="#DejaVuSans-100"/>
      <use x="718.457031" xlink:href="#DejaVuSans-105"/>
      <use x="746.240234" xlink:href="#DejaVuSans-116"/>
      <use x="785.449219" xlink:href="#DejaVuSans-121"/>
      <use x="844.628906" xlink:href="#DejaVuSans-32"/>
      <use x="876.416016" xlink:href="#DejaVuSans-108"/>
      <use x="904.199219" xlink:href="#DejaVuSans-111"/>
      <use x="965.380859" xlink:href="#DejaVuSans-115"/>
      <use x="1017.480469" xlink:href="#DejaVuSans-115"/>
      <use x="1069.580078" xlink:href="#DejaVuSans-32"/>
      <use x="1101.367188" xlink:href="#DejaVuSans-115"/>
      <use x="1153.466797" xlink:href="#DejaVuSans-61"/>
      <use x="1237.255859" xlink:href="#DejaVuSans-48"/>
      <use x="1300.878906" xlink:href="#DejaVuSans-46"/>
      <use x="1332.666016" xlink:href="#DejaVuSans-56"/>
     </g>
    </g>
    <g id="line2d_42">
     <path d="M 536.171875 424.342188 
L 556.171875 424.342188 
" style="fill:none;stroke:#17becf;stroke-linecap:square;stroke-width:1.5;"/>
    </g>
    <g id="line2d_43"/>
    <g id="text_22">
     <!-- female fecundity loss s=0.9 -->
     <defs>
      <path d="M 10.984375 1.515625 
L 10.984375 10.5 
Q 14.703125 8.734375 18.5 7.8125 
Q 22.3125 6.890625 25.984375 6.890625 
Q 35.75 6.890625 40.890625 13.453125 
Q 46.046875 20.015625 46.78125 33.40625 
Q 43.953125 29.203125 39.59375 26.953125 
Q 35.25 24.703125 29.984375 24.703125 
Q 19.046875 24.703125 12.671875 31.3125 
Q 6.296875 37.9375 6.296875 49.421875 
Q 6.296875 60.640625 12.9375 67.421875 
Q 19.578125 74.21875 30.609375 74.21875 
Q 43.265625 74.21875 49.921875 64.515625 
Q 56.59375 54.828125 56.59375 36.375 
Q 56.59375 19.140625 48.40625 8.859375 
Q 40.234375 -1.421875 26.421875 -1.421875 
Q 22.703125 -1.421875 18.890625 -0.6875 
Q 15.09375 0.046875 10.984375 1.515625 
z
M 30.609375 32.421875 
Q 37.25 32.421875 41.125 36.953125 
Q 45.015625 41.5 45.015625 49.421875 
Q 45.015625 57.28125 41.125 61.84375 
Q 37.25 66.40625 30.609375 66.40625 
Q 23.96875 66.40625 20.09375 61.84375 
Q 16.21875 57.28125 16.21875 49.421875 
Q 16.21875 41.5 20.09375 36.953125 
Q 23.96875 32.421875 30.609375 32.421875 
z
" id="DejaVuSans-57"/>
     </defs>
     <g transform="translate(564.171875 427.842188)scale(0.1 -0.1)">
      <use xlink:href="#DejaVuSans-102"/>
      <use x="35.205078" xlink:href="#DejaVuSans-101"/>
      <use x="96.728516" xlink:href="#DejaVuSans-109"/>
      <use x="194.140625" xlink:href="#DejaVuSans-97"/>
      <use x="255.419922" xlink:href="#DejaVuSans-108"/>
      <use x="283.203125" xlink:href="#DejaVuSans-101"/>
      <use x="344.726562" xlink:href="#DejaVuSans-32"/>
      <use x="376.513672" xlink:href="#DejaVuSans-102"/>
      <use x="411.71875" xlink:href="#DejaVuSans-101"/>
      <use x="473.242188" xlink:href="#DejaVuSans-99"/>
      <use x="528.222656" xlink:href="#DejaVuSans-117"/>
      <use x="591.601562" xlink:href="#DejaVuSans-110"/>
      <use x="654.980469" xlink:href="#DejaVuSans-100"/>
      <use x="718.457031" xlink:href="#DejaVuSans-105"/>
      <use x="746.240234" xlink:href="#DejaVuSans-116"/>
      <use x="785.449219" xlink:href="#DejaVuSans-121"/>
      <use x="844.628906" xlink:href="#DejaVuSans-32"/>
      <use x="876.416016" xlink:href="#DejaVuSans-108"/>
      <use x="904.199219" xlink:href="#DejaVuSans-111"/>
      <use x="965.380859" xlink:href="#DejaVuSans-115"/>
      <use x="1017.480469" xlink:href="#DejaVuSans-115"/>
      <use x="1069.580078" xlink:href="#DejaVuSans-32"/>
      <use x="1101.367188" xlink:href="#DejaVuSans-115"/>
      <use x="1153.466797" xlink:href="#DejaVuSans-61"/>
      <use x="1237.255859" xlink:href="#DejaVuSans-48"/>
      <use x="1300.878906" xlink:href="#DejaVuSans-46"/>
      <use x="1332.666016" xlink:href="#DejaVuSans-57"/>
     </g>
    </g>
    <g id="line2d_44">
     <path d="M 536.171875 439.020312 
L 556.171875 439.020312 
" style="fill:none;stroke:#1f77b4;stroke-linecap:square;stroke-width:1.5;"/>
    </g>
    <g id="line2d_45"/>
    <g id="text_23">
     <!-- female fecundity loss s=1.0 -->
     <g transform="translate(564.171875 442.520312)scale(0.1 -0.1)">
      <use xlink:href="#DejaVuSans-102"/>
      <use x="35.205078" xlink:href="#DejaVuSans-101"/>
      <use x="96.728516" xlink:href="#DejaVuSans-109"/>
      <use x="194.140625" xlink:href="#DejaVuSans-97"/>
      <use x="255.419922" xlink:href="#DejaVuSans-108"/>
      <use x="283.203125" xlink:href="#DejaVuSans-101"/>
      <use x="344.726562" xlink:href="#DejaVuSans-32"/>
      <use x="376.513672" xlink:href="#DejaVuSans-102"/>
      <use x="411.71875" xlink:href="#DejaVuSans-101"/>
      <use x="473.242188" xlink:href="#DejaVuSans-99"/>
      <use x="528.222656" xlink:href="#DejaVuSans-117"/>
      <use x="591.601562" xlink:href="#DejaVuSans-110"/>
      <use x="654.980469" xlink:href="#DejaVuSans-100"/>
      <use x="718.457031" xlink:href="#DejaVuSans-105"/>
      <use x="746.240234" xlink:href="#DejaVuSans-116"/>
      <use x="785.449219" xlink:href="#DejaVuSans-121"/>
      <use x="844.628906" xlink:href="#DejaVuSans-32"/>
      <use x="876.416016" xlink:href="#DejaVuSans-108"/>
      <use x="904.199219" xlink:href="#DejaVuSans-111"/>
      <use x="965.380859" xlink:href="#DejaVuSans-115"/>
      <use x="1017.480469" xlink:href="#DejaVuSans-115"/>
      <use x="1069.580078" xlink:href="#DejaVuSans-32"/>
      <use x="1101.367188" xlink:href="#DejaVuSans-115"/>
      <use x="1153.466797" xlink:href="#DejaVuSans-61"/>
      <use x="1237.255859" xlink:href="#DejaVuSans-49"/>
      <use x="1300.878906" xlink:href="#DejaVuSans-46"/>
      <use x="1332.666016" xlink:href="#DejaVuSans-48"/>
     </g>
    </g>
   </g>
  </g>
 </g>
 <defs>
  <clipPath id="p2e6d12941d">
   <rect height="403.2" width="633.6" x="79.2" y="50.4"/>
  </clipPath>
 </defs>
</svg>
