<?xml version="1.0" encoding="utf-8" standalone="no"?>
<!DOCTYPE svg PUBLIC "-//W3C//DTD SVG 1.1//EN"
  "http://www.w3.org/Graphics/SVG/1.1/DTD/svg11.dtd">
<!-- Created with matplotlib (https://matplotlib.org/) -->
<svg height="504pt" version="1.1" viewBox="0 0 792 504" width="792pt" xmlns="http://www.w3.org/2000/svg" xmlns:xlink="http://www.w3.org/1999/xlink">
 <defs>
  <style type="text/css">
*{stroke-linecap:butt;stroke-linejoin:round;}
  </style>
 </defs>
 <g id="figure_1">
  <g id="patch_1">
   <path d="M 0 504 
L 792 504 
L 792 0 
L 0 0 
z
" style="fill:#ffffff;"/>
  </g>
  <g id="axes_1">
   <g id="patch_2">
    <path d="M 79.2 453.6 
L 712.8 453.6 
L 712.8 50.4 
L 79.2 50.4 
z
" style="fill:#ffffff;"/>
   </g>
   <g id="matplotlib.axis_1">
    <g id="xtick_1">
     <g id="line2d_1">
      <defs>
       <path d="M 0 0 
L 0 3.5 
" id="m68df3eb12b" style="stroke:#000000;stroke-width:0.8;"/>
      </defs>
      <g>
       <use style="stroke:#000000;stroke-width:0.8;" x="108" xlink:href="#m68df3eb12b" y="453.6"/>
      </g>
     </g>
     <g id="text_1">
      <!-- 0 -->
      <defs>
       <path d="M 31.78125 66.40625 
Q 24.171875 66.40625 20.328125 58.90625 
Q 16.5 51.421875 16.5 36.375 
Q 16.5 21.390625 20.328125 13.890625 
Q 24.171875 6.390625 31.78125 6.390625 
Q 39.453125 6.390625 43.28125 13.890625 
Q 47.125 21.390625 47.125 36.375 
Q 47.125 51.421875 43.28125 58.90625 
Q 39.453125 66.40625 31.78125 66.40625 
z
M 31.78125 74.21875 
Q 44.046875 74.21875 50.515625 64.515625 
Q 56.984375 54.828125 56.984375 36.375 
Q 56.984375 17.96875 50.515625 8.265625 
Q 44.046875 -1.421875 31.78125 -1.421875 
Q 19.53125 -1.421875 13.0625 8.265625 
Q 6.59375 17.96875 6.59375 36.375 
Q 6.59375 54.828125 13.0625 64.515625 
Q 19.53125 74.21875 31.78125 74.21875 
z
" id="DejaVuSans-48"/>
      </defs>
      <g transform="translate(104.81875 468.198438)scale(0.1 -0.1)">
       <use xlink:href="#DejaVuSans-48"/>
      </g>
     </g>
    </g>
    <g id="xtick_2">
     <g id="line2d_2">
      <g>
       <use style="stroke:#000000;stroke-width:0.8;" x="224.363636" xlink:href="#m68df3eb12b" y="453.6"/>
      </g>
     </g>
     <g id="text_2">
      <!-- 20 -->
      <defs>
       <path d="M 19.1875 8.296875 
L 53.609375 8.296875 
L 53.609375 0 
L 7.328125 0 
L 7.328125 8.296875 
Q 12.9375 14.109375 22.625 23.890625 
Q 32.328125 33.6875 34.8125 36.53125 
Q 39.546875 41.84375 41.421875 45.53125 
Q 43.3125 49.21875 43.3125 52.78125 
Q 43.3125 58.59375 39.234375 62.25 
Q 35.15625 65.921875 28.609375 65.921875 
Q 23.96875 65.921875 18.8125 64.3125 
Q 13.671875 62.703125 7.8125 59.421875 
L 7.8125 69.390625 
Q 13.765625 71.78125 18.9375 73 
Q 24.125 74.21875 28.421875 74.21875 
Q 39.75 74.21875 46.484375 68.546875 
Q 53.21875 62.890625 53.21875 53.421875 
Q 53.21875 48.921875 51.53125 44.890625 
Q 49.859375 40.875 45.40625 35.40625 
Q 44.1875 33.984375 37.640625 27.21875 
Q 31.109375 20.453125 19.1875 8.296875 
z
" id="DejaVuSans-50"/>
      </defs>
      <g transform="translate(218.001136 468.198438)scale(0.1 -0.1)">
       <use xlink:href="#DejaVuSans-50"/>
       <use x="63.623047" xlink:href="#DejaVuSans-48"/>
      </g>
     </g>
    </g>
    <g id="xtick_3">
     <g id="line2d_3">
      <g>
       <use style="stroke:#000000;stroke-width:0.8;" x="340.727273" xlink:href="#m68df3eb12b" y="453.6"/>
      </g>
     </g>
     <g id="text_3">
      <!-- 40 -->
      <defs>
       <path d="M 37.796875 64.3125 
L 12.890625 25.390625 
L 37.796875 25.390625 
z
M 35.203125 72.90625 
L 47.609375 72.90625 
L 47.609375 25.390625 
L 58.015625 25.390625 
L 58.015625 17.1875 
L 47.609375 17.1875 
L 47.609375 0 
L 37.796875 0 
L 37.796875 17.1875 
L 4.890625 17.1875 
L 4.890625 26.703125 
z
" id="DejaVuSans-52"/>
      </defs>
      <g transform="translate(334.364773 468.198438)scale(0.1 -0.1)">
       <use xlink:href="#DejaVuSans-52"/>
       <use x="63.623047" xlink:href="#DejaVuSans-48"/>
      </g>
     </g>
    </g>
    <g id="xtick_4">
     <g id="line2d_4">
      <g>
       <use style="stroke:#000000;stroke-width:0.8;" x="457.090909" xlink:href="#m68df3eb12b" y="453.6"/>
      </g>
     </g>
     <g id="text_4">
      <!-- 60 -->
      <defs>
       <path d="M 33.015625 40.375 
Q 26.375 40.375 22.484375 35.828125 
Q 18.609375 31.296875 18.609375 23.390625 
Q 18.609375 15.53125 22.484375 10.953125 
Q 26.375 6.390625 33.015625 6.390625 
Q 39.65625 6.390625 43.53125 10.953125 
Q 47.40625 15.53125 47.40625 23.390625 
Q 47.40625 31.296875 43.53125 35.828125 
Q 39.65625 40.375 33.015625 40.375 
z
M 52.59375 71.296875 
L 52.59375 62.3125 
Q 48.875 64.0625 45.09375 64.984375 
Q 41.3125 65.921875 37.59375 65.921875 
Q 27.828125 65.921875 22.671875 59.328125 
Q 17.53125 52.734375 16.796875 39.40625 
Q 19.671875 43.65625 24.015625 45.921875 
Q 28.375 48.1875 33.59375 48.1875 
Q 44.578125 48.1875 50.953125 41.515625 
Q 57.328125 34.859375 57.328125 23.390625 
Q 57.328125 12.15625 50.6875 5.359375 
Q 44.046875 -1.421875 33.015625 -1.421875 
Q 20.359375 -1.421875 13.671875 8.265625 
Q 6.984375 17.96875 6.984375 36.375 
Q 6.984375 53.65625 15.1875 63.9375 
Q 23.390625 74.21875 37.203125 74.21875 
Q 40.921875 74.21875 44.703125 73.484375 
Q 48.484375 72.75 52.59375 71.296875 
z
" id="DejaVuSans-54"/>
      </defs>
      <g transform="translate(450.728409 468.198438)scale(0.1 -0.1)">
       <use xlink:href="#DejaVuSans-54"/>
       <use x="63.623047" xlink:href="#DejaVuSans-48"/>
      </g>
     </g>
    </g>
    <g id="xtick_5">
     <g id="line2d_5">
      <g>
       <use style="stroke:#000000;stroke-width:0.8;" x="573.454545" xlink:href="#m68df3eb12b" y="453.6"/>
      </g>
     </g>
     <g id="text_5">
      <!-- 80 -->
      <defs>
       <path d="M 31.78125 34.625 
Q 24.75 34.625 20.71875 30.859375 
Q 16.703125 27.09375 16.703125 20.515625 
Q 16.703125 13.921875 20.71875 10.15625 
Q 24.75 6.390625 31.78125 6.390625 
Q 38.8125 6.390625 42.859375 10.171875 
Q 46.921875 13.96875 46.921875 20.515625 
Q 46.921875 27.09375 42.890625 30.859375 
Q 38.875 34.625 31.78125 34.625 
z
M 21.921875 38.8125 
Q 15.578125 40.375 12.03125 44.71875 
Q 8.5 49.078125 8.5 55.328125 
Q 8.5 64.0625 14.71875 69.140625 
Q 20.953125 74.21875 31.78125 74.21875 
Q 42.671875 74.21875 48.875 69.140625 
Q 55.078125 64.0625 55.078125 55.328125 
Q 55.078125 49.078125 51.53125 44.71875 
Q 48 40.375 41.703125 38.8125 
Q 48.828125 37.15625 52.796875 32.3125 
Q 56.78125 27.484375 56.78125 20.515625 
Q 56.78125 9.90625 50.3125 4.234375 
Q 43.84375 -1.421875 31.78125 -1.421875 
Q 19.734375 -1.421875 13.25 4.234375 
Q 6.78125 9.90625 6.78125 20.515625 
Q 6.78125 27.484375 10.78125 32.3125 
Q 14.796875 37.15625 21.921875 38.8125 
z
M 18.3125 54.390625 
Q 18.3125 48.734375 21.84375 45.5625 
Q 25.390625 42.390625 31.78125 42.390625 
Q 38.140625 42.390625 41.71875 45.5625 
Q 45.3125 48.734375 45.3125 54.390625 
Q 45.3125 60.0625 41.71875 63.234375 
Q 38.140625 66.40625 31.78125 66.40625 
Q 25.390625 66.40625 21.84375 63.234375 
Q 18.3125 60.0625 18.3125 54.390625 
z
" id="DejaVuSans-56"/>
      </defs>
      <g transform="translate(567.092045 468.198438)scale(0.1 -0.1)">
       <use xlink:href="#DejaVuSans-56"/>
       <use x="63.623047" xlink:href="#DejaVuSans-48"/>
      </g>
     </g>
    </g>
    <g id="xtick_6">
     <g id="line2d_6">
      <g>
       <use style="stroke:#000000;stroke-width:0.8;" x="689.818182" xlink:href="#m68df3eb12b" y="453.6"/>
      </g>
     </g>
     <g id="text_6">
      <!-- 100 -->
      <defs>
       <path d="M 12.40625 8.296875 
L 28.515625 8.296875 
L 28.515625 63.921875 
L 10.984375 60.40625 
L 10.984375 69.390625 
L 28.421875 72.90625 
L 38.28125 72.90625 
L 38.28125 8.296875 
L 54.390625 8.296875 
L 54.390625 0 
L 12.40625 0 
z
" id="DejaVuSans-49"/>
      </defs>
      <g transform="translate(680.274432 468.198438)scale(0.1 -0.1)">
       <use xlink:href="#DejaVuSans-49"/>
       <use x="63.623047" xlink:href="#DejaVuSans-48"/>
       <use x="127.246094" xlink:href="#DejaVuSans-48"/>
      </g>
     </g>
    </g>
   </g>
   <g id="matplotlib.axis_2">
    <g id="ytick_1">
     <g id="line2d_7">
      <defs>
       <path d="M 0 0 
L -3.5 0 
" id="mb679fb23ec" style="stroke:#000000;stroke-width:0.8;"/>
      </defs>
      <g>
       <use style="stroke:#000000;stroke-width:0.8;" x="79.2" xlink:href="#mb679fb23ec" y="453.6"/>
      </g>
     </g>
     <g id="text_7">
      <!-- 0.0 -->
      <defs>
       <path d="M 10.6875 12.40625 
L 21 12.40625 
L 21 0 
L 10.6875 0 
z
" id="DejaVuSans-46"/>
      </defs>
      <g transform="translate(56.296875 457.399219)scale(0.1 -0.1)">
       <use xlink:href="#DejaVuSans-48"/>
       <use x="63.623047" xlink:href="#DejaVuSans-46"/>
       <use x="95.410156" xlink:href="#DejaVuSans-48"/>
      </g>
     </g>
    </g>
    <g id="ytick_2">
     <g id="line2d_8">
      <g>
       <use style="stroke:#000000;stroke-width:0.8;" x="79.2" xlink:href="#mb679fb23ec" y="372.96"/>
      </g>
     </g>
     <g id="text_8">
      <!-- 0.2 -->
      <g transform="translate(56.296875 376.759219)scale(0.1 -0.1)">
       <use xlink:href="#DejaVuSans-48"/>
       <use x="63.623047" xlink:href="#DejaVuSans-46"/>
       <use x="95.410156" xlink:href="#DejaVuSans-50"/>
      </g>
     </g>
    </g>
    <g id="ytick_3">
     <g id="line2d_9">
      <g>
       <use style="stroke:#000000;stroke-width:0.8;" x="79.2" xlink:href="#mb679fb23ec" y="292.32"/>
      </g>
     </g>
     <g id="text_9">
      <!-- 0.4 -->
      <g transform="translate(56.296875 296.119219)scale(0.1 -0.1)">
       <use xlink:href="#DejaVuSans-48"/>
       <use x="63.623047" xlink:href="#DejaVuSans-46"/>
       <use x="95.410156" xlink:href="#DejaVuSans-52"/>
      </g>
     </g>
    </g>
    <g id="ytick_4">
     <g id="line2d_10">
      <g>
       <use style="stroke:#000000;stroke-width:0.8;" x="79.2" xlink:href="#mb679fb23ec" y="211.68"/>
      </g>
     </g>
     <g id="text_10">
      <!-- 0.6 -->
      <g transform="translate(56.296875 215.479219)scale(0.1 -0.1)">
       <use xlink:href="#DejaVuSans-48"/>
       <use x="63.623047" xlink:href="#DejaVuSans-46"/>
       <use x="95.410156" xlink:href="#DejaVuSans-54"/>
      </g>
     </g>
    </g>
    <g id="ytick_5">
     <g id="line2d_11">
      <g>
       <use style="stroke:#000000;stroke-width:0.8;" x="79.2" xlink:href="#mb679fb23ec" y="131.04"/>
      </g>
     </g>
     <g id="text_11">
      <!-- 0.8 -->
      <g transform="translate(56.296875 134.839219)scale(0.1 -0.1)">
       <use xlink:href="#DejaVuSans-48"/>
       <use x="63.623047" xlink:href="#DejaVuSans-46"/>
       <use x="95.410156" xlink:href="#DejaVuSans-56"/>
      </g>
     </g>
    </g>
    <g id="ytick_6">
     <g id="line2d_12">
      <g>
       <use style="stroke:#000000;stroke-width:0.8;" x="79.2" xlink:href="#mb679fb23ec" y="50.4"/>
      </g>
     </g>
     <g id="text_12">
      <!-- 1.0 -->
      <g transform="translate(56.296875 54.199219)scale(0.1 -0.1)">
       <use xlink:href="#DejaVuSans-49"/>
       <use x="63.623047" xlink:href="#DejaVuSans-46"/>
       <use x="95.410156" xlink:href="#DejaVuSans-48"/>
      </g>
     </g>
    </g>
   </g>
   <g id="line2d_13">
    <path clip-path="url(#p7c2c29e664)" d="M 108 432.484525 
L 113.818182 431.540579 
L 119.636364 430.519004 
L 125.454545 429.404388 
L 131.272727 428.183679 
L 137.090909 426.841713 
L 142.909091 425.360447 
L 148.727273 423.718242 
L 154.545455 421.888972 
L 160.363636 419.840856 
L 166.181818 417.534929 
L 172 414.923029 
L 177.818182 411.945122 
L 183.636364 408.52571 
L 189.454545 404.569012 
L 195.272727 399.952467 
L 201.090909 394.51801 
L 206.909091 388.060496 
L 212.727273 380.312811 
L 218.545455 370.927932 
L 224.363636 359.460553 
L 230.181818 345.356882 
L 236 327.974526 
L 241.818182 306.679175 
L 247.636364 281.094127 
L 253.454545 251.560845 
L 259.272727 219.670589 
L 265.090909 188.306752 
L 270.909091 160.599342 
L 276.727273 138.366304 
L 282.545455 121.58797 
L 288.363636 109.177355 
L 294.181818 99.904625 
L 300 92.809828 
L 305.818182 87.238112 
L 311.636364 82.758546 
L 317.454545 79.084871 
L 323.272727 76.02184 
L 329.090909 73.432283 
L 334.909091 71.217142 
L 340.727273 69.303127 
L 346.545455 67.634858 
L 352.363636 66.169715 
L 358.181818 64.874364 
L 364 63.72236 
L 369.818182 62.692456 
L 375.636364 61.767384 
L 381.454545 60.932965 
L 387.272727 60.177452 
L 393.090909 59.491024 
L 398.909091 58.86541 
L 404.727273 58.293595 
L 410.545455 57.769589 
L 416.363636 57.288246 
L 422.181818 56.845122 
L 428 56.436356 
L 433.818182 56.058582 
L 439.636364 55.708847 
L 445.454545 55.384553 
L 451.272727 55.083405 
L 457.090909 54.803367 
L 462.909091 54.542625 
L 468.727273 54.299561 
L 474.545455 54.072725 
L 480.363636 53.860814 
L 486.181818 53.662655 
L 492 53.477187 
L 497.818182 53.303452 
L 503.636364 53.140577 
L 509.454545 52.98777 
L 515.272727 52.844309 
L 521.090909 52.709534 
L 526.909091 52.58284 
L 532.727273 52.463676 
L 538.545455 52.351531 
L 544.363636 52.245939 
L 550.181818 52.146469 
L 556 52.052723 
L 561.818182 51.964334 
L 567.636364 51.880962 
L 573.454545 51.802293 
L 579.272727 51.728035 
L 585.090909 51.657915 
L 590.909091 51.591684 
L 596.727273 51.529106 
L 602.545455 51.469962 
L 608.363636 51.41405 
L 614.181818 51.361178 
L 620 51.31117 
L 625.818182 51.26386 
L 631.636364 51.219092 
L 637.454545 51.176722 
L 643.272727 51.136613 
L 649.090909 51.098637 
L 654.909091 51.062675 
L 660.727273 51.028614 
L 666.545455 50.996349 
L 672.363636 50.965781 
L 678.181818 50.936816 
L 684 50.909366 
" style="fill:none;stroke:#1f77b4;stroke-linecap:square;stroke-width:1.5;"/>
   </g>
   <g id="line2d_14">
    <path clip-path="url(#p7c2c29e664)" d="M 108 432.484525 
L 113.818182 431.649369 
L 119.636364 430.756938 
L 125.454545 429.791032 
L 131.272727 428.742071 
L 137.090909 427.599332 
L 142.909091 426.350266 
L 148.727273 424.980078 
L 154.545455 423.471223 
L 160.363636 421.802765 
L 166.181818 419.949559 
L 172 417.881199 
L 177.818182 415.560643 
L 183.636364 412.942433 
L 189.454545 409.970345 
L 195.272727 406.574283 
L 201.090909 402.666167 
L 206.909091 398.134476 
L 212.727273 392.837044 
L 218.545455 386.591692 
L 224.363636 379.164424 
L 230.181818 370.255528 
L 236 359.48568 
L 241.818182 346.388326 
L 247.636364 330.423664 
L 253.454545 311.04589 
L 259.272727 287.875958 
L 265.090909 261.029555 
L 270.909091 231.546831 
L 276.727273 201.600212 
L 282.545455 173.970609 
L 288.363636 150.827644 
L 294.181818 132.841918 
L 300 119.402376 
L 305.818182 109.413828 
L 311.636364 101.869174 
L 317.454545 96.027573 
L 323.272727 91.388684 
L 329.090909 87.620854 
L 334.909091 84.501298 
L 340.727273 81.876479 
L 346.545455 79.637588 
L 352.363636 77.705477 
L 358.181818 76.021232 
L 364 74.540101 
L 369.818182 73.227485 
L 375.636364 72.056217 
L 381.454545 71.004665 
L 387.272727 70.055396 
L 393.090909 69.194204 
L 398.909091 68.409393 
L 404.727273 67.69125 
L 410.545455 67.031643 
L 416.363636 66.423708 
L 422.181818 65.861615 
L 428 65.340376 
L 433.818182 64.855704 
L 439.636364 64.40389 
L 445.454545 63.98171 
L 451.272727 63.586349 
L 457.090909 63.215336 
L 462.909091 62.866496 
L 468.727273 62.537904 
L 474.545455 62.227853 
L 480.363636 61.934821 
L 486.181818 61.65745 
L 492 61.39452 
L 497.818182 61.144938 
L 503.636364 60.907715 
L 509.454545 60.681959 
L 515.272727 60.466863 
L 521.090909 60.261691 
L 526.909091 60.065777 
L 532.727273 59.878509 
L 538.545455 59.699331 
L 544.363636 59.527732 
L 550.181818 59.363244 
L 556 59.205437 
L 561.818182 59.053914 
L 567.636364 58.90831 
L 573.454545 58.768286 
L 579.272727 58.633529 
L 585.090909 58.50375 
L 590.909091 58.378681 
L 596.727273 58.258071 
L 602.545455 58.141688 
L 608.363636 58.029314 
L 614.181818 57.920749 
L 620 57.815804 
L 625.818182 57.714301 
L 631.636364 57.616076 
L 637.454545 57.520974 
L 643.272727 57.428849 
L 649.090909 57.339566 
L 654.909091 57.252997 
L 660.727273 57.16902 
L 666.545455 57.087523 
L 672.363636 57.008398 
L 678.181818 56.931544 
L 684 56.856866 
" style="fill:none;stroke:#ff7f0e;stroke-linecap:square;stroke-width:1.5;"/>
   </g>
   <g id="line2d_15">
    <path clip-path="url(#p7c2c29e664)" d="M 108 432.484525 
L 113.818182 431.758273 
L 119.636364 430.991907 
L 125.454545 430.168971 
L 131.272727 429.28266 
L 137.090909 428.325656 
L 142.909091 427.289532 
L 148.727273 426.164523 
L 154.545455 424.939249 
L 160.363636 423.60039 
L 166.181818 422.132268 
L 172 420.516324 
L 177.818182 418.730458 
L 183.636364 416.748195 
L 189.454545 414.537609 
L 195.272727 412.059938 
L 201.090909 409.267798 
L 206.909091 406.10285 
L 212.727273 402.492764 
L 218.545455 398.347245 
L 224.363636 393.552876 
L 230.181818 387.966478 
L 236 381.406786 
L 241.818182 373.644499 
L 247.636364 364.391626 
L 253.454545 353.292999 
L 259.272727 339.927125 
L 265.090909 323.831712 
L 270.909091 304.581997 
L 276.727273 281.961136 
L 282.545455 256.244761 
L 288.363636 228.520698 
L 294.181818 200.766767 
L 300 175.345829 
L 305.818182 154.041704 
L 311.636364 137.406896 
L 317.454545 124.936485 
L 323.272727 115.68727 
L 329.090909 108.75457 
L 334.909091 103.448203 
L 340.727273 99.290274 
L 346.545455 95.960079 
L 352.363636 93.241677 
L 358.181818 90.986782 
L 364 89.090957 
L 369.818182 87.478744 
L 375.636364 86.094331 
L 381.454545 84.895564 
L 387.272727 83.850014 
L 393.090909 82.932328 
L 398.909091 82.122395 
L 404.727273 81.40406 
L 410.545455 80.764195 
L 416.363636 80.192023 
L 422.181818 79.678611 
L 428 79.216495 
L 433.818182 78.799386 
L 439.636364 78.421952 
L 445.454545 78.07964 
L 451.272727 77.768539 
L 457.090909 77.485271 
L 462.909091 77.226904 
L 468.727273 76.990881 
L 474.545455 76.774963 
L 480.363636 76.577178 
L 486.181818 76.395787 
L 492 76.22925 
L 497.818182 76.076194 
L 503.636364 75.9354 
L 509.454545 75.805775 
L 515.272727 75.686338 
L 521.090909 75.57621 
L 526.909091 75.474598 
L 532.727273 75.380785 
L 538.545455 75.294124 
L 544.363636 75.214028 
L 550.181818 75.139963 
L 556 75.071444 
L 561.818182 75.008031 
L 567.636364 74.94932 
L 573.454545 74.894942 
L 579.272727 74.844563 
L 585.090909 74.797873 
L 590.909091 74.75459 
L 596.727273 74.714455 
L 602.545455 74.67723 
L 608.363636 74.642697 
L 614.181818 74.610653 
L 620 74.580914 
L 625.818182 74.553309 
L 631.636364 74.527681 
L 637.454545 74.503884 
L 643.272727 74.481784 
L 649.090909 74.461257 
L 654.909091 74.44219 
L 660.727273 74.424477 
L 666.545455 74.408018 
L 672.363636 74.392725 
L 678.181818 74.378513 
L 684 74.365305 
" style="fill:none;stroke:#2ca02c;stroke-linecap:square;stroke-width:1.5;"/>
   </g>
   <g id="line2d_16">
    <path clip-path="url(#p7c2c29e664)" d="M 108 432.484525 
L 113.818182 431.86729 
L 119.636364 431.223894 
L 125.454545 430.538329 
L 131.272727 429.80597 
L 137.090909 429.022044 
L 142.909091 428.181142 
L 148.727273 427.2771 
L 154.545455 426.302862 
L 160.363636 425.250321 
L 166.181818 424.110123 
L 172 422.871424 
L 177.818182 421.521595 
L 183.636364 420.045858 
L 189.454545 418.42683 
L 195.272727 416.643948 
L 201.090909 414.672761 
L 206.909091 412.48401 
L 212.727273 410.042484 
L 218.545455 407.305537 
L 224.363636 404.221198 
L 230.181818 400.72574 
L 236 396.740562 
L 241.818182 392.168206 
L 247.636364 386.887331 
L 253.454545 380.746533 
L 259.272727 373.557096 
L 265.090909 365.085303 
L 270.909091 355.046184 
L 276.727273 343.103071 
L 282.545455 328.882116 
L 288.363636 312.018396 
L 294.181818 292.258393 
L 300 269.641247 
L 305.818182 244.740817 
L 311.636364 218.844064 
L 317.454545 193.825881 
L 323.272727 171.581073 
L 329.090909 153.305077 
L 334.909091 139.184854 
L 340.727273 128.664352 
L 346.545455 120.919484 
L 352.363636 115.185941 
L 358.181818 110.876424 
L 364 107.576867 
L 369.818182 105.004608 
L 375.636364 102.967062 
L 381.454545 101.331143 
L 387.272727 100.002905 
L 393.090909 98.914486 
L 398.909091 98.015774 
L 404.727273 97.269011 
L 410.545455 96.645244 
L 416.363636 96.121925 
L 422.181818 95.681263 
L 428 95.309049 
L 433.818182 94.993828 
L 439.636364 94.726281 
L 445.454545 94.498771 
L 451.272727 94.304996 
L 457.090909 94.139728 
L 462.909091 93.998611 
L 468.727273 93.877996 
L 474.545455 93.774816 
L 480.363636 93.686487 
L 486.181818 93.610824 
L 492 93.545978 
L 497.818182 93.490375 
L 503.636364 93.44268 
L 509.454545 93.401755 
L 515.272727 93.366628 
L 521.090909 93.336471 
L 526.909091 93.310574 
L 532.727273 93.288333 
L 538.545455 93.269227 
L 544.363636 93.252813 
L 550.181818 93.23871 
L 556 93.226592 
L 561.818182 93.216177 
L 567.636364 93.207226 
L 573.454545 93.199534 
L 579.272727 93.192921 
L 585.090909 93.187237 
L 590.909091 93.182351 
L 596.727273 93.178151 
L 602.545455 93.174541 
L 608.363636 93.171437 
L 614.181818 93.168768 
L 620 93.166474 
L 625.818182 93.164501 
L 631.636364 93.162805 
L 637.454545 93.161347 
L 643.272727 93.160094 
L 649.090909 93.159016 
L 654.909091 93.15809 
L 660.727273 93.157293 
L 666.545455 93.156608 
L 672.363636 93.156019 
L 678.181818 93.155513 
L 684 93.155077 
" style="fill:none;stroke:#d62728;stroke-linecap:square;stroke-width:1.5;"/>
   </g>
   <g id="line2d_17">
    <path clip-path="url(#p7c2c29e664)" d="M 108 432.484525 
L 113.818182 431.97642 
L 119.636364 431.452883 
L 125.454545 430.899232 
L 131.272727 430.312517 
L 137.090909 429.689806 
L 142.909091 429.027829 
L 148.727273 428.322922 
L 154.545455 427.570964 
L 160.363636 426.767305 
L 166.181818 425.906683 
L 172 424.983124 
L 177.818182 423.989819 
L 183.636364 422.918978 
L 189.454545 421.761657 
L 195.272727 420.507541 
L 201.090909 419.144685 
L 206.909091 417.659194 
L 212.727273 416.034828 
L 218.545455 414.252513 
L 224.363636 412.289736 
L 230.181818 410.119781 
L 236 407.710778 
L 241.818182 405.024503 
L 247.636364 402.014856 
L 253.454545 398.625952 
L 259.272727 394.789705 
L 265.090909 390.422809 
L 270.909091 385.423009 
L 276.727273 379.664618 
L 282.545455 372.99337 
L 288.363636 365.221097 
L 294.181818 356.121417 
L 300 345.429174 
L 305.818182 332.849017 
L 311.636364 318.082766 
L 317.454545 300.890235 
L 323.272727 281.199624 
L 329.090909 259.269265 
L 334.909091 235.854381 
L 340.727273 212.253569 
L 346.545455 190.081618 
L 352.363636 170.773658 
L 358.181818 155.110836 
L 364 143.102048 
L 369.818182 134.229924 
L 375.636364 127.794764 
L 381.454545 123.146106 
L 387.272727 119.771265 
L 393.090909 117.297998 
L 398.909091 115.465906 
L 404.727273 114.094813 
L 410.545455 113.059515 
L 416.363636 112.271961 
L 422.181818 111.669279 
L 428 111.205886 
L 433.818182 110.848265 
L 439.636364 110.571471 
L 445.454545 110.356752 
L 451.272727 110.189893 
L 457.090909 110.060049 
L 462.909091 109.9589 
L 468.727273 109.880039 
L 474.545455 109.818515 
L 480.363636 109.770492 
L 486.181818 109.732993 
L 492 109.703702 
L 497.818182 109.680818 
L 503.636364 109.662935 
L 509.454545 109.648959 
L 515.272727 109.638034 
L 521.090909 109.629494 
L 526.909091 109.622818 
L 532.727273 109.617598 
L 538.545455 109.613517 
L 544.363636 109.610327 
L 550.181818 109.607832 
L 556 109.605881 
L 561.818182 109.604356 
L 567.636364 109.603163 
L 573.454545 109.60223 
L 579.272727 109.601501 
L 585.090909 109.600931 
L 590.909091 109.600485 
L 596.727273 109.600136 
L 602.545455 109.599864 
L 608.363636 109.59965 
L 614.181818 109.599484 
L 620 109.599353 
L 625.818182 109.599251 
L 631.636364 109.599172 
L 637.454545 109.599109 
L 643.272727 109.599061 
L 649.090909 109.599022 
L 654.909091 109.598993 
L 660.727273 109.598969 
L 666.545455 109.598951 
L 672.363636 109.598937 
L 678.181818 109.598926 
L 684 109.598917 
" style="fill:none;stroke:#9467bd;stroke-linecap:square;stroke-width:1.5;"/>
   </g>
   <g id="line2d_18">
    <path clip-path="url(#p7c2c29e664)" d="M 108 432.484525 
L 113.818182 432.085664 
L 119.636364 431.678855 
L 125.454545 431.251807 
L 131.272727 430.802808 
L 137.090909 430.330202 
L 142.909091 429.832174 
L 148.727273 429.30672 
L 154.545455 428.751629 
L 160.363636 428.16445 
L 166.181818 427.542461 
L 172 426.882634 
L 177.818182 426.18159 
L 183.636364 425.435549 
L 189.454545 424.640268 
L 195.272727 423.790973 
L 201.090909 422.882277 
L 206.909091 421.908077 
L 212.727273 420.86144 
L 218.545455 419.734461 
L 224.363636 418.518092 
L 230.181818 417.201943 
L 236 415.774028 
L 241.818182 414.22047 
L 247.636364 412.525126 
L 253.454545 410.669143 
L 259.272727 408.630397 
L 265.090909 406.382809 
L 270.909091 403.895493 
L 276.727273 401.131699 
L 282.545455 398.047506 
L 288.363636 394.590196 
L 294.181818 390.696263 
L 300 386.288977 
L 305.818182 381.275488 
L 311.636364 375.543493 
L 317.454545 368.957652 
L 323.272727 361.356283 
L 329.090909 352.549428 
L 334.909091 342.320566 
L 340.727273 330.436007 
L 346.545455 316.668674 
L 352.363636 300.845597 
L 358.181818 282.928297 
L 364 263.125471 
L 369.818182 242.009003 
L 375.636364 220.559231 
L 381.454545 200.042965 
L 387.272727 181.699549 
L 393.090909 166.374451 
L 398.909091 154.327237 
L 404.727273 145.30815 
L 410.545455 138.7897 
L 416.363636 134.185468 
L 422.181818 130.976818 
L 428 128.756107 
L 433.818182 127.223379 
L 439.636364 126.165894 
L 445.454545 125.435691 
L 451.272727 124.930815 
L 457.090909 124.581243 
L 462.909091 124.33889 
L 468.727273 124.170686 
L 474.545455 124.053842 
L 480.363636 123.97262 
L 486.181818 123.916129 
L 492 123.876825 
L 497.818182 123.84947 
L 503.636364 123.830427 
L 509.454545 123.817169 
L 515.272727 123.807938 
L 521.090909 123.80151 
L 526.909091 123.797033 
L 532.727273 123.793915 
L 538.545455 123.791744 
L 544.363636 123.790231 
L 550.181818 123.789178 
L 556 123.788445 
L 561.818182 123.787934 
L 567.636364 123.787578 
L 573.454545 123.78733 
L 579.272727 123.787158 
L 585.090909 123.787037 
L 590.909091 123.786954 
L 596.727273 123.786895 
L 602.545455 123.786855 
L 608.363636 123.786826 
L 614.181818 123.786807 
L 620 123.786793 
L 625.818182 123.786783 
L 631.636364 123.786777 
L 637.454545 123.786772 
L 643.272727 123.786769 
L 649.090909 123.786767 
L 654.909091 123.786765 
L 660.727273 123.786764 
L 666.545455 123.786763 
L 672.363636 123.786763 
L 678.181818 123.786762 
L 684 123.786762 
" style="fill:none;stroke:#8c564b;stroke-linecap:square;stroke-width:1.5;"/>
   </g>
   <g id="line2d_19">
    <path clip-path="url(#p7c2c29e664)" d="M 108 432.484525 
L 113.818182 432.195022 
L 119.636364 431.901795 
L 125.454545 431.596185 
L 131.272727 431.277341 
L 137.090909 430.944444 
L 142.909091 430.596606 
L 148.727273 430.232866 
L 154.545455 429.852181 
L 160.363636 429.453416 
L 166.181818 429.035335 
L 172 428.59659 
L 177.818182 428.135708 
L 183.636364 427.651074 
L 189.454545 427.14092 
L 195.272727 426.603301 
L 201.090909 426.036073 
L 206.909091 425.436874 
L 212.727273 424.803088 
L 218.545455 424.131815 
L 224.363636 423.419835 
L 230.181818 422.663559 
L 236 421.858978 
L 241.818182 421.001604 
L 247.636364 420.086397 
L 253.454545 419.107678 
L 259.272727 418.059036 
L 265.090909 416.933203 
L 270.909091 415.721918 
L 276.727273 414.415757 
L 282.545455 413.003933 
L 288.363636 411.474052 
L 294.181818 409.811824 
L 300 408.000709 
L 305.818182 406.021486 
L 311.636364 403.851735 
L 317.454545 401.465198 
L 323.272727 398.831007 
L 329.090909 395.912737 
L 334.909091 392.667267 
L 340.727273 389.043391 
L 346.545455 384.980183 
L 352.363636 380.40507 
L 358.181818 375.231677 
L 364 369.35754 
L 369.818182 362.661996 
L 375.636364 355.004834 
L 381.454545 346.226862 
L 387.272727 336.154372 
L 393.090909 324.610767 
L 398.909091 311.440042 
L 404.727273 296.547705 
L 410.545455 279.962776 
L 416.363636 261.915996 
L 422.181818 242.910761 
L 428 223.739252 
L 433.818182 205.390016 
L 439.636364 188.837853 
L 445.454545 174.795916 
L 451.272727 163.561658 
L 457.090909 155.029413 
L 462.909091 148.826543 
L 468.727273 144.474621 
L 474.545455 141.507281 
L 480.363636 139.529967 
L 486.181818 138.236671 
L 492 137.40352 
L 497.818182 136.87343 
L 503.636364 136.539579 
L 509.454545 136.331059 
L 515.272727 136.2017 
L 521.090909 136.121889 
L 526.909091 136.072865 
L 532.727273 136.042861 
L 538.545455 136.024549 
L 544.363636 136.0134 
L 550.181818 136.006623 
L 556 136.002511 
L 561.818182 136.000018 
L 567.636364 135.998509 
L 573.454545 135.997596 
L 579.272727 135.997043 
L 585.090909 135.996709 
L 590.909091 135.996508 
L 596.727273 135.996386 
L 602.545455 135.996312 
L 608.363636 135.996268 
L 614.181818 135.996241 
L 620 135.996225 
L 625.818182 135.996215 
L 631.636364 135.996209 
L 637.454545 135.996206 
L 643.272727 135.996203 
L 649.090909 135.996202 
L 654.909091 135.996201 
L 660.727273 135.996201 
L 666.545455 135.996201 
L 672.363636 135.9962 
L 678.181818 135.9962 
L 684 135.9962 
" style="fill:none;stroke:#e377c2;stroke-linecap:square;stroke-width:1.5;"/>
   </g>
   <g id="line2d_20">
    <path clip-path="url(#p7c2c29e664)" d="M 108 432.484525 
L 113.818182 432.304494 
L 119.636364 432.121687 
L 125.454545 431.932497 
L 131.272727 431.736608 
L 137.090909 431.533695 
L 142.909091 431.323414 
L 148.727273 431.1054 
L 154.545455 430.87926 
L 160.363636 430.644578 
L 166.181818 430.400909 
L 172 430.147777 
L 177.818182 429.884672 
L 183.636364 429.611049 
L 189.454545 429.326323 
L 195.272727 429.029866 
L 201.090909 428.721002 
L 206.909091 428.399004 
L 212.727273 428.063088 
L 218.545455 427.71241 
L 224.363636 427.346055 
L 230.181818 426.963036 
L 236 426.562281 
L 241.818182 426.142627 
L 247.636364 425.702812 
L 253.454545 425.241459 
L 259.272727 424.757069 
L 265.090909 424.248004 
L 270.909091 423.712471 
L 276.727273 423.148505 
L 282.545455 422.553947 
L 288.363636 421.926423 
L 294.181818 421.263314 
L 300 420.561724 
L 305.818182 419.81845 
L 311.636364 419.029932 
L 317.454545 418.192213 
L 323.272727 417.300879 
L 329.090909 416.350991 
L 334.909091 415.337018 
L 340.727273 414.252737 
L 346.545455 413.091137 
L 352.363636 411.844291 
L 358.181818 410.50321 
L 364 409.05767 
L 369.818182 407.496009 
L 375.636364 405.804878 
L 381.454545 403.968949 
L 387.272727 401.970567 
L 393.090909 399.789328 
L 398.909091 397.401579 
L 404.727273 394.779816 
L 410.545455 391.891976 
L 416.363636 388.700586 
L 422.181818 385.161776 
L 428 381.224138 
L 433.818182 376.82745 
L 439.636364 371.901304 
L 445.454545 366.363773 
L 451.272727 360.120318 
L 457.090909 353.063388 
L 462.909091 345.073429 
L 468.727273 336.022518 
L 474.545455 325.782437 
L 480.363636 314.239719 
L 486.181818 301.320548 
L 492 287.027539 
L 497.818182 271.486879 
L 503.636364 254.996335 
L 509.454545 238.053053 
L 515.272727 221.331672 
L 521.090909 205.591845 
L 526.909091 191.528677 
L 532.727273 179.622958 
L 538.545455 170.059653 
L 544.363636 162.743926 
L 550.181818 157.387819 
L 556 153.615344 
L 561.818182 151.046791 
L 567.636364 149.348853 
L 573.454545 148.254866 
L 579.272727 147.565459 
L 585.090909 147.139197 
L 590.909091 146.879882 
L 596.727273 146.724284 
L 602.545455 146.632001 
L 608.363636 146.577804 
L 614.181818 146.546238 
L 620 146.527982 
L 625.818182 146.517487 
L 631.636364 146.511483 
L 637.454545 146.508064 
L 643.272727 146.506124 
L 649.090909 146.505027 
L 654.909091 146.504409 
L 660.727273 146.50406 
L 666.545455 146.503865 
L 672.363636 146.503756 
L 678.181818 146.503694 
L 684 146.50366 
" style="fill:none;stroke:#7f7f7f;stroke-linecap:square;stroke-width:1.5;"/>
   </g>
   <g id="line2d_21">
    <path clip-path="url(#p7c2c29e664)" d="M 108 432.484525 
L 113.818182 432.414081 
L 119.636364 432.338514 
L 125.454545 432.260878 
L 131.272727 432.181088 
L 137.090909 432.099072 
L 142.909091 432.014754 
L 148.727273 431.928054 
L 154.545455 431.83889 
L 160.363636 431.747175 
L 166.181818 431.652819 
L 172 431.555727 
L 177.818182 431.4558 
L 183.636364 431.352935 
L 189.454545 431.247023 
L 195.272727 431.137952 
L 201.090909 431.025602 
L 206.909091 430.90985 
L 212.727273 430.790564 
L 218.545455 430.667607 
L 224.363636 430.540836 
L 230.181818 430.410099 
L 236 430.275238 
L 241.818182 430.136084 
L 247.636364 429.992463 
L 253.454545 429.844189 
L 259.272727 429.691066 
L 265.090909 429.532888 
L 270.909091 429.369438 
L 276.727273 429.200486 
L 282.545455 429.025789 
L 288.363636 428.845091 
L 294.181818 428.658121 
L 300 428.464589 
L 305.818182 428.264192 
L 311.636364 428.056605 
L 317.454545 427.841486 
L 323.272727 427.618468 
L 329.090909 427.387163 
L 334.909091 427.147158 
L 340.727273 426.898012 
L 346.545455 426.639255 
L 352.363636 426.370386 
L 358.181818 426.090868 
L 364 425.800127 
L 369.818182 425.497549 
L 375.636364 425.182476 
L 381.454545 424.8542 
L 387.272727 424.511961 
L 393.090909 424.154943 
L 398.909091 423.782264 
L 404.727273 423.392975 
L 410.545455 422.98605 
L 416.363636 422.56038 
L 422.181818 422.114764 
L 428 421.647899 
L 433.818182 421.158369 
L 439.636364 420.644636 
L 445.454545 420.105023 
L 451.272727 419.537698 
L 457.090909 418.940662 
L 462.909091 418.311723 
L 468.727273 417.648478 
L 474.545455 416.948284 
L 480.363636 416.208233 
L 486.181818 415.425115 
L 492 414.595379 
L 497.818182 413.715093 
L 503.636364 412.779891 
L 509.454545 411.784912 
L 515.272727 410.724735 
L 521.090909 409.593298 
L 526.909091 408.383806 
L 532.727273 407.088625 
L 538.545455 405.699153 
L 544.363636 404.205677 
L 550.181818 402.597198 
L 556 400.861228 
L 561.818182 398.983555 
L 567.636364 396.947958 
L 573.454545 394.735886 
L 579.272727 392.326068 
L 585.090909 389.694071 
L 590.909091 386.811776 
L 596.727273 383.646789 
L 602.545455 380.161773 
L 608.363636 376.313709 
L 614.181818 372.053131 
L 620 367.323363 
L 625.818182 362.059896 
L 631.636364 356.190051 
L 637.454545 349.633264 
L 643.272727 342.302446 
L 649.090909 334.107137 
L 654.909091 324.959471 
L 660.727273 314.784212 
L 666.545455 303.534201 
L 672.363636 291.212052 
L 678.181818 277.897272 
L 684 263.774584 
" style="fill:none;stroke:#bcbd22;stroke-linecap:square;stroke-width:1.5;"/>
   </g>
   <g id="line2d_22">
    <path clip-path="url(#p7c2c29e664)" d="M 108 432.484525 
L 113.818182 432.523782 
L 119.636364 432.552262 
L 125.454545 432.581462 
L 131.272727 432.611253 
L 137.090909 432.641646 
L 142.909091 432.672651 
L 148.727273 432.704279 
L 154.545455 432.736541 
L 160.363636 432.769446 
L 166.181818 432.803007 
L 172 432.837234 
L 177.818182 432.872137 
L 183.636364 432.907729 
L 189.454545 432.944019 
L 195.272727 432.98102 
L 201.090909 433.018742 
L 206.909091 433.057197 
L 212.727273 433.096396 
L 218.545455 433.136351 
L 224.363636 433.177073 
L 230.181818 433.218574 
L 236 433.260865 
L 241.818182 433.303958 
L 247.636364 433.347865 
L 253.454545 433.392597 
L 259.272727 433.438165 
L 265.090909 433.484582 
L 270.909091 433.531859 
L 276.727273 433.580008 
L 282.545455 433.62904 
L 288.363636 433.678967 
L 294.181818 433.729801 
L 300 433.781552 
L 305.818182 433.834233 
L 311.636364 433.887854 
L 317.454545 433.942427 
L 323.272727 433.997963 
L 329.090909 434.054473 
L 334.909091 434.111967 
L 340.727273 434.170457 
L 346.545455 434.229953 
L 352.363636 434.290466 
L 358.181818 434.352006 
L 364 434.414582 
L 369.818182 434.478205 
L 375.636364 434.542884 
L 381.454545 434.608629 
L 387.272727 434.675449 
L 393.090909 434.743352 
L 398.909091 434.812347 
L 404.727273 434.882443 
L 410.545455 434.953647 
L 416.363636 435.025968 
L 422.181818 435.099411 
L 428 435.173984 
L 433.818182 435.249694 
L 439.636364 435.326546 
L 445.454545 435.404547 
L 451.272727 435.4837 
L 457.090909 435.564012 
L 462.909091 435.645486 
L 468.727273 435.728127 
L 474.545455 435.811936 
L 480.363636 435.896917 
L 486.181818 435.983072 
L 492 436.070402 
L 497.818182 436.158909 
L 503.636364 436.248593 
L 509.454545 436.339453 
L 515.272727 436.431488 
L 521.090909 436.524697 
L 526.909091 436.619077 
L 532.727273 436.714625 
L 538.545455 436.811339 
L 544.363636 436.909212 
L 550.181818 437.00824 
L 556 437.108417 
L 561.818182 437.209736 
L 567.636364 437.312189 
L 573.454545 437.415769 
L 579.272727 437.520465 
L 585.090909 437.626269 
L 590.909091 437.733168 
L 596.727273 437.841152 
L 602.545455 437.950208 
L 608.363636 438.060323 
L 614.181818 438.171481 
L 620 438.283669 
L 625.818182 438.39687 
L 631.636364 438.511067 
L 637.454545 438.626243 
L 643.272727 438.742379 
L 649.090909 438.859455 
L 654.909091 438.977451 
L 660.727273 439.096347 
L 666.545455 439.216119 
L 672.363636 439.336745 
L 678.181818 439.458202 
L 684 439.580465 
" style="fill:none;stroke:#17becf;stroke-linecap:square;stroke-width:1.5;"/>
   </g>
   <g id="line2d_23">
    <path clip-path="url(#p7c2c29e664)" d="M 108 432.484525 
L 113.818182 432.633597 
L 119.636364 432.762913 
L 125.454545 432.894388 
L 131.272727 433.027564 
L 137.090909 433.162441 
L 142.909091 433.29901 
L 148.727273 433.437259 
L 154.545455 433.577175 
L 160.363636 433.718743 
L 166.181818 433.861949 
L 172 434.006776 
L 177.818182 434.153204 
L 183.636364 434.301214 
L 189.454545 434.450784 
L 195.272727 434.60189 
L 201.090909 434.754509 
L 206.909091 434.908615 
L 212.727273 435.064178 
L 218.545455 435.221171 
L 224.363636 435.379563 
L 230.181818 435.53932 
L 236 435.70041 
L 241.818182 435.862797 
L 247.636364 436.026444 
L 253.454545 436.191312 
L 259.272727 436.357363 
L 265.090909 436.524554 
L 270.909091 436.692844 
L 276.727273 436.862187 
L 282.545455 437.03254 
L 288.363636 437.203854 
L 294.181818 437.376083 
L 300 437.549177 
L 305.818182 437.723085 
L 311.636364 437.897757 
L 317.454545 438.07314 
L 323.272727 438.249181 
L 329.090909 438.425824 
L 334.909091 438.603014 
L 340.727273 438.780697 
L 346.545455 438.958813 
L 352.363636 439.137307 
L 358.181818 439.316119 
L 364 439.495191 
L 369.818182 439.674464 
L 375.636364 439.853878 
L 381.454545 440.033372 
L 387.272727 440.212888 
L 393.090909 440.392365 
L 398.909091 440.571741 
L 404.727273 440.750957 
L 410.545455 440.929953 
L 416.363636 441.108669 
L 422.181818 441.287043 
L 428 441.465018 
L 433.818182 441.642534 
L 439.636364 441.819532 
L 445.454545 441.995954 
L 451.272727 442.171743 
L 457.090909 442.346842 
L 462.909091 442.521196 
L 468.727273 442.694749 
L 474.545455 442.867447 
L 480.363636 443.039238 
L 486.181818 443.210069 
L 492 443.379889 
L 497.818182 443.548649 
L 503.636364 443.716301 
L 509.454545 443.882797 
L 515.272727 444.048092 
L 521.090909 444.21214 
L 526.909091 444.374901 
L 532.727273 444.536331 
L 538.545455 444.696391 
L 544.363636 444.855042 
L 550.181818 445.012249 
L 556 445.167975 
L 561.818182 445.322187 
L 567.636364 445.474853 
L 573.454545 445.625943 
L 579.272727 445.775428 
L 585.090909 445.923281 
L 590.909091 446.069477 
L 596.727273 446.213992 
L 602.545455 446.356803 
L 608.363636 446.497892 
L 614.181818 446.637239 
L 620 446.774826 
L 625.818182 446.910639 
L 631.636364 447.044664 
L 637.454545 447.176889 
L 643.272727 447.307302 
L 649.090909 447.435895 
L 654.909091 447.562659 
L 660.727273 447.68759 
L 666.545455 447.810681 
L 672.363636 447.93193 
L 678.181818 448.051335 
L 684 448.168894 
" style="fill:none;stroke:#1f77b4;stroke-linecap:square;stroke-width:1.5;"/>
   </g>
   <g id="patch_3">
    <path d="M 79.2 453.6 
L 79.2 50.4 
" style="fill:none;stroke:#000000;stroke-linecap:square;stroke-linejoin:miter;stroke-width:0.8;"/>
   </g>
   <g id="patch_4">
    <path d="M 79.2 453.6 
L 712.8 453.6 
" style="fill:none;stroke:#000000;stroke-linecap:square;stroke-linejoin:miter;stroke-width:0.8;"/>
   </g>
   <g id="legend_1">
    <g id="patch_5">
     <path d="M 86.2 219.859375 
L 257.828125 219.859375 
Q 259.828125 219.859375 259.828125 217.859375 
L 259.828125 57.4 
Q 259.828125 55.4 257.828125 55.4 
L 86.2 55.4 
Q 84.2 55.4 84.2 57.4 
L 84.2 217.859375 
Q 84.2 219.859375 86.2 219.859375 
z
" style="fill:#ffffff;opacity:0.8;stroke:#cccccc;stroke-linejoin:miter;"/>
    </g>
    <g id="line2d_24">
     <path d="M 88.2 63.498437 
L 108.2 63.498437 
" style="fill:none;stroke:#1f77b4;stroke-linecap:square;stroke-width:1.5;"/>
    </g>
    <g id="line2d_25"/>
    <g id="text_13">
     <!-- female fecundity loss s=0.0 -->
     <defs>
      <path d="M 37.109375 75.984375 
L 37.109375 68.5 
L 28.515625 68.5 
Q 23.6875 68.5 21.796875 66.546875 
Q 19.921875 64.59375 19.921875 59.515625 
L 19.921875 54.6875 
L 34.71875 54.6875 
L 34.71875 47.703125 
L 19.921875 47.703125 
L 19.921875 0 
L 10.890625 0 
L 10.890625 47.703125 
L 2.296875 47.703125 
L 2.296875 54.6875 
L 10.890625 54.6875 
L 10.890625 58.5 
Q 10.890625 67.625 15.140625 71.796875 
Q 19.390625 75.984375 28.609375 75.984375 
z
" id="DejaVuSans-102"/>
      <path d="M 56.203125 29.59375 
L 56.203125 25.203125 
L 14.890625 25.203125 
Q 15.484375 15.921875 20.484375 11.0625 
Q 25.484375 6.203125 34.421875 6.203125 
Q 39.59375 6.203125 44.453125 7.46875 
Q 49.3125 8.734375 54.109375 11.28125 
L 54.109375 2.78125 
Q 49.265625 0.734375 44.1875 -0.34375 
Q 39.109375 -1.421875 33.890625 -1.421875 
Q 20.796875 -1.421875 13.15625 6.1875 
Q 5.515625 13.8125 5.515625 26.8125 
Q 5.515625 40.234375 12.765625 48.109375 
Q 20.015625 56 32.328125 56 
Q 43.359375 56 49.78125 48.890625 
Q 56.203125 41.796875 56.203125 29.59375 
z
M 47.21875 32.234375 
Q 47.125 39.59375 43.09375 43.984375 
Q 39.0625 48.390625 32.421875 48.390625 
Q 24.90625 48.390625 20.390625 44.140625 
Q 15.875 39.890625 15.1875 32.171875 
z
" id="DejaVuSans-101"/>
      <path d="M 52 44.1875 
Q 55.375 50.25 60.0625 53.125 
Q 64.75 56 71.09375 56 
Q 79.640625 56 84.28125 50.015625 
Q 88.921875 44.046875 88.921875 33.015625 
L 88.921875 0 
L 79.890625 0 
L 79.890625 32.71875 
Q 79.890625 40.578125 77.09375 44.375 
Q 74.3125 48.1875 68.609375 48.1875 
Q 61.625 48.1875 57.5625 43.546875 
Q 53.515625 38.921875 53.515625 30.90625 
L 53.515625 0 
L 44.484375 0 
L 44.484375 32.71875 
Q 44.484375 40.625 41.703125 44.40625 
Q 38.921875 48.1875 33.109375 48.1875 
Q 26.21875 48.1875 22.15625 43.53125 
Q 18.109375 38.875 18.109375 30.90625 
L 18.109375 0 
L 9.078125 0 
L 9.078125 54.6875 
L 18.109375 54.6875 
L 18.109375 46.1875 
Q 21.1875 51.21875 25.484375 53.609375 
Q 29.78125 56 35.6875 56 
Q 41.65625 56 45.828125 52.96875 
Q 50 49.953125 52 44.1875 
z
" id="DejaVuSans-109"/>
      <path d="M 34.28125 27.484375 
Q 23.390625 27.484375 19.1875 25 
Q 14.984375 22.515625 14.984375 16.5 
Q 14.984375 11.71875 18.140625 8.90625 
Q 21.296875 6.109375 26.703125 6.109375 
Q 34.1875 6.109375 38.703125 11.40625 
Q 43.21875 16.703125 43.21875 25.484375 
L 43.21875 27.484375 
z
M 52.203125 31.203125 
L 52.203125 0 
L 43.21875 0 
L 43.21875 8.296875 
Q 40.140625 3.328125 35.546875 0.953125 
Q 30.953125 -1.421875 24.3125 -1.421875 
Q 15.921875 -1.421875 10.953125 3.296875 
Q 6 8.015625 6 15.921875 
Q 6 25.140625 12.171875 29.828125 
Q 18.359375 34.515625 30.609375 34.515625 
L 43.21875 34.515625 
L 43.21875 35.40625 
Q 43.21875 41.609375 39.140625 45 
Q 35.0625 48.390625 27.6875 48.390625 
Q 23 48.390625 18.546875 47.265625 
Q 14.109375 46.140625 10.015625 43.890625 
L 10.015625 52.203125 
Q 14.9375 54.109375 19.578125 55.046875 
Q 24.21875 56 28.609375 56 
Q 40.484375 56 46.34375 49.84375 
Q 52.203125 43.703125 52.203125 31.203125 
z
" id="DejaVuSans-97"/>
      <path d="M 9.421875 75.984375 
L 18.40625 75.984375 
L 18.40625 0 
L 9.421875 0 
z
" id="DejaVuSans-108"/>
      <path id="DejaVuSans-32"/>
      <path d="M 48.78125 52.59375 
L 48.78125 44.1875 
Q 44.96875 46.296875 41.140625 47.34375 
Q 37.3125 48.390625 33.40625 48.390625 
Q 24.65625 48.390625 19.8125 42.84375 
Q 14.984375 37.3125 14.984375 27.296875 
Q 14.984375 17.28125 19.8125 11.734375 
Q 24.65625 6.203125 33.40625 6.203125 
Q 37.3125 6.203125 41.140625 7.25 
Q 44.96875 8.296875 48.78125 10.40625 
L 48.78125 2.09375 
Q 45.015625 0.34375 40.984375 -0.53125 
Q 36.96875 -1.421875 32.421875 -1.421875 
Q 20.0625 -1.421875 12.78125 6.34375 
Q 5.515625 14.109375 5.515625 27.296875 
Q 5.515625 40.671875 12.859375 48.328125 
Q 20.21875 56 33.015625 56 
Q 37.15625 56 41.109375 55.140625 
Q 45.0625 54.296875 48.78125 52.59375 
z
" id="DejaVuSans-99"/>
      <path d="M 8.5 21.578125 
L 8.5 54.6875 
L 17.484375 54.6875 
L 17.484375 21.921875 
Q 17.484375 14.15625 20.5 10.265625 
Q 23.53125 6.390625 29.59375 6.390625 
Q 36.859375 6.390625 41.078125 11.03125 
Q 45.3125 15.671875 45.3125 23.6875 
L 45.3125 54.6875 
L 54.296875 54.6875 
L 54.296875 0 
L 45.3125 0 
L 45.3125 8.40625 
Q 42.046875 3.421875 37.71875 1 
Q 33.40625 -1.421875 27.6875 -1.421875 
Q 18.265625 -1.421875 13.375 4.4375 
Q 8.5 10.296875 8.5 21.578125 
z
M 31.109375 56 
z
" id="DejaVuSans-117"/>
      <path d="M 54.890625 33.015625 
L 54.890625 0 
L 45.90625 0 
L 45.90625 32.71875 
Q 45.90625 40.484375 42.875 44.328125 
Q 39.84375 48.1875 33.796875 48.1875 
Q 26.515625 48.1875 22.3125 43.546875 
Q 18.109375 38.921875 18.109375 30.90625 
L 18.109375 0 
L 9.078125 0 
L 9.078125 54.6875 
L 18.109375 54.6875 
L 18.109375 46.1875 
Q 21.34375 51.125 25.703125 53.5625 
Q 30.078125 56 35.796875 56 
Q 45.21875 56 50.046875 50.171875 
Q 54.890625 44.34375 54.890625 33.015625 
z
" id="DejaVuSans-110"/>
      <path d="M 45.40625 46.390625 
L 45.40625 75.984375 
L 54.390625 75.984375 
L 54.390625 0 
L 45.40625 0 
L 45.40625 8.203125 
Q 42.578125 3.328125 38.25 0.953125 
Q 33.9375 -1.421875 27.875 -1.421875 
Q 17.96875 -1.421875 11.734375 6.484375 
Q 5.515625 14.40625 5.515625 27.296875 
Q 5.515625 40.1875 11.734375 48.09375 
Q 17.96875 56 27.875 56 
Q 33.9375 56 38.25 53.625 
Q 42.578125 51.265625 45.40625 46.390625 
z
M 14.796875 27.296875 
Q 14.796875 17.390625 18.875 11.75 
Q 22.953125 6.109375 30.078125 6.109375 
Q 37.203125 6.109375 41.296875 11.75 
Q 45.40625 17.390625 45.40625 27.296875 
Q 45.40625 37.203125 41.296875 42.84375 
Q 37.203125 48.484375 30.078125 48.484375 
Q 22.953125 48.484375 18.875 42.84375 
Q 14.796875 37.203125 14.796875 27.296875 
z
" id="DejaVuSans-100"/>
      <path d="M 9.421875 54.6875 
L 18.40625 54.6875 
L 18.40625 0 
L 9.421875 0 
z
M 9.421875 75.984375 
L 18.40625 75.984375 
L 18.40625 64.59375 
L 9.421875 64.59375 
z
" id="DejaVuSans-105"/>
      <path d="M 18.3125 70.21875 
L 18.3125 54.6875 
L 36.8125 54.6875 
L 36.8125 47.703125 
L 18.3125 47.703125 
L 18.3125 18.015625 
Q 18.3125 11.328125 20.140625 9.421875 
Q 21.96875 7.515625 27.59375 7.515625 
L 36.8125 7.515625 
L 36.8125 0 
L 27.59375 0 
Q 17.1875 0 13.234375 3.875 
Q 9.28125 7.765625 9.28125 18.015625 
L 9.28125 47.703125 
L 2.6875 47.703125 
L 2.6875 54.6875 
L 9.28125 54.6875 
L 9.28125 70.21875 
z
" id="DejaVuSans-116"/>
      <path d="M 32.171875 -5.078125 
Q 28.375 -14.84375 24.75 -17.8125 
Q 21.140625 -20.796875 15.09375 -20.796875 
L 7.90625 -20.796875 
L 7.90625 -13.28125 
L 13.1875 -13.28125 
Q 16.890625 -13.28125 18.9375 -11.515625 
Q 21 -9.765625 23.484375 -3.21875 
L 25.09375 0.875 
L 2.984375 54.6875 
L 12.5 54.6875 
L 29.59375 11.921875 
L 46.6875 54.6875 
L 56.203125 54.6875 
z
" id="DejaVuSans-121"/>
      <path d="M 30.609375 48.390625 
Q 23.390625 48.390625 19.1875 42.75 
Q 14.984375 37.109375 14.984375 27.296875 
Q 14.984375 17.484375 19.15625 11.84375 
Q 23.34375 6.203125 30.609375 6.203125 
Q 37.796875 6.203125 41.984375 11.859375 
Q 46.1875 17.53125 46.1875 27.296875 
Q 46.1875 37.015625 41.984375 42.703125 
Q 37.796875 48.390625 30.609375 48.390625 
z
M 30.609375 56 
Q 42.328125 56 49.015625 48.375 
Q 55.71875 40.765625 55.71875 27.296875 
Q 55.71875 13.875 49.015625 6.21875 
Q 42.328125 -1.421875 30.609375 -1.421875 
Q 18.84375 -1.421875 12.171875 6.21875 
Q 5.515625 13.875 5.515625 27.296875 
Q 5.515625 40.765625 12.171875 48.375 
Q 18.84375 56 30.609375 56 
z
" id="DejaVuSans-111"/>
      <path d="M 44.28125 53.078125 
L 44.28125 44.578125 
Q 40.484375 46.53125 36.375 47.5 
Q 32.28125 48.484375 27.875 48.484375 
Q 21.1875 48.484375 17.84375 46.4375 
Q 14.5 44.390625 14.5 40.28125 
Q 14.5 37.15625 16.890625 35.375 
Q 19.28125 33.59375 26.515625 31.984375 
L 29.59375 31.296875 
Q 39.15625 29.25 43.1875 25.515625 
Q 47.21875 21.78125 47.21875 15.09375 
Q 47.21875 7.46875 41.1875 3.015625 
Q 35.15625 -1.421875 24.609375 -1.421875 
Q 20.21875 -1.421875 15.453125 -0.5625 
Q 10.6875 0.296875 5.421875 2 
L 5.421875 11.28125 
Q 10.40625 8.6875 15.234375 7.390625 
Q 20.0625 6.109375 24.8125 6.109375 
Q 31.15625 6.109375 34.5625 8.28125 
Q 37.984375 10.453125 37.984375 14.40625 
Q 37.984375 18.0625 35.515625 20.015625 
Q 33.0625 21.96875 24.703125 23.78125 
L 21.578125 24.515625 
Q 13.234375 26.265625 9.515625 29.90625 
Q 5.8125 33.546875 5.8125 39.890625 
Q 5.8125 47.609375 11.28125 51.796875 
Q 16.75 56 26.8125 56 
Q 31.78125 56 36.171875 55.265625 
Q 40.578125 54.546875 44.28125 53.078125 
z
" id="DejaVuSans-115"/>
      <path d="M 10.59375 45.40625 
L 73.1875 45.40625 
L 73.1875 37.203125 
L 10.59375 37.203125 
z
M 10.59375 25.484375 
L 73.1875 25.484375 
L 73.1875 17.1875 
L 10.59375 17.1875 
z
" id="DejaVuSans-61"/>
     </defs>
     <g transform="translate(116.2 66.998437)scale(0.1 -0.1)">
      <use xlink:href="#DejaVuSans-102"/>
      <use x="35.205078" xlink:href="#DejaVuSans-101"/>
      <use x="96.728516" xlink:href="#DejaVuSans-109"/>
      <use x="194.140625" xlink:href="#DejaVuSans-97"/>
      <use x="255.419922" xlink:href="#DejaVuSans-108"/>
      <use x="283.203125" xlink:href="#DejaVuSans-101"/>
      <use x="344.726562" xlink:href="#DejaVuSans-32"/>
      <use x="376.513672" xlink:href="#DejaVuSans-102"/>
      <use x="411.71875" xlink:href="#DejaVuSans-101"/>
      <use x="473.242188" xlink:href="#DejaVuSans-99"/>
      <use x="528.222656" xlink:href="#DejaVuSans-117"/>
      <use x="591.601562" xlink:href="#DejaVuSans-110"/>
      <use x="654.980469" xlink:href="#DejaVuSans-100"/>
      <use x="718.457031" xlink:href="#DejaVuSans-105"/>
      <use x="746.240234" xlink:href="#DejaVuSans-116"/>
      <use x="785.449219" xlink:href="#DejaVuSans-121"/>
      <use x="844.628906" xlink:href="#DejaVuSans-32"/>
      <use x="876.416016" xlink:href="#DejaVuSans-108"/>
      <use x="904.199219" xlink:href="#DejaVuSans-111"/>
      <use x="965.380859" xlink:href="#DejaVuSans-115"/>
      <use x="1017.480469" xlink:href="#DejaVuSans-115"/>
      <use x="1069.580078" xlink:href="#DejaVuSans-32"/>
      <use x="1101.367188" xlink:href="#DejaVuSans-115"/>
      <use x="1153.466797" xlink:href="#DejaVuSans-61"/>
      <use x="1237.255859" xlink:href="#DejaVuSans-48"/>
      <use x="1300.878906" xlink:href="#DejaVuSans-46"/>
      <use x="1332.666016" xlink:href="#DejaVuSans-48"/>
     </g>
    </g>
    <g id="line2d_26">
     <path d="M 88.2 78.176562 
L 108.2 78.176562 
" style="fill:none;stroke:#ff7f0e;stroke-linecap:square;stroke-width:1.5;"/>
    </g>
    <g id="line2d_27"/>
    <g id="text_14">
     <!-- female fecundity loss s=0.1 -->
     <g transform="translate(116.2 81.676562)scale(0.1 -0.1)">
      <use xlink:href="#DejaVuSans-102"/>
      <use x="35.205078" xlink:href="#DejaVuSans-101"/>
      <use x="96.728516" xlink:href="#DejaVuSans-109"/>
      <use x="194.140625" xlink:href="#DejaVuSans-97"/>
      <use x="255.419922" xlink:href="#DejaVuSans-108"/>
      <use x="283.203125" xlink:href="#DejaVuSans-101"/>
      <use x="344.726562" xlink:href="#DejaVuSans-32"/>
      <use x="376.513672" xlink:href="#DejaVuSans-102"/>
      <use x="411.71875" xlink:href="#DejaVuSans-101"/>
      <use x="473.242188" xlink:href="#DejaVuSans-99"/>
      <use x="528.222656" xlink:href="#DejaVuSans-117"/>
      <use x="591.601562" xlink:href="#DejaVuSans-110"/>
      <use x="654.980469" xlink:href="#DejaVuSans-100"/>
      <use x="718.457031" xlink:href="#DejaVuSans-105"/>
      <use x="746.240234" xlink:href="#DejaVuSans-116"/>
      <use x="785.449219" xlink:href="#DejaVuSans-121"/>
      <use x="844.628906" xlink:href="#DejaVuSans-32"/>
      <use x="876.416016" xlink:href="#DejaVuSans-108"/>
      <use x="904.199219" xlink:href="#DejaVuSans-111"/>
      <use x="965.380859" xlink:href="#DejaVuSans-115"/>
      <use x="1017.480469" xlink:href="#DejaVuSans-115"/>
      <use x="1069.580078" xlink:href="#DejaVuSans-32"/>
      <use x="1101.367188" xlink:href="#DejaVuSans-115"/>
      <use x="1153.466797" xlink:href="#DejaVuSans-61"/>
      <use x="1237.255859" xlink:href="#DejaVuSans-48"/>
      <use x="1300.878906" xlink:href="#DejaVuSans-46"/>
      <use x="1332.666016" xlink:href="#DejaVuSans-49"/>
     </g>
    </g>
    <g id="line2d_28">
     <path d="M 88.2 92.854687 
L 108.2 92.854687 
" style="fill:none;stroke:#2ca02c;stroke-linecap:square;stroke-width:1.5;"/>
    </g>
    <g id="line2d_29"/>
    <g id="text_15">
     <!-- female fecundity loss s=0.2 -->
     <g transform="translate(116.2 96.354687)scale(0.1 -0.1)">
      <use xlink:href="#DejaVuSans-102"/>
      <use x="35.205078" xlink:href="#DejaVuSans-101"/>
      <use x="96.728516" xlink:href="#DejaVuSans-109"/>
      <use x="194.140625" xlink:href="#DejaVuSans-97"/>
      <use x="255.419922" xlink:href="#DejaVuSans-108"/>
      <use x="283.203125" xlink:href="#DejaVuSans-101"/>
      <use x="344.726562" xlink:href="#DejaVuSans-32"/>
      <use x="376.513672" xlink:href="#DejaVuSans-102"/>
      <use x="411.71875" xlink:href="#DejaVuSans-101"/>
      <use x="473.242188" xlink:href="#DejaVuSans-99"/>
      <use x="528.222656" xlink:href="#DejaVuSans-117"/>
      <use x="591.601562" xlink:href="#DejaVuSans-110"/>
      <use x="654.980469" xlink:href="#DejaVuSans-100"/>
      <use x="718.457031" xlink:href="#DejaVuSans-105"/>
      <use x="746.240234" xlink:href="#DejaVuSans-116"/>
      <use x="785.449219" xlink:href="#DejaVuSans-121"/>
      <use x="844.628906" xlink:href="#DejaVuSans-32"/>
      <use x="876.416016" xlink:href="#DejaVuSans-108"/>
      <use x="904.199219" xlink:href="#DejaVuSans-111"/>
      <use x="965.380859" xlink:href="#DejaVuSans-115"/>
      <use x="1017.480469" xlink:href="#DejaVuSans-115"/>
      <use x="1069.580078" xlink:href="#DejaVuSans-32"/>
      <use x="1101.367188" xlink:href="#DejaVuSans-115"/>
      <use x="1153.466797" xlink:href="#DejaVuSans-61"/>
      <use x="1237.255859" xlink:href="#DejaVuSans-48"/>
      <use x="1300.878906" xlink:href="#DejaVuSans-46"/>
      <use x="1332.666016" xlink:href="#DejaVuSans-50"/>
     </g>
    </g>
    <g id="line2d_30">
     <path d="M 88.2 107.532812 
L 108.2 107.532812 
" style="fill:none;stroke:#d62728;stroke-linecap:square;stroke-width:1.5;"/>
    </g>
    <g id="line2d_31"/>
    <g id="text_16">
     <!-- female fecundity loss s=0.3 -->
     <defs>
      <path d="M 40.578125 39.3125 
Q 47.65625 37.796875 51.625 33 
Q 55.609375 28.21875 55.609375 21.1875 
Q 55.609375 10.40625 48.1875 4.484375 
Q 40.765625 -1.421875 27.09375 -1.421875 
Q 22.515625 -1.421875 17.65625 -0.515625 
Q 12.796875 0.390625 7.625 2.203125 
L 7.625 11.71875 
Q 11.71875 9.328125 16.59375 8.109375 
Q 21.484375 6.890625 26.8125 6.890625 
Q 36.078125 6.890625 40.9375 10.546875 
Q 45.796875 14.203125 45.796875 21.1875 
Q 45.796875 27.640625 41.28125 31.265625 
Q 36.765625 34.90625 28.71875 34.90625 
L 20.21875 34.90625 
L 20.21875 43.015625 
L 29.109375 43.015625 
Q 36.375 43.015625 40.234375 45.921875 
Q 44.09375 48.828125 44.09375 54.296875 
Q 44.09375 59.90625 40.109375 62.90625 
Q 36.140625 65.921875 28.71875 65.921875 
Q 24.65625 65.921875 20.015625 65.03125 
Q 15.375 64.15625 9.8125 62.3125 
L 9.8125 71.09375 
Q 15.4375 72.65625 20.34375 73.4375 
Q 25.25 74.21875 29.59375 74.21875 
Q 40.828125 74.21875 47.359375 69.109375 
Q 53.90625 64.015625 53.90625 55.328125 
Q 53.90625 49.265625 50.4375 45.09375 
Q 46.96875 40.921875 40.578125 39.3125 
z
" id="DejaVuSans-51"/>
     </defs>
     <g transform="translate(116.2 111.032812)scale(0.1 -0.1)">
      <use xlink:href="#DejaVuSans-102"/>
      <use x="35.205078" xlink:href="#DejaVuSans-101"/>
      <use x="96.728516" xlink:href="#DejaVuSans-109"/>
      <use x="194.140625" xlink:href="#DejaVuSans-97"/>
      <use x="255.419922" xlink:href="#DejaVuSans-108"/>
      <use x="283.203125" xlink:href="#DejaVuSans-101"/>
      <use x="344.726562" xlink:href="#DejaVuSans-32"/>
      <use x="376.513672" xlink:href="#DejaVuSans-102"/>
      <use x="411.71875" xlink:href="#DejaVuSans-101"/>
      <use x="473.242188" xlink:href="#DejaVuSans-99"/>
      <use x="528.222656" xlink:href="#DejaVuSans-117"/>
      <use x="591.601562" xlink:href="#DejaVuSans-110"/>
      <use x="654.980469" xlink:href="#DejaVuSans-100"/>
      <use x="718.457031" xlink:href="#DejaVuSans-105"/>
      <use x="746.240234" xlink:href="#DejaVuSans-116"/>
      <use x="785.449219" xlink:href="#DejaVuSans-121"/>
      <use x="844.628906" xlink:href="#DejaVuSans-32"/>
      <use x="876.416016" xlink:href="#DejaVuSans-108"/>
      <use x="904.199219" xlink:href="#DejaVuSans-111"/>
      <use x="965.380859" xlink:href="#DejaVuSans-115"/>
      <use x="1017.480469" xlink:href="#DejaVuSans-115"/>
      <use x="1069.580078" xlink:href="#DejaVuSans-32"/>
      <use x="1101.367188" xlink:href="#DejaVuSans-115"/>
      <use x="1153.466797" xlink:href="#DejaVuSans-61"/>
      <use x="1237.255859" xlink:href="#DejaVuSans-48"/>
      <use x="1300.878906" xlink:href="#DejaVuSans-46"/>
      <use x="1332.666016" xlink:href="#DejaVuSans-51"/>
     </g>
    </g>
    <g id="line2d_32">
     <path d="M 88.2 122.210937 
L 108.2 122.210937 
" style="fill:none;stroke:#9467bd;stroke-linecap:square;stroke-width:1.5;"/>
    </g>
    <g id="line2d_33"/>
    <g id="text_17">
     <!-- female fecundity loss s=0.4 -->
     <g transform="translate(116.2 125.710937)scale(0.1 -0.1)">
      <use xlink:href="#DejaVuSans-102"/>
      <use x="35.205078" xlink:href="#DejaVuSans-101"/>
      <use x="96.728516" xlink:href="#DejaVuSans-109"/>
      <use x="194.140625" xlink:href="#DejaVuSans-97"/>
      <use x="255.419922" xlink:href="#DejaVuSans-108"/>
      <use x="283.203125" xlink:href="#DejaVuSans-101"/>
      <use x="344.726562" xlink:href="#DejaVuSans-32"/>
      <use x="376.513672" xlink:href="#DejaVuSans-102"/>
      <use x="411.71875" xlink:href="#DejaVuSans-101"/>
      <use x="473.242188" xlink:href="#DejaVuSans-99"/>
      <use x="528.222656" xlink:href="#DejaVuSans-117"/>
      <use x="591.601562" xlink:href="#DejaVuSans-110"/>
      <use x="654.980469" xlink:href="#DejaVuSans-100"/>
      <use x="718.457031" xlink:href="#DejaVuSans-105"/>
      <use x="746.240234" xlink:href="#DejaVuSans-116"/>
      <use x="785.449219" xlink:href="#DejaVuSans-121"/>
      <use x="844.628906" xlink:href="#DejaVuSans-32"/>
      <use x="876.416016" xlink:href="#DejaVuSans-108"/>
      <use x="904.199219" xlink:href="#DejaVuSans-111"/>
      <use x="965.380859" xlink:href="#DejaVuSans-115"/>
      <use x="1017.480469" xlink:href="#DejaVuSans-115"/>
      <use x="1069.580078" xlink:href="#DejaVuSans-32"/>
      <use x="1101.367188" xlink:href="#DejaVuSans-115"/>
      <use x="1153.466797" xlink:href="#DejaVuSans-61"/>
      <use x="1237.255859" xlink:href="#DejaVuSans-48"/>
      <use x="1300.878906" xlink:href="#DejaVuSans-46"/>
      <use x="1332.666016" xlink:href="#DejaVuSans-52"/>
     </g>
    </g>
    <g id="line2d_34">
     <path d="M 88.2 136.889062 
L 108.2 136.889062 
" style="fill:none;stroke:#8c564b;stroke-linecap:square;stroke-width:1.5;"/>
    </g>
    <g id="line2d_35"/>
    <g id="text_18">
     <!-- female fecundity loss s=0.5 -->
     <defs>
      <path d="M 10.796875 72.90625 
L 49.515625 72.90625 
L 49.515625 64.59375 
L 19.828125 64.59375 
L 19.828125 46.734375 
Q 21.96875 47.46875 24.109375 47.828125 
Q 26.265625 48.1875 28.421875 48.1875 
Q 40.625 48.1875 47.75 41.5 
Q 54.890625 34.8125 54.890625 23.390625 
Q 54.890625 11.625 47.5625 5.09375 
Q 40.234375 -1.421875 26.90625 -1.421875 
Q 22.3125 -1.421875 17.546875 -0.640625 
Q 12.796875 0.140625 7.71875 1.703125 
L 7.71875 11.625 
Q 12.109375 9.234375 16.796875 8.0625 
Q 21.484375 6.890625 26.703125 6.890625 
Q 35.15625 6.890625 40.078125 11.328125 
Q 45.015625 15.765625 45.015625 23.390625 
Q 45.015625 31 40.078125 35.4375 
Q 35.15625 39.890625 26.703125 39.890625 
Q 22.75 39.890625 18.8125 39.015625 
Q 14.890625 38.140625 10.796875 36.28125 
z
" id="DejaVuSans-53"/>
     </defs>
     <g transform="translate(116.2 140.389062)scale(0.1 -0.1)">
      <use xlink:href="#DejaVuSans-102"/>
      <use x="35.205078" xlink:href="#DejaVuSans-101"/>
      <use x="96.728516" xlink:href="#DejaVuSans-109"/>
      <use x="194.140625" xlink:href="#DejaVuSans-97"/>
      <use x="255.419922" xlink:href="#DejaVuSans-108"/>
      <use x="283.203125" xlink:href="#DejaVuSans-101"/>
      <use x="344.726562" xlink:href="#DejaVuSans-32"/>
      <use x="376.513672" xlink:href="#DejaVuSans-102"/>
      <use x="411.71875" xlink:href="#DejaVuSans-101"/>
      <use x="473.242188" xlink:href="#DejaVuSans-99"/>
      <use x="528.222656" xlink:href="#DejaVuSans-117"/>
      <use x="591.601562" xlink:href="#DejaVuSans-110"/>
      <use x="654.980469" xlink:href="#DejaVuSans-100"/>
      <use x="718.457031" xlink:href="#DejaVuSans-105"/>
      <use x="746.240234" xlink:href="#DejaVuSans-116"/>
      <use x="785.449219" xlink:href="#DejaVuSans-121"/>
      <use x="844.628906" xlink:href="#DejaVuSans-32"/>
      <use x="876.416016" xlink:href="#DejaVuSans-108"/>
      <use x="904.199219" xlink:href="#DejaVuSans-111"/>
      <use x="965.380859" xlink:href="#DejaVuSans-115"/>
      <use x="1017.480469" xlink:href="#DejaVuSans-115"/>
      <use x="1069.580078" xlink:href="#DejaVuSans-32"/>
      <use x="1101.367188" xlink:href="#DejaVuSans-115"/>
      <use x="1153.466797" xlink:href="#DejaVuSans-61"/>
      <use x="1237.255859" xlink:href="#DejaVuSans-48"/>
      <use x="1300.878906" xlink:href="#DejaVuSans-46"/>
      <use x="1332.666016" xlink:href="#DejaVuSans-53"/>
     </g>
    </g>
    <g id="line2d_36">
     <path d="M 88.2 151.567187 
L 108.2 151.567187 
" style="fill:none;stroke:#e377c2;stroke-linecap:square;stroke-width:1.5;"/>
    </g>
    <g id="line2d_37"/>
    <g id="text_19">
     <!-- female fecundity loss s=0.6 -->
     <g transform="translate(116.2 155.067187)scale(0.1 -0.1)">
      <use xlink:href="#DejaVuSans-102"/>
      <use x="35.205078" xlink:href="#DejaVuSans-101"/>
      <use x="96.728516" xlink:href="#DejaVuSans-109"/>
      <use x="194.140625" xlink:href="#DejaVuSans-97"/>
      <use x="255.419922" xlink:href="#DejaVuSans-108"/>
      <use x="283.203125" xlink:href="#DejaVuSans-101"/>
      <use x="344.726562" xlink:href="#DejaVuSans-32"/>
      <use x="376.513672" xlink:href="#DejaVuSans-102"/>
      <use x="411.71875" xlink:href="#DejaVuSans-101"/>
      <use x="473.242188" xlink:href="#DejaVuSans-99"/>
      <use x="528.222656" xlink:href="#DejaVuSans-117"/>
      <use x="591.601562" xlink:href="#DejaVuSans-110"/>
      <use x="654.980469" xlink:href="#DejaVuSans-100"/>
      <use x="718.457031" xlink:href="#DejaVuSans-105"/>
      <use x="746.240234" xlink:href="#DejaVuSans-116"/>
      <use x="785.449219" xlink:href="#DejaVuSans-121"/>
      <use x="844.628906" xlink:href="#DejaVuSans-32"/>
      <use x="876.416016" xlink:href="#DejaVuSans-108"/>
      <use x="904.199219" xlink:href="#DejaVuSans-111"/>
      <use x="965.380859" xlink:href="#DejaVuSans-115"/>
      <use x="1017.480469" xlink:href="#DejaVuSans-115"/>
      <use x="1069.580078" xlink:href="#DejaVuSans-32"/>
      <use x="1101.367188" xlink:href="#DejaVuSans-115"/>
      <use x="1153.466797" xlink:href="#DejaVuSans-61"/>
      <use x="1237.255859" xlink:href="#DejaVuSans-48"/>
      <use x="1300.878906" xlink:href="#DejaVuSans-46"/>
      <use x="1332.666016" xlink:href="#DejaVuSans-54"/>
     </g>
    </g>
    <g id="line2d_38">
     <path d="M 88.2 166.245312 
L 108.2 166.245312 
" style="fill:none;stroke:#7f7f7f;stroke-linecap:square;stroke-width:1.5;"/>
    </g>
    <g id="line2d_39"/>
    <g id="text_20">
     <!-- female fecundity loss s=0.7 -->
     <defs>
      <path d="M 8.203125 72.90625 
L 55.078125 72.90625 
L 55.078125 68.703125 
L 28.609375 0 
L 18.3125 0 
L 43.21875 64.59375 
L 8.203125 64.59375 
z
" id="DejaVuSans-55"/>
     </defs>
     <g transform="translate(116.2 169.745312)scale(0.1 -0.1)">
      <use xlink:href="#DejaVuSans-102"/>
      <use x="35.205078" xlink:href="#DejaVuSans-101"/>
      <use x="96.728516" xlink:href="#DejaVuSans-109"/>
      <use x="194.140625" xlink:href="#DejaVuSans-97"/>
      <use x="255.419922" xlink:href="#DejaVuSans-108"/>
      <use x="283.203125" xlink:href="#DejaVuSans-101"/>
      <use x="344.726562" xlink:href="#DejaVuSans-32"/>
      <use x="376.513672" xlink:href="#DejaVuSans-102"/>
      <use x="411.71875" xlink:href="#DejaVuSans-101"/>
      <use x="473.242188" xlink:href="#DejaVuSans-99"/>
      <use x="528.222656" xlink:href="#DejaVuSans-117"/>
      <use x="591.601562" xlink:href="#DejaVuSans-110"/>
      <use x="654.980469" xlink:href="#DejaVuSans-100"/>
      <use x="718.457031" xlink:href="#DejaVuSans-105"/>
      <use x="746.240234" xlink:href="#DejaVuSans-116"/>
      <use x="785.449219" xlink:href="#DejaVuSans-121"/>
      <use x="844.628906" xlink:href="#DejaVuSans-32"/>
      <use x="876.416016" xlink:href="#DejaVuSans-108"/>
      <use x="904.199219" xlink:href="#DejaVuSans-111"/>
      <use x="965.380859" xlink:href="#DejaVuSans-115"/>
      <use x="1017.480469" xlink:href="#DejaVuSans-115"/>
      <use x="1069.580078" xlink:href="#DejaVuSans-32"/>
      <use x="1101.367188" xlink:href="#DejaVuSans-115"/>
      <use x="1153.466797" xlink:href="#DejaVuSans-61"/>
      <use x="1237.255859" xlink:href="#DejaVuSans-48"/>
      <use x="1300.878906" xlink:href="#DejaVuSans-46"/>
      <use x="1332.666016" xlink:href="#DejaVuSans-55"/>
     </g>
    </g>
    <g id="line2d_40">
     <path d="M 88.2 180.923437 
L 108.2 180.923437 
" style="fill:none;stroke:#bcbd22;stroke-linecap:square;stroke-width:1.5;"/>
    </g>
    <g id="line2d_41"/>
    <g id="text_21">
     <!-- female fecundity loss s=0.8 -->
     <g transform="translate(116.2 184.423437)scale(0.1 -0.1)">
      <use xlink:href="#DejaVuSans-102"/>
      <use x="35.205078" xlink:href="#DejaVuSans-101"/>
      <use x="96.728516" xlink:href="#DejaVuSans-109"/>
      <use x="194.140625" xlink:href="#DejaVuSans-97"/>
      <use x="255.419922" xlink:href="#DejaVuSans-108"/>
      <use x="283.203125" xlink:href="#DejaVuSans-101"/>
      <use x="344.726562" xlink:href="#DejaVuSans-32"/>
      <use x="376.513672" xlink:href="#DejaVuSans-102"/>
      <use x="411.71875" xlink:href="#DejaVuSans-101"/>
      <use x="473.242188" xlink:href="#DejaVuSans-99"/>
      <use x="528.222656" xlink:href="#DejaVuSans-117"/>
      <use x="591.601562" xlink:href="#DejaVuSans-110"/>
      <use x="654.980469" xlink:href="#DejaVuSans-100"/>
      <use x="718.457031" xlink:href="#DejaVuSans-105"/>
      <use x="746.240234" xlink:href="#DejaVuSans-116"/>
      <use x="785.449219" xlink:href="#DejaVuSans-121"/>
      <use x="844.628906" xlink:href="#DejaVuSans-32"/>
      <use x="876.416016" xlink:href="#DejaVuSans-108"/>
      <use x="904.199219" xlink:href="#DejaVuSans-111"/>
      <use x="965.380859" xlink:href="#DejaVuSans-115"/>
      <use x="1017.480469" xlink:href="#DejaVuSans-115"/>
      <use x="1069.580078" xlink:href="#DejaVuSans-32"/>
      <use x="1101.367188" xlink:href="#DejaVuSans-115"/>
      <use x="1153.466797" xlink:href="#DejaVuSans-61"/>
      <use x="1237.255859" xlink:href="#DejaVuSans-48"/>
      <use x="1300.878906" xlink:href="#DejaVuSans-46"/>
      <use x="1332.666016" xlink:href="#DejaVuSans-56"/>
     </g>
    </g>
    <g id="line2d_42">
     <path d="M 88.2 195.601562 
L 108.2 195.601562 
" style="fill:none;stroke:#17becf;stroke-linecap:square;stroke-width:1.5;"/>
    </g>
    <g id="line2d_43"/>
    <g id="text_22">
     <!-- female fecundity loss s=0.9 -->
     <defs>
      <path d="M 10.984375 1.515625 
L 10.984375 10.5 
Q 14.703125 8.734375 18.5 7.8125 
Q 22.3125 6.890625 25.984375 6.890625 
Q 35.75 6.890625 40.890625 13.453125 
Q 46.046875 20.015625 46.78125 33.40625 
Q 43.953125 29.203125 39.59375 26.953125 
Q 35.25 24.703125 29.984375 24.703125 
Q 19.046875 24.703125 12.671875 31.3125 
Q 6.296875 37.9375 6.296875 49.421875 
Q 6.296875 60.640625 12.9375 67.421875 
Q 19.578125 74.21875 30.609375 74.21875 
Q 43.265625 74.21875 49.921875 64.515625 
Q 56.59375 54.828125 56.59375 36.375 
Q 56.59375 19.140625 48.40625 8.859375 
Q 40.234375 -1.421875 26.421875 -1.421875 
Q 22.703125 -1.421875 18.890625 -0.6875 
Q 15.09375 0.046875 10.984375 1.515625 
z
M 30.609375 32.421875 
Q 37.25 32.421875 41.125 36.953125 
Q 45.015625 41.5 45.015625 49.421875 
Q 45.015625 57.28125 41.125 61.84375 
Q 37.25 66.40625 30.609375 66.40625 
Q 23.96875 66.40625 20.09375 61.84375 
Q 16.21875 57.28125 16.21875 49.421875 
Q 16.21875 41.5 20.09375 36.953125 
Q 23.96875 32.421875 30.609375 32.421875 
z
" id="DejaVuSans-57"/>
     </defs>
     <g transform="translate(116.2 199.101562)scale(0.1 -0.1)">
      <use xlink:href="#DejaVuSans-102"/>
      <use x="35.205078" xlink:href="#DejaVuSans-101"/>
      <use x="96.728516" xlink:href="#DejaVuSans-109"/>
      <use x="194.140625" xlink:href="#DejaVuSans-97"/>
      <use x="255.419922" xlink:href="#DejaVuSans-108"/>
      <use x="283.203125" xlink:href="#DejaVuSans-101"/>
      <use x="344.726562" xlink:href="#DejaVuSans-32"/>
      <use x="376.513672" xlink:href="#DejaVuSans-102"/>
      <use x="411.71875" xlink:href="#DejaVuSans-101"/>
      <use x="473.242188" xlink:href="#DejaVuSans-99"/>
      <use x="528.222656" xlink:href="#DejaVuSans-117"/>
      <use x="591.601562" xlink:href="#DejaVuSans-110"/>
      <use x="654.980469" xlink:href="#DejaVuSans-100"/>
      <use x="718.457031" xlink:href="#DejaVuSans-105"/>
      <use x="746.240234" xlink:href="#DejaVuSans-116"/>
      <use x="785.449219" xlink:href="#DejaVuSans-121"/>
      <use x="844.628906" xlink:href="#DejaVuSans-32"/>
      <use x="876.416016" xlink:href="#DejaVuSans-108"/>
      <use x="904.199219" xlink:href="#DejaVuSans-111"/>
      <use x="965.380859" xlink:href="#DejaVuSans-115"/>
      <use x="1017.480469" xlink:href="#DejaVuSans-115"/>
      <use x="1069.580078" xlink:href="#DejaVuSans-32"/>
      <use x="1101.367188" xlink:href="#DejaVuSans-115"/>
      <use x="1153.466797" xlink:href="#DejaVuSans-61"/>
      <use x="1237.255859" xlink:href="#DejaVuSans-48"/>
      <use x="1300.878906" xlink:href="#DejaVuSans-46"/>
      <use x="1332.666016" xlink:href="#DejaVuSans-57"/>
     </g>
    </g>
    <g id="line2d_44">
     <path d="M 88.2 210.279687 
L 108.2 210.279687 
" style="fill:none;stroke:#1f77b4;stroke-linecap:square;stroke-width:1.5;"/>
    </g>
    <g id="line2d_45"/>
    <g id="text_23">
     <!-- female fecundity loss s=1.0 -->
     <g transform="translate(116.2 213.779687)scale(0.1 -0.1)">
      <use xlink:href="#DejaVuSans-102"/>
      <use x="35.205078" xlink:href="#DejaVuSans-101"/>
      <use x="96.728516" xlink:href="#DejaVuSans-109"/>
      <use x="194.140625" xlink:href="#DejaVuSans-97"/>
      <use x="255.419922" xlink:href="#DejaVuSans-108"/>
      <use x="283.203125" xlink:href="#DejaVuSans-101"/>
      <use x="344.726562" xlink:href="#DejaVuSans-32"/>
      <use x="376.513672" xlink:href="#DejaVuSans-102"/>
      <use x="411.71875" xlink:href="#DejaVuSans-101"/>
      <use x="473.242188" xlink:href="#DejaVuSans-99"/>
      <use x="528.222656" xlink:href="#DejaVuSans-117"/>
      <use x="591.601562" xlink:href="#DejaVuSans-110"/>
      <use x="654.980469" xlink:href="#DejaVuSans-100"/>
      <use x="718.457031" xlink:href="#DejaVuSans-105"/>
      <use x="746.240234" xlink:href="#DejaVuSans-116"/>
      <use x="785.449219" xlink:href="#DejaVuSans-121"/>
      <use x="844.628906" xlink:href="#DejaVuSans-32"/>
      <use x="876.416016" xlink:href="#DejaVuSans-108"/>
      <use x="904.199219" xlink:href="#DejaVuSans-111"/>
      <use x="965.380859" xlink:href="#DejaVuSans-115"/>
      <use x="1017.480469" xlink:href="#DejaVuSans-115"/>
      <use x="1069.580078" xlink:href="#DejaVuSans-32"/>
      <use x="1101.367188" xlink:href="#DejaVuSans-115"/>
      <use x="1153.466797" xlink:href="#DejaVuSans-61"/>
      <use x="1237.255859" xlink:href="#DejaVuSans-49"/>
      <use x="1300.878906" xlink:href="#DejaVuSans-46"/>
      <use x="1332.666016" xlink:href="#DejaVuSans-48"/>
     </g>
    </g>
   </g>
  </g>
 </g>
 <defs>
  <clipPath id="p7c2c29e664">
   <rect height="403.2" width="633.6" x="79.2" y="50.4"/>
  </clipPath>
 </defs>
</svg>
